SplineFontDB: 3.0
FontName: ETBembo-Expert
FullName: ETBembo Expert
FamilyName: ETBembo
Weight: Normal
Copyright: ETBembo Expert designed for Eward Tufte / Graphics Press (c) 2002 Dmitry Krasny / Deka Design
Version: 001.001
ItalicAngle: 0
UnderlinePosition: -100
UnderlineWidth: 50
Ascent: 800
Descent: 200
InvalidEm: 0
LayerCount: 2
Layer: 0 0 "Back" 1
Layer: 1 0 "Fore" 0
UniqueID: 4364373
OS2Version: 0
OS2_WeightWidthSlopeOnly: 0
OS2_UseTypoMetrics: 0
CreationTime: 1444759070
ModificationTime: 1444759070
OS2TypoAscent: 0
OS2TypoAOffset: 1
OS2TypoDescent: 0
OS2TypoDOffset: 1
OS2TypoLinegap: 0
OS2WinAscent: 0
OS2WinAOffset: 1
OS2WinDescent: 0
OS2WinDOffset: 1
HheadAscent: 0
HheadAOffset: 1
HheadDescent: 0
HheadDOffset: 1
OS2Vendor: 'PfEd'
DEI: 91125
Encoding: Custom
UnicodeInterp: none
NameList: AGL For New Fonts
DisplaySize: -48
AntiAlias: 1
FitToEm: 0
BeginPrivate: 9
BlueValues 25 [ -14 0 478 490 605 614 ]
BlueScale 7 0.02727
BlueShift 1 7
BlueFuzz 1 1
StdHW 6 [ 37 ]
StdVW 6 [ 57 ]
ForceBold 5 false
StemSnapH 9 [ 20 37 ]
StemSnapV 10 [ 57 150 ]
EndPrivate
BeginChars: 256 162

StartChar: yacute
Encoding: 8 253 1
Width: 500
Flags: MW
HStem: -3 39<160 162 162 163 327 347.5> 444 34<339 354.5> 712 20G<277 365 365 365>
VStem: 221 78<77 177 160.5 177>
LayerCount: 2
Fore
SplineSet
486 445 m 0
 462 444 448 435 433 420 c 0
 423 410 418 402 398 365 c 2
 299 186 l 1
 299 76 l 2
 299 42 308 36 346 36 c 0
 349 36 354 37 359 35 c 0
 375 33 373 -3 356 -3 c 0
 308 -1 223 0 162 -3 c 0
 147 -3 144 37 160 36 c 0
 166 36 170 39 176 37 c 0
 209 37 220 43 221 77 c 0
 222 110 221 144 221 177 c 1
 101 381 l 2
 71 431 57 442 24 444 c 0
 14 445 7 443 7 457 c 0
 5 486 26 479 48 477 c 0
 95 475 142 477 189 478 c 0
 201 478 207 480 211 468 c 0
 215 458 213 445 198 445 c 0
 163 445 162 436 162 434 c 0
 162 427 162 426 182 394 c 2
 268 249 l 1
 274 247 273 245 280 255 c 2
 350 385 l 2
 368 419 371 425 371 430 c 0
 371 438 370 444 339 444 c 0
 330 441 324 444 321 454 c 0
 317 464 319 478 333 478 c 0
 368 476 431 476 485 478 c 0
 495 478 497 467 497 461 c 0
 497 456 494 445 486 445 c 0
379 723 m 0
 379 721 378 719 378 718 c 2
 235 546 l 2
 229 539 204 539 209 555 c 2
 258 719 l 2
 262 727 270 732 277 732 c 2
 365 732 l 2
 372 733 381 731 379 723 c 0
EndSplineSet
EndChar

StartChar: thorn
Encoding: 12 254 2
Width: 434
Flags: W
HStem: -3 37<50.5 83.5> 102 35<213.5 244 200.5 272.5> 444 33 458 20G<70.5 75>
VStem: 106 77<62 76 76 99 153 160 160 353> 315 78<214.5 289.5>
LayerCount: 2
Fore
SplineSet
218 102 m 0xec
 209 102 200 104 192 106 c 0
 185 107 183 115 183 99 c 2
 183 76 l 2
 183 41 192 34 229 34 c 2
 246 34 l 2
 276 36 269 -6 251 -4 c 0
 200 -2 104 -1 58 -3 c 0
 43 -3 39 29 55 33 c 0
 60 34 66 34 69 34 c 0
 98 34 106 40 106 62 c 2
 106 400 l 2
 106 433 103 442 67 444 c 0xec
 62 444 56 446 54 451 c 0
 52 456 51 465 54 471 c 0
 57 480 66 478 75 478 c 0xdc
 118 476 175 476 218 477 c 0
 227 478 235 479 238 470 c 0
 240 465 239 457 237 452 c 0
 234 443 229 444 221 444 c 0
 195 443 188 441 185 417 c 0
 185 414 184 400 184 396 c 1
 201 396 l 2
 287 396 393 373 393 251 c 0
 393 162 327 102 218 102 c 0xec
191 362 m 0
 187 362 184 358 183 353 c 2
 183 160 l 2
 183 146 188 137 213 137 c 0
 275 137 315 178 315 251 c 0
 315 328 264 372 191 362 c 0
EndSplineSet
EndChar

StartChar: onehalf
Encoding: 21 189 3
Width: 727
Flags: MW
HStem: -36 21G<135 139.5> -7 21G<437 440 440 670> 288 51<530 566.5>
VStem: 128 66<355 360 360 559 559 560> 613 73<206 248>
LayerCount: 2
Fore
SplineSet
670 -7 m 0
 608 -8 502 -8 440 -7 c 0
 434 -7 426 -5 427 1 c 0
 427 5 426 15 430 19 c 0
 446 38 467 59 509 95 c 0
 548 128 613 177 613 232 c 0
 613 264 585 288 548 288 c 0
 512 288 481 264 467 222 c 0
 465 216 433 215 433 223 c 0
 440 295 494 339 565 339 c 0
 631 339 686 297 686 238 c 0
 686 174 632 143 587 111 c 0
 562 94 544 81 513 54 c 0
 509 50 520 47 523 47 c 0
 556 45 588 45 612 47 c 0
 621 47 643 46 650 51 c 0
 655 54 657 62 662 82 c 0
 662 85 670 87 680 87 c 0
 690 87 698 84 698 81 c 0
 697 61 691 29 686 6 c 0
 684 3 681 -5 670 -7 c 0
156 -17 m 2
 152 -23 144 -36 135 -36 c 2
 106 -34 l 2
 94 -33 95 -19 100 -11 c 2
 570 654 l 2
 575 660 581 661 589 660 c 2
 611 658 l 2
 626 656 619 638 615 631 c 2
 156 -17 l 2
243 298 m 0
 190 300 132 300 80 298 c 0
 75 298 71 306 71 314 c 0
 72 321 76 330 80 331 c 2
 116 333 l 2
 121 334 128 343 128 355 c 2
 128 559 l 2
 128 561 128 568 126 567 c 0
 114 560 104 555 94 550 c 0
 85 546 75 542 63 538 c 0
 50 537 43 553 49 561 c 0
 89 585 132 618 152 642 c 0
 156 646 194 647 194 640 c 2
 194 360 l 2
 194 346 201 335 215 334 c 2
 243 332 l 2
 248 331 251 323 251 315 c 0
 251 306 246 298 243 298 c 0
EndSplineSet
EndChar

StartChar: onequarter
Encoding: 22 188 4
Width: 721
Flags: MW
HStem: -36 21G 86 46<495 553 644 685 644 644> 298 34<77.5 108 108 108 108 243>
VStem: 128 66<355 560 560 562.5> 567 66<0 67 0 77 0 77 146 148>
LayerCount: 2
Fore
SplineSet
695 95 m 0
 694 90 692 86 689 86 c 2
 644 86 l 2
 635 85 636 77 633 67 c 2
 633 0 l 2
 632 -11 627 -15 618 -15 c 0
 612 -15 590 -17 584 -15 c 0
 574 -14 569 -10 567 -2 c 2
 567 77 l 2
 565 83 561 85 553 86 c 0
 518 83 463 85 431 86 c 0
 421 86 419 94 419 98 c 2
 419 111 l 1
 461 168 543 274 596 338 c 1
 606 341 606 342 618 340 c 0
 623 339 634 335 633 328 c 2
 633 142 l 2
 633 139 635 132 642 132 c 2
 685 132 l 2
 694 133 695 127 695 108 c 0
 695 105 696 100 695 95 c 0
152 -22 m 2
 147 -29 143 -36 133 -36 c 2
 106 -34 l 2
 93 -33 94 -21 99 -13 c 2
 567 650 l 2
 572 657 577 661 586 660 c 2
 613 657 l 2
 622 656 625 648 620 641 c 2
 152 -22 l 2
243 298 m 0
 190 300 132 300 80 298 c 0
 75 298 72 306 72 314 c 0
 73 321 76 329 80 330 c 2
 108 332 l 2
 120 333 128 341 128 355 c 0
 129 405 132 529 128 560 c 0
 128 565 124 566 122 565 c 0
 111 558 102 553 93 549 c 0
 84 546 75 542 63 538 c 0
 50 537 43 554 49 561 c 0
 89 585 132 618 152 642 c 0
 156 646 194 647 194 640 c 0
 197 549 195 412 194 355 c 0
 194 342 199 333 214 333 c 2
 244 332 l 2
 246 332 250 322 251 314 c 0
 251 305 246 298 243 298 c 0
570 230 m 2
 569 235 572 243 567 241 c 0
 544 214 506 164 487 138 c 0
 485 134 490 132 495 132 c 0
 513 131 543 132 560 132 c 0
 566 133 567 144 567 148 c 2
 570 230 l 2
EndSplineSet
EndChar

StartChar: onesuperior
Encoding: 23 185 5
Width: 301
Flags: MW
HStem: 639 20G<165 180 180 184.5>
VStem: 130 65<383 555 555 555>
LayerCount: 2
Fore
SplineSet
250 315 m 0
 249 306 245 303 236 304 c 0
 210 305 106 307 81 304 c 0
 76 303 70 307 69 314 c 0
 69 317 68 323 70 329 c 0
 75 335 77 339 88 339 c 0
 95 339 105 340 111 342 c 0
 129 342 130 369 130 383 c 2
 130 555 l 2
 129 563 125 574 118 570 c 0
 99 559 86 555 71 553 c 0
 67 552 63 555 59 559 c 2
 55 568 l 2
 55 571 56 576 59 578 c 0
 105 607 131 624 147 650 c 0
 149 653 157 659 165 659 c 2
 180 659 l 2
 189 659 193 650 195 644 c 2
 195 377 l 2
 195 346 203 341 236 340 c 0
 245 340 248 335 250 327 c 0
 250 326 250 317 250 315 c 0
EndSplineSet
EndChar

StartChar: threequarters
Encoding: 24 190 6
Width: 715
Flags: W
HStem: -34 21G<103 110 103 141> 86 46<466 525 615 656 615 615> 291 36<132 156 132 159> 467 176<152.5 172> 596 47<128.5 148>
VStem: 179 66<565.5 569.5> 208 71<385 424.5> 539 66<0 67 0 77 0 77 146 148>
LayerCount: 2
Fore
SplineSet
157 -22 m 1xf3
 154 -27 l 2
 150 -32 147 -34 141 -34 c 2
 110 -34 l 2
 98 -34 98 -21 103 -13 c 2
 572 650 l 2
 577 657 582 661 590 660 c 2
 618 658 l 2
 628 658 628 645 623 638 c 2
 157 -22 l 1xf3
117 291 m 0
 71 291 17 308 17 338 c 0
 17 354 32 367 49 367 c 0xf5
 67 367 84 352 98 342 c 0
 116 330 126 327 138 327 c 0
 174 327 208 363 208 407 c 0
 208 442 185 467 159 467 c 0xf3
 146 467 137 464 118 450 c 0
 105 439 87 467 96 476 c 0
 152 510 179 541 179 560 c 0
 179 579 161 596 135 596 c 0
 110 596 84 579 65 545 c 0
 60 534 28 545 32 558 c 0
 56 612 102 643 155 643 c 0
 203 643 245 617 245 576 c 0xed
 245 555 234 537 213 519 c 0
 203 510 216 507 221 506 c 0
 257 491 279 460 279 420 c 0
 279 350 201 291 117 291 c 0
666 95 m 0
 665 90 664 86 660 86 c 2
 615 86 l 2
 607 85 607 77 605 67 c 2
 605 0 l 2
 603 -11 598 -15 589 -15 c 0
 583 -15 561 -17 555 -15 c 0
 545 -14 541 -10 539 -2 c 2
 539 77 l 2
 537 83 532 85 525 86 c 0
 489 83 435 85 403 86 c 0
 392 86 390 94 390 98 c 2
 390 111 l 1
 432 168 515 274 567 338 c 1
 577 341 577 342 589 340 c 0
 594 339 606 335 605 328 c 2
 605 142 l 2
 605 139 607 132 613 132 c 2
 656 132 l 2
 665 133 667 127 667 108 c 0
 667 105 667 100 666 95 c 0
542 230 m 2
 541 235 543 243 538 241 c 0
 515 214 477 164 458 138 c 0
 456 134 461 132 466 132 c 0
 484 131 515 132 531 132 c 0
 537 133 539 144 539 148 c 2
 542 230 l 2
EndSplineSet
EndChar

StartChar: threesuperior
Encoding: 25 179 7
Width: 349
Flags: W
HStem: 292 30<154.5 188 154.5 188.5> 466 193<183.5 207> 611 48<157.5 177.5>
VStem: 219 65<575.5 579.5> 240 73
LayerCount: 2
Fore
SplineSet
141 292 m 0xc8
 87 292 26 315 26 343 c 0
 26 357 46 377 62 377 c 0xd0
 79 377 92 362 104 351 c 0
 121 336 145 322 164 322 c 0
 212 322 239 361 240 400 c 0
 241 441 225 466 189 466 c 0xc8
 178 466 159 463 145 456 c 0
 139 453 136 464 132 472 c 0
 127 479 133 489 137 491 c 0
 158 498 174 502 191 516 c 0
 214 534 219 555 219 568 c 0
 219 591 194 611 161 611 c 0
 131 611 106 599 85 569 c 0
 78 560 45 568 53 582 c 0
 80 630 130 659 185 659 c 0
 239 659 284 626 284 587 c 0xb0
 284 564 276 535 252 516 c 0
 243 509 251 504 256 501 c 0
 284 485 313 455 313 414 c 0
 313 343 236 292 141 292 c 0xc8
EndSplineSet
EndChar

StartChar: twosuperior
Encoding: 26 178 8
Width: 349
Flags: MW
HStem: 306 63 615 54<187 188.5>
VStem: 234 73<544 570.5>
LayerCount: 2
Fore
SplineSet
300 320 m 0
 294 307 282 306 268 306 c 0
 215 307 145 310 53 306 c 0
 48 306 35 308 31 315 c 2
 29 320 l 2
 29 325 33 338 36 342 c 0
 65 366 100 394 130 418 c 0
 160 443 186 463 196 473 c 0
 217 496 234 520 234 552 c 0
 234 589 211 615 166 615 c 0
 124 615 90 588 73 548 c 0
 70 540 60 539 55 539 c 0
 45 539 43 546 44 551 c 0
 56 617 110 662 187 669 c 1
 263 669 307 618 307 560 c 0
 307 528 285 501 263 479 c 0
 240 456 221 440 202 426 c 0
 183 411 164 398 140 382 c 0
 130 374 129 370 149 370 c 0
 181 369 202 370 223 369 c 0
 271 367 280 386 287 413 c 0
 288 417 291 423 299 424 c 2
 309 423 l 2
 316 423 317 413 316 405 c 0
 315 390 305 328 300 320 c 0
EndSplineSet
EndChar

StartChar: minus
Encoding: 28 8722 9
Width: 435
Flags: W
LayerCount: 2
Fore
SplineSet
394 217 m 2
 391 206 380 201 371 199 c 0
 289 195 139 196 69 199 c 0
 62 200 46 207 44 220 c 2
 45 249 l 2
 46 262 68 269 74 268 c 0
 152 265 299 265 370 268 c 0
 376 269 391 263 392 255 c 2
 394 217 l 2
EndSplineSet
EndChar

StartChar: exclam
Encoding: 33 33 10
Width: 189
Flags: W
HStem: -11 21G<84.5 101.5> 486 20G<87 107 107 121.5>
VStem: 55 82<23 38.5> 67 58
LayerCount: 2
Fore
SplineSet
134 470 m 2xd0
 110 136 l 1
 105 124 84 126 81 136 c 2
 57 470 l 2
 56 490 59 506 87 506 c 2
 107 506 l 2
 136 506 135 492 134 470 c 2xd0
96 -11 m 0
 73 -11 55 7 55 32 c 0xe0
 55 45 56 55 67 64 c 0xd0
 78 72 85 76 96 76 c 0
 118 76 137 55 137 29 c 0xe0
 137 17 130 12 125 2 c 0
 119 -8 107 -11 96 -11 c 0
EndSplineSet
EndChar

StartChar: dollar
Encoding: 36 36 11
Width: 384
Flags: W
HStem: -85 21G<145 166 145 145 224 236 224 224> -14 21G<212 213> 499 20G<227 237 237 247> 500 20G
VStem: 40 130<75.5 92> 54 57<376 382> 140 30<48 201 31 234 343 425 425 428 482 511> 215 31 215 120<383 432> 292 63<89.5 112.5>
LayerCount: 2
Fore
SplineSet
249 465 m 1xe940
 299 450 335 423 335 392 c 0xe880
 335 374 323 360 305 360 c 0
 280 360 270 384 257 402 c 0
 254 407 246 421 246 407 c 2
 246 271 l 2
 247 267 246 259 250 256 c 0
 301 225 355 187 355 119 c 0
 355 60 315 13 253 -7 c 0
 244 -10 246 -12 246 -21 c 0
 246 -43 246 -53 247 -74 c 0
 247 -83 241 -85 236 -85 c 2
 224 -85 l 2
 218 -83 214 -77 215 -72 c 2
 216 -19 l 2
 216 -16 214 -14 212 -14 c 0
 198 -16 189 -16 175 -13 c 0
 174 -14 171 -15 171 -18 c 0
 171 -36 170 -54 172 -72 c 0
 173 -78 172 -82 166 -85 c 2
 145 -85 l 2
 139 -82 139 -76 140 -73 c 2
 140 -20 l 2xe740
 138 -12 140 -7 132 -5 c 0
 108 3 82 13 64 32 c 0
 49 48 40 68 40 83 c 0xe940
 40 101 56 118 74 118 c 0
 105 118 109 77 119 55 c 0
 122 50 125 45 132 40 c 0
 135 36 140 40 140 48 c 2
 140 234 l 2
 138 237 138 238 135 240 c 0
 94 271 54 298 54 358 c 0
 54 406 86 446 135 464 c 0
 139 465 140 472 140 476 c 2
 140 512 l 2
 142 520 151 519 158 520 c 0xd740
 163 519 168 515 170 511 c 2
 170 482 l 2
 172 480 172 473 175 473 c 0
 187 474 201 474 214 473 c 0
 215 472 216 480 216 482 c 2
 216 510 l 2
 217 514 223 518 227 519 c 2
 237 519 l 2
 257 519 240 472 248 465 c 1
 249 465 l 1xe940
215 429 m 2
 215 435 212 439 211 439 c 0
 197 443 191 444 177 442 c 0
 173 441 170 434 170 428 c 2
 170 322 l 2
 170 307 174 309 177 303 c 0
 189 293 192 293 204 285 c 0
 209 282 216 285 216 296 c 2
 215 429 l 2
135 429 m 0
 119 419 111 403 111 385 c 0
 111 367 112 358 129 342 c 0
 133 338 138 335 140 343 c 2
 140 425 l 2xe740
 140 431 137 431 135 429 c 0
256 162 m 0
 251 165 244 165 246 155 c 2
 246 40 l 2
 246 27 250 29 253 31 c 0
 281 48 292 69 292 101 c 0
 292 124 281 145 256 162 c 0
216 180 m 2
 216 186 211 192 210 193 c 2
 187 208 l 2
 177 214 170 217 170 201 c 2
 170 31 l 2
 171 25 173 18 180 17 c 0
 190 15 196 14 206 15 c 0
 212 16 216 21 216 32 c 2
 216 180 l 2
EndSplineSet
EndChar

StartChar: percent
Encoding: 37 37 12
Width: 487
Flags: W
LayerCount: 2
Fore
SplineSet
230 336 m 0
 229 272 185 225 128 225 c 0
 73 225 26 271 26 334 c 0
 26 399 71 445 127 445 c 0
 183 445 231 401 230 336 c 0
394 449 m 2
 120 -39 l 2
 112 -53 104 -49 93 -49 c 0
 86 -49 77 -37 85 -23 c 2
 358 461 l 2
 363 470 404 473 394 449 c 2
458 80 m 0
 457 15 414 -31 357 -31 c 0
 302 -31 255 15 255 77 c 0
 255 143 299 189 356 189 c 0
 412 189 459 145 458 80 c 0
181 336 m 0
 181 387 159 411 126 411 c 0
 97 411 74 385 74 334 c 0
 74 283 97 260 128 260 c 0
 160 260 181 285 181 336 c 0
409 80 m 0
 409 131 387 155 355 155 c 0
 325 155 304 129 304 79 c 0
 304 28 326 4 357 4 c 0
 388 4 409 29 409 80 c 0
EndSplineSet
EndChar

StartChar: ampersand
Encoding: 38 38 13
Width: 570
Flags: W
HStem: -14 57<164.5 183.5> 419 35<197.5 221.5>
VStem: 34 77<102.5 148 102.5 157> 107 65<363 387> 252 62<354.5 383>
LayerCount: 2
Fore
SplineSet
518 304 m 0xd8
 503 302 480 304 469 292 c 0
 462 285 452 268 443 251 c 0
 421 209 404 174 374 137 c 0
 369 131 368 132 369 127 c 0
 377 114 378 113 392 85 c 0
 418 37 426 31 441 31 c 0
 452 31 467 38 494 57 c 0
 501 60 508 54 511 48 c 0
 515 42 516 32 510 28 c 0
 477 1 445 -14 415 -14 c 0
 385 -14 367 -3 353 13 c 0
 342 28 334 45 325 61 c 0
 322 66 318 72 311 65 c 0
 261 15 208 -14 159 -14 c 0
 88 -14 34 45 34 120 c 0xe8
 34 194 80 228 139 257 c 0
 146 260 149 265 144 271 c 0
 121 297 107 328 107 358 c 0
 107 416 151 454 214 454 c 0
 270 454 314 422 314 372 c 0
 314 337 290 306 251 280 c 0
 246 277 244 273 251 267 c 0
 266 255 282 239 296 225 c 0
 317 204 328 191 342 170 c 0
 346 163 352 165 357 172 c 0
 368 188 382 208 394 227 c 0
 416 264 427 294 427 300 c 0
 427 302 419 303 411 304 c 0
 403 305 394 305 392 306 c 0
 383 310 380 333 391 337 c 0
 394 337 396 338 399 338 c 0
 438 334 495 336 519 338 c 0
 523 338 530 337 532 328 c 0
 532 312 530 306 518 304 c 0xd8
209 419 m 0
 186 419 172 404 172 376 c 0xd8
 172 350 186 323 215 297 c 1
 241 315 252 335 252 366 c 0
 252 400 234 419 209 419 c 0
243 180 m 0
 227 196 209 215 190 230 c 0
 185 233 179 240 170 232 c 0
 128 198 111 167 111 129 c 0xe8
 111 76 142 43 187 43 c 0
 220 43 262 63 292 93 c 0
 300 101 299 107 295 113 c 0
 280 138 263 159 243 180 c 0
EndSplineSet
EndChar

StartChar: quotesingle
Encoding: 39 39 14
Width: 272
Flags: W
LayerCount: 2
Fore
SplineSet
87 451 m 0
 79 446 63 471 77 479 c 0
 127 509 152 543 152 575 c 0
 152 588 147 592 145 592 c 0
 139 592 129 587 119 587 c 0
 91 587 71 610 71 638 c 0
 71 670 97 694 129 694 c 0
 173 694 203 655 203 604 c 0
 203 541 157 479 87 451 c 0
EndSplineSet
EndChar

StartChar: parenleft
Encoding: 40 40 15
Width: 298
Flags: MW
VStem: 71 67<167.5 265.5 167.5 303>
LayerCount: 2
Fore
SplineSet
254 -191 m 0
 245 -196 238 -190 233 -184 c 0
 136 -74 71 78 71 226 c 0
 71 380 139 532 241 644 c 1
 261 659 288 630 276 611 c 0
 238 568 196 492 172 427 c 0
 148 364 138 305 138 226 c 0
 138 109 160 27 219 -77 c 0
 243 -119 250 -129 276 -160 c 0
 282 -173 268 -184 254 -191 c 0
EndSplineSet
EndChar

StartChar: parenright
Encoding: 41 41 16
Width: 284
Flags: MW
VStem: 150 65<187.5 286>
LayerCount: 2
Fore
SplineSet
46 -191 m 0
 27 -206 -5 -184 11 -158 c 1
 50 -114 92 -40 116 26 c 0
 140 89 150 147 150 228 c 0
 150 344 127 425 68 531 c 0
 47 569 39 582 17 606 c 0
 10 615 10 630 20 639 c 0
 32 649 46 647 54 638 c 0
 154 527 215 378 215 228 c 0
 215 74 151 -79 46 -191 c 0
EndSplineSet
EndChar

StartChar: asterisk
Encoding: 42 42 17
Width: 484
Flags: W
LayerCount: 2
Fore
SplineSet
360 350 m 0
 338 350 328 364 316 380 c 0
 305 394 290 411 262 429 c 0
 259 431 256 429 257 425 c 0
 257 388 262 371 267 358 c 0
 269 351 272 345 273 339 c 0
 276 333 276 326 276 317 c 0
 276 298 264 281 244 281 c 0
 224 281 212 298 212 317 c 0
 212 336 216 342 222 358 c 0
 227 370 231 388 232 425 c 0
 232 427 235 434 227 429 c 0
 198 411 184 394 173 379 c 0
 160 364 150 350 128 350 c 0
 110 350 98 367 98 380 c 0
 98 408 114 413 138 419 c 0
 167 426 189 430 215 445 c 0
 220 448 221 452 216 455 c 0
 201 462 189 466 178 470 c 0
 162 475 148 477 137 480 c 0
 114 487 98 493 98 520 c 0
 98 527 103 550 132 550 c 0
 149 550 161 534 171 522 c 0
 183 508 199 490 226 473 c 0
 232 469 233 474 233 478 c 0
 231 506 227 523 223 537 c 0
 218 553 212 567 212 583 c 0
 212 600 223 618 244 618 c 0
 265 618 276 600 276 583 c 0
 276 567 270 553 266 537 c 0
 261 522 256 504 256 473 c 0
 256 469 258 470 261 472 c 0
 289 490 305 507 317 522 c 0
 327 534 340 550 357 550 c 0
 385 550 390 527 390 520 c 0
 390 479 338 478 311 470 c 0
 299 466 286 461 271 454 c 0
 266 452 268 448 273 446 c 0
 288 438 299 432 310 429 c 0
 338 421 390 422 390 380 c 0
 390 367 379 350 360 350 c 0
EndSplineSet
EndChar

StartChar: comma
Encoding: 44 44 18
Width: 251
Flags: W
HStem: -19 101<109.5 118>
VStem: 70 122<16.5 23 -30 45> 142 50<-30 -22>
LayerCount: 2
Fore
SplineSet
87 -139 m 0xc0
 80 -142 72 -139 69 -132 c 0
 65 -124 68 -114 77 -111 c 0
 121 -84 142 -55 142 -26 c 0xa0
 142 -18 140 -16 138 -16 c 0
 134 -14 121 -19 115 -19 c 0
 89 -19 70 3 70 30 c 0
 70 60 95 82 124 82 c 0
 164 82 192 46 192 0 c 0
 192 -60 149 -115 87 -139 c 0xc0
EndSplineSet
EndChar

StartChar: hyphen
Encoding: 45 45 19
Width: 435
Flags: MW
HStem: 199 69<74 370 74 371>
LayerCount: 2
Fore
SplineSet
394 217 m 2
 391 206 380 201 371 199 c 0
 289 195 139 196 69 199 c 0
 62 200 46 207 44 220 c 2
 45 249 l 2
 46 262 68 269 74 268 c 0
 152 265 299 265 370 268 c 0
 376 269 391 263 392 255 c 2
 394 217 l 2
EndSplineSet
EndChar

StartChar: period
Encoding: 46 46 20
Width: 261
Flags: MW
HStem: -18 115<115.5 150.5>
VStem: 72 119<23.5 56.5>
LayerCount: 2
Fore
SplineSet
133 -18 m 0
 98 -18 72 6 72 39 c 0
 72 74 97 97 133 97 c 0
 168 97 191 74 191 40 c 0
 191 7 168 -18 133 -18 c 0
EndSplineSet
EndChar

StartChar: slash
Encoding: 47 47 21
Width: 100
Flags: W
LayerCount: 2
Fore
SplineSet
-152 -40 m 1
 -171 -51 -191 -24 -183 -11 c 0
 -37 211 107 432 249 654 c 0
 262 669 290 643 284 628 c 0
 136 405 -8 183 -152 -40 c 1
EndSplineSet
EndChar

StartChar: zero
Encoding: 48 48 22
Width: 505
Flags: MW
HStem: -14 49<210.5 297 210.5 316> 408 47<210.5 297>
VStem: 44 70<162.5 279 162.5 285> 396 69<161.5 280>
LayerCount: 2
Fore
SplineSet
253 -14 m 0
 132 -14 44 83 44 215 c 0
 44 355 131 455 254 455 c 0
 379 455 465 356 465 218 c 0
 465 82 379 -14 253 -14 c 0
252 408 m 0
 169 408 114 337 114 221 c 0
 114 104 168 35 253 35 c 0
 341 35 396 103 396 220 c 0
 396 340 342 408 252 408 c 0
EndSplineSet
EndChar

StartChar: one
Encoding: 49 49 23
Width: 430
Flags: MW
HStem: -5 38
VStem: 201 75<82 86 86 324 324 324>
LayerCount: 2
Fore
SplineSet
354 -5 m 0
 279 0 193 -3 117 -5 c 0
 98 -5 97 41 132 33 c 1
 189 35 201 46 201 82 c 2
 201 324 l 2
 200 334 200 346 192 340 c 0
 163 317 127 304 95 288 c 0
 85 284 75 308 82 312 c 0
 100 324 110 330 124 340 c 0
 161 366 207 405 233 441 c 1
 246 452 276 446 276 438 c 2
 276 86 l 2
 276 36 299 30 340 33 c 0
 352 36 363 34 366 22 c 0
 369 11 362 -5 354 -5 c 0
EndSplineSet
EndChar

StartChar: two
Encoding: 50 50 24
Width: 481
Flags: MW
HStem: -4 71<316 331 316 372> 397 58<211.5 234.5>
VStem: 304 79<307.5 327.5>
LayerCount: 2
Fore
SplineSet
372 -4 m 0
 278 -1 119 -2 50 -4 c 0
 45 -4 34 -2 33 4 c 0
 31 11 33 20 36 23 c 0
 120 82 168 118 220 164 c 0
 281 218 304 257 304 299 c 0
 304 356 264 397 205 397 c 0
 167 397 133 381 89 341 c 0
 85 337 60 343 68 359 c 1
 129 428 178 455 245 455 c 0
 321 455 383 404 383 338 c 0
 383 277 352 228 271 160 c 0
 244 137 217 119 156 76 c 0
 148 70 162 69 176 69 c 2
 316 67 l 2
 346 67 365 66 382 94 c 0
 390 108 400 127 411 156 c 0
 415 160 423 161 429 160 c 0
 434 159 441 156 439 150 c 0
 434 114 421 55 405 11 c 0
 403 3 390 -4 372 -4 c 0
EndSplineSet
EndChar

StartChar: three
Encoding: 51 51 25
Width: 444
Flags: W
HStem: -184 49<192 207> 393 65<188.5 209.5>
VStem: 257 74<311 337> 269 75<-24.5 16.5>
LayerCount: 2
Fore
SplineSet
153 -184 m 0xd0
 96 -184 60 -160 60 -124 c 0
 60 -92 94 -78 118 -92 c 0
 124 -96 129 -101 135 -105 c 0
 167 -129 183 -135 201 -135 c 0
 239 -135 269 -90 269 -16 c 0xd0
 269 49 257 81 227 107 c 0
 200 130 174 129 140 120 c 0
 126 116 124 142 131 146 c 0
 217 199 257 254 257 312 c 0
 257 362 230 393 189 393 c 0
 156 393 131 380 93 337 c 0
 87 329 70 341 74 355 c 0
 107 420 159 458 218 458 c 0
 283 458 331 405 331 336 c 0xe0
 331 286 310 247 248 201 c 0
 243 197 239 190 248 189 c 0
 267 187 276 182 290 170 c 0
 324 142 344 94 344 36 c 0
 344 -85 261 -184 153 -184 c 0xd0
EndSplineSet
EndChar

StartChar: four
Encoding: 52 52 26
Width: 481
Flags: W
HStem: 0 21G<252 253> 1 60
VStem: 259 80<-161 -132.5 -132.5 -12 76 293 293 300>
LayerCount: 2
Fore
SplineSet
447 4 m 2x60
 351 2 l 2
 346 2 339 -2 339 -12 c 0
 339 -64 339 -107 339 -158 c 0
 339 -167 337 -175 324 -176 c 2
 275 -178 l 2
 263 -179 259 -166 259 -161 c 2
 259 -6 l 2
 258 -3 254 0 252 0 c 0xa0
 198 -3 90 -1 36 1 c 0
 25 1 24 19 29 27 c 0
 95 134 236 344 309 449 c 0
 314 457 320 459 327 458 c 0
 332 456 339 450 339 444 c 2
 339 76 l 2
 340 66 341 64 349 61 c 2
 436 63 l 2
 445 63 454 62 456 54 c 0
 457 48 458 24 458 16 c 0
 458 8 450 4 447 4 c 2x60
247 296 m 0
 206 239 134 129 99 70 c 0
 95 64 108 59 116 59 c 0
 151 55 210 57 245 59 c 0
 255 60 259 69 259 70 c 2
 259 293 l 2
 259 307 252 302 247 296 c 0
EndSplineSet
EndChar

StartChar: five
Encoding: 53 53 27
Width: 444
Flags: MW
HStem: -177 53<91.5 217.5>
VStem: 296 68<7.5 62>
LayerCount: 2
Fore
SplineSet
344 373 m 0
 338 367 334 366 325 366 c 2
 235 379 l 2
 229 379 223 379 218 373 c 0
 203 359 181 329 171 315 c 0
 168 311 167 302 172 300 c 0
 218 270 241 253 273 223 c 0
 331 168 364 102 364 41 c 0
 364 -26 328 -86 263 -128 c 0
 215 -159 158 -177 107 -177 c 0
 76 -177 54 -162 54 -136 c 0
 54 -115 70 -97 90 -97 c 0
 97 -97 106 -100 116 -104 c 0
 159 -119 177 -124 190 -124 c 0
 245 -124 296 -63 296 9 c 0
 296 115 182 193 98 247 c 0
 86 254 88 268 97 280 c 0
 128 320 192 402 232 446 c 0
 240 454 242 455 255 453 c 2
 367 440 l 2
 376 439 382 431 379 424 c 0
 378 421 352 382 344 373 c 0
EndSplineSet
EndChar

StartChar: six
Encoding: 54 54 28
Width: 484
Flags: MW
HStem: -14 28<209 258.5 209 304> 369 26<235 274>
VStem: 41 86<153 222 139.5 325> 360 85<148.5 241>
LayerCount: 2
Fore
SplineSet
248 -14 m 0
 129 -14 41 86 41 220 c 0
 41 430 236 558 411 614 c 0
 441 621 443 601 435 591 c 1
 327 543 254 493 187 399 c 0
 184 394 176 383 185 386 c 0
 211 394 222 395 248 395 c 0
 364 395 445 314 445 197 c 0
 445 77 360 -14 248 -14 c 0
235 369 m 0
 215 369 199 365 171 353 c 0
 164 350 158 342 154 332 c 0
 133 277 127 247 127 197 c 0
 127 82 173 14 245 14 c 0
 272 14 298 24 318 44 c 0
 346 72 360 116 360 181 c 0
 360 301 313 369 235 369 c 0
EndSplineSet
EndChar

StartChar: seven
Encoding: 55 55 29
Width: 471
Flags: MW
HStem: 369 73<127 346>
LayerCount: 2
Fore
SplineSet
192 -166 m 0
 189 -173 181 -178 174 -177 c 2
 143 -172 l 2
 139 -171 130 -165 133 -156 c 0
 190 -17 305 241 363 360 c 0
 367 368 351 369 346 369 c 0
 289 367 179 368 127 369 c 0
 101 370 96 364 83 317 c 2
 71 274 l 2
 66 254 41 268 42 274 c 0
 46 317 55 397 63 431 c 0
 66 437 76 442 84 442 c 0
 170 441 336 441 418 442 c 0
 446 443 439 421 432 403 c 0
 372 262 211 -136 192 -166 c 0
EndSplineSet
EndChar

StartChar: eight
Encoding: 56 56 30
Width: 481
Flags: W
HStem: -14 29<213 274 213 288> 587 27<213.5 268.5>
VStem: 69 68<102 172> 89 62<479 511> 334 62<447 504> 334 80
LayerCount: 2
Fore
SplineSet
239 -14 m 0xe4
 143 -14 69 49 69 139 c 0xe8
 69 205 99 244 181 294 c 0
 184 296 185 305 180 308 c 0
 110 359 89 404 89 468 c 0
 89 554 153 614 245 614 c 0
 333 614 396 556 396 475 c 0xd8
 396 419 372 378 301 334 c 0
 300 334 300 326 303 323 c 0
 387 255 414 216 414 146 c 0
 414 53 337 -14 239 -14 c 0xe4
240 587 m 0
 187 587 151 552 151 503 c 0xd8
 151 455 183 409 265 350 c 0
 269 347 277 350 284 354 c 0
 321 378 334 424 334 467 c 0
 334 541 297 587 240 587 c 0
205 278 m 0
 155 245 137 209 137 141 c 0xe8
 137 63 180 15 246 15 c 0
 302 15 344 54 344 109 c 0
 344 168 313 212 221 276 c 0
 216 280 213 284 205 278 c 0
EndSplineSet
EndChar

StartChar: nine
Encoding: 57 57 31
Width: 470
Flags: MW
HStem: 46 27<207.5 243.5> 431 25<226.5 273.5>
VStem: 36 86<200.5 296.5 200.5 305> 355 85<224 286.5 102.5 304.5>
LayerCount: 2
Fore
SplineSet
64 -176 m 0
 43 -181 34 -151 49 -144 c 0
 131 -115 172 -95 218 -58 c 0
 257 -27 288 3 309 44 c 0
 310 46 318 63 310 60 c 0
 274 48 257 46 230 46 c 0
 120 46 36 133 36 245 c 0
 36 365 121 456 234 456 c 0
 356 456 440 355 440 218 c 0
 440 -13 263 -128 64 -176 c 0
238 431 m 0
 215 431 189 421 170 406 c 0
 139 381 122 333 122 260 c 0
 122 141 169 73 246 73 c 0
 272 73 293 78 326 95 c 0
 333 98 337 110 340 122 c 0
 353 170 355 201 355 247 c 0
 355 362 309 431 238 431 c 0
EndSplineSet
EndChar

StartChar: colon
Encoding: 58 58 32
Width: 257
Flags: MW
HStem: 12 103<114 144> 320 103<114 144>
VStem: 76 106<49 79 356.5 386.5>
LayerCount: 2
Fore
SplineSet
129 320 m 0
 99 320 76 342 76 371 c 0
 76 402 99 423 129 423 c 0
 159 423 182 402 182 371 c 0
 182 342 159 320 129 320 c 0
129 12 m 0
 99 12 76 34 76 64 c 0
 76 94 99 115 129 115 c 0
 159 115 182 95 182 64 c 0
 182 34 159 12 129 12 c 0
EndSplineSet
EndChar

StartChar: semicolon
Encoding: 59 59 33
Width: 235
Flags: W
HStem: 6 102<105 112.5> 316 103<102 132>
VStem: 64 107<352 382.5> 139 50<-7 2>
LayerCount: 2
Fore
SplineSet
117 316 m 0xe0
 87 316 64 337 64 367 c 0
 64 398 87 419 117 419 c 0
 147 419 171 398 171 367 c 0
 171 337 147 316 117 316 c 0xe0
78 -120 m 0
 66 -125 57 -100 69 -95 c 0
 116 -66 139 -34 139 -4 c 0
 139 8 135 10 133 10 c 0
 125 9 116 6 109 6 c 0
 83 6 65 30 65 58 c 0
 65 88 90 108 120 108 c 0
 161 108 189 72 189 24 c 0xd0
 189 -38 143 -93 78 -120 c 0
EndSplineSet
EndChar

StartChar: less
Encoding: 60 60 34
Width: 593
Flags: W
LayerCount: 2
Fore
SplineSet
507 12 m 0
 389 56 175 151 70 199 c 0
 60 204 60 208 59 219 c 0
 57 226 59 236 59 240 c 0
 60 248 68 256 79 261 c 0
 188 309 416 408 511 445 c 0
 534 454 536 435 536 417 c 2
 536 403 l 2
 536 395 523 385 516 382 c 0
 428 345 264 276 173 239 c 0
 149 230 165 222 172 219 c 0
 264 179 433 107 522 72 c 0
 534 67 536 60 536 50 c 2
 536 32 l 2
 536 17 530 4 507 12 c 0
EndSplineSet
EndChar

StartChar: equal
Encoding: 61 61 35
Width: 593
Flags: W
LayerCount: 2
Fore
SplineSet
502 299 m 2
 87 299 l 2
 70 297 63 308 61 317 c 2
 60 346 l 2
 62 356 71 358 80 358 c 0
 189 359 408 358 512 361 c 0
 523 361 528 357 531 352 c 0
 535 346 536 339 536 332 c 0
 536 328 536 323 536 316 c 0
 536 297 519 299 502 299 c 2
536 120 m 2
 535 105 533 100 512 100 c 2
 93 100 l 2
 77 100 58 102 58 119 c 2
 58 139 l 2
 58 161 75 162 86 162 c 0
 194 159 392 160 508 160 c 0
 517 160 537 154 536 143 c 2
 536 120 l 2
EndSplineSet
EndChar

StartChar: greater
Encoding: 62 62 36
Width: 593
Flags: W
LayerCount: 2
Fore
SplineSet
517 196 m 0
 411 148 211 65 103 20 c 0
 79 10 59 17 59 32 c 0
 59 39 59 45 59 50 c 0
 59 60 61 67 72 72 c 0
 160 107 337 180 428 220 c 0
 435 223 431 233 421 238 c 0
 331 282 162 351 78 382 c 0
 63 388 59 387 59 405 c 2
 59 420 l 2
 59 443 67 451 83 445 c 0
 193 403 411 310 519 259 c 0
 529 255 535 250 535 240 c 0
 535 236 537 226 536 219 c 0
 535 208 533 204 517 196 c 0
EndSplineSet
EndChar

StartChar: question
Encoding: 63 63 37
Width: 362
Flags: W
HStem: -17 109<139.5 172> 572 98<109.5 120.5>
VStem: 91 46<241.5 308> 91 118 286 41<466.5 520>
LayerCount: 2
Fore
SplineSet
251 329 m 0xe8
 228 313 217 307 179 294 c 0
 147 282 137 270 137 251 c 0
 137 232 145 216 173 183 c 0
 178 176 178 168 173 167 c 0
 161 165 154 160 144 172 c 0
 107 216 91 250 91 284 c 0
 91 332 114 358 172 380 c 0
 261 413 286 440 286 493 c 0
 286 547 250 580 186 580 c 0
 157 580 133 572 108 572 c 0
 68 572 42 585 42 615 c 0
 42 653 81 670 138 670 c 0
 247 670 327 591 327 477 c 0
 327 412 298 362 251 329 c 0xe8
155 -17 m 0
 122 -17 98 6 98 38 c 0
 98 71 123 92 156 92 c 0
 190 92 209 69 209 36 c 0xd8
 209 4 189 -17 155 -17 c 0
EndSplineSet
EndChar

StartChar: G
Encoding: 71 71 38
Width: 721
Flags: MW
HStem: -36 21G 86 46<495 553 644 685 644 644> 298 34<77.5 108 108 108 108 243>
VStem: 128 66<355 560 560 562.5> 567 66<0 67 0 77 0 77 146 148>
LayerCount: 2
Fore
SplineSet
695 95 m 0
 694 90 692 86 689 86 c 2
 644 86 l 2
 635 85 636 77 633 67 c 2
 633 0 l 2
 632 -11 627 -15 618 -15 c 0
 612 -15 590 -17 584 -15 c 0
 574 -14 569 -10 567 -2 c 2
 567 77 l 2
 565 83 561 85 553 86 c 0
 518 83 463 85 431 86 c 0
 421 86 419 94 419 98 c 2
 419 111 l 1
 461 168 543 274 596 338 c 1
 606 341 606 342 618 340 c 0
 623 339 634 335 633 328 c 2
 633 142 l 2
 633 139 635 132 642 132 c 2
 685 132 l 2
 694 133 695 127 695 108 c 0
 695 105 696 100 695 95 c 0
152 -22 m 2
 147 -29 143 -36 133 -36 c 2
 106 -34 l 2
 93 -33 94 -21 99 -13 c 2
 567 650 l 2
 572 657 577 661 586 660 c 2
 613 657 l 2
 622 656 625 648 620 641 c 2
 152 -22 l 2
243 298 m 0
 190 300 132 300 80 298 c 0
 75 298 72 306 72 314 c 0
 73 321 76 329 80 330 c 2
 108 332 l 2
 120 333 128 341 128 355 c 0
 129 405 132 529 128 560 c 0
 128 565 124 566 122 565 c 0
 111 558 102 553 93 549 c 0
 84 546 75 542 63 538 c 0
 50 537 43 554 49 561 c 0
 89 585 132 618 152 642 c 0
 156 646 194 647 194 640 c 0
 197 549 195 412 194 355 c 0
 194 342 199 333 214 333 c 2
 244 332 l 2
 246 332 250 322 251 314 c 0
 251 305 246 298 243 298 c 0
570 230 m 2
 569 235 572 243 567 241 c 0
 544 214 506 164 487 138 c 0
 485 134 490 132 495 132 c 0
 513 131 543 132 560 132 c 0
 566 133 567 144 567 148 c 2
 570 230 l 2
EndSplineSet
EndChar

StartChar: H
Encoding: 72 72 39
Width: 727
Flags: MW
HStem: -36 21G<135 139.5> -7 21G<437 440 440 670> 288 51<530 566.5>
VStem: 128 66<355 360 360 559 559 560> 613 73<206 248>
LayerCount: 2
Fore
SplineSet
670 -7 m 0
 608 -8 502 -8 440 -7 c 0
 434 -7 426 -5 427 1 c 0
 427 5 426 15 430 19 c 0
 446 38 467 59 509 95 c 0
 548 128 613 177 613 232 c 0
 613 264 585 288 548 288 c 0
 512 288 481 264 467 222 c 0
 465 216 433 215 433 223 c 0
 440 295 494 339 565 339 c 0
 631 339 686 297 686 238 c 0
 686 174 632 143 587 111 c 0
 562 94 544 81 513 54 c 0
 509 50 520 47 523 47 c 0
 556 45 588 45 612 47 c 0
 621 47 643 46 650 51 c 0
 655 54 657 62 662 82 c 0
 662 85 670 87 680 87 c 0
 690 87 698 84 698 81 c 0
 697 61 691 29 686 6 c 0
 684 3 681 -5 670 -7 c 0
156 -17 m 2
 152 -23 144 -36 135 -36 c 2
 106 -34 l 2
 94 -33 95 -19 100 -11 c 2
 570 654 l 2
 575 660 581 661 589 660 c 2
 611 658 l 2
 626 656 619 638 615 631 c 2
 156 -17 l 2
243 298 m 0
 190 300 132 300 80 298 c 0
 75 298 71 306 71 314 c 0
 72 321 76 330 80 331 c 2
 116 333 l 2
 121 334 128 343 128 355 c 2
 128 559 l 2
 128 561 128 568 126 567 c 0
 114 560 104 555 94 550 c 0
 85 546 75 542 63 538 c 0
 50 537 43 553 49 561 c 0
 89 585 132 618 152 642 c 0
 156 646 194 647 194 640 c 2
 194 360 l 2
 194 346 201 335 215 334 c 2
 243 332 l 2
 248 331 251 323 251 315 c 0
 251 306 246 298 243 298 c 0
EndSplineSet
EndChar

StartChar: I
Encoding: 73 73 40
Width: 715
Flags: W
HStem: -34 21G<103 110 103 141> 86 46<466 525 615 656 615 615> 291 36<132 156 132 159> 467 176<152.5 172> 596 47<128.5 148>
VStem: 179 66<565.5 569.5> 208 71<385 424.5> 539 66<0 67 0 77 0 77 146 148>
LayerCount: 2
Fore
SplineSet
157 -22 m 1xf3
 154 -27 l 2
 150 -32 147 -34 141 -34 c 2
 110 -34 l 2
 98 -34 98 -21 103 -13 c 2
 572 650 l 2
 577 657 582 661 590 660 c 2
 618 658 l 2
 628 658 628 645 623 638 c 2
 157 -22 l 1xf3
117 291 m 0
 71 291 17 308 17 338 c 0
 17 354 32 367 49 367 c 0xf5
 67 367 84 352 98 342 c 0
 116 330 126 327 138 327 c 0
 174 327 208 363 208 407 c 0
 208 442 185 467 159 467 c 0xf3
 146 467 137 464 118 450 c 0
 105 439 87 467 96 476 c 0
 152 510 179 541 179 560 c 0
 179 579 161 596 135 596 c 0
 110 596 84 579 65 545 c 0
 60 534 28 545 32 558 c 0
 56 612 102 643 155 643 c 0
 203 643 245 617 245 576 c 0xed
 245 555 234 537 213 519 c 0
 203 510 216 507 221 506 c 0
 257 491 279 460 279 420 c 0
 279 350 201 291 117 291 c 0
666 95 m 0
 665 90 664 86 660 86 c 2
 615 86 l 2
 607 85 607 77 605 67 c 2
 605 0 l 2
 603 -11 598 -15 589 -15 c 0
 583 -15 561 -17 555 -15 c 0
 545 -14 541 -10 539 -2 c 2
 539 77 l 2
 537 83 532 85 525 86 c 0
 489 83 435 85 403 86 c 0
 392 86 390 94 390 98 c 2
 390 111 l 1
 432 168 515 274 567 338 c 1
 577 341 577 342 589 340 c 0
 594 339 606 335 605 328 c 2
 605 142 l 2
 605 139 607 132 613 132 c 2
 656 132 l 2
 665 133 667 127 667 108 c 0
 667 105 667 100 666 95 c 0
542 230 m 2
 541 235 543 243 538 241 c 0
 515 214 477 164 458 138 c 0
 456 134 461 132 466 132 c 0
 484 131 515 132 531 132 c 0
 537 133 539 144 539 148 c 2
 542 230 l 2
EndSplineSet
EndChar

StartChar: J
Encoding: 74 74 41
Width: 721
Flags: W
HStem: -36 21G<133 138> -7 35<544 586 544 601.5> 328 28<542 580.5>
VStem: 128 67<356 551 551 553> 431 67<260 288.5> 621 60<258 287> 635 68<69.5 93>
LayerCount: 2
Fore
SplineSet
703 100 m 0xfa
 703 39 639 -7 564 -7 c 0
 492 -7 425 28 425 83 c 0
 425 126 443 151 482 170 c 0
 494 176 486 182 480 185 c 0
 445 205 431 229 431 261 c 0
 431 316 496 356 563 356 c 0
 630 356 681 321 681 271 c 0xfc
 681 240 666 217 632 199 c 0
 627 196 626 192 635 187 c 0
 679 165 703 138 703 100 c 0xfa
611 628 m 2
 152 -22 l 2
 147 -29 143 -36 133 -36 c 2
 106 -34 l 2
 93 -33 94 -21 99 -13 c 2
 567 650 l 2
 572 657 578 663 586 660 c 2
 612 652 l 2
 621 650 617 635 611 628 c 2
621 270 m 0xfc
 621 304 599 328 562 328 c 0
 522 328 498 304 498 277 c 0
 498 243 535 230 576 216 c 0
 582 214 586 214 591 217 c 0
 614 233 621 246 621 270 c 0xfc
635 86 m 0xfa
 635 100 629 113 618 122 c 0
 605 132 583 144 553 154 c 0
 543 157 540 157 536 154 c 0
 503 137 492 117 492 91 c 0
 492 51 523 28 565 28 c 0
 607 28 635 50 635 86 c 0xfa
242 298 m 0
 190 300 132 300 81 298 c 0
 75 298 72 308 72 315 c 0
 72 322 75 331 81 331 c 2
 108 334 l 2
 120 335 127 342 128 356 c 0
 128 406 131 520 128 551 c 0
 128 555 119 561 118 560 c 0
 107 553 103 552 94 548 c 0
 85 544 76 541 64 536 c 1
 50 536 42 553 49 561 c 0
 89 585 132 618 151 642 c 0
 155 646 195 646 195 639 c 0
 198 549 196 413 195 355 c 0
 195 343 199 335 214 335 c 2
 243 333 l 2
 246 333 250 323 251 315 c 0
 251 306 246 298 242 298 c 0
EndSplineSet
EndChar

StartChar: K
Encoding: 75 75 42
Width: 732
Flags: W
HStem: -7 35<545 587 545 602.5> 291 37<132 156 132 159.5> 328 28<543 581.5> 466 177<153 171.5> 594 49<128.5 147.5>
VStem: 177 68<564.5 568.5> 207 72<386 425> 432 67<260 288.5> 622 60<258 287> 636 68<69.5 93>
LayerCount: 2
Fore
SplineSet
704 100 m 0xf540
 704 39 640 -7 565 -7 c 0
 493 -7 426 28 426 83 c 0
 426 126 444 151 483 170 c 0
 495 176 487 182 481 185 c 0
 446 205 432 229 432 261 c 0
 432 316 497 356 564 356 c 0
 631 356 682 321 682 271 c 0xf580
 682 240 667 217 633 199 c 0
 628 196 627 192 636 187 c 0
 680 165 704 138 704 100 c 0xf540
606 638 m 2
 140 -22 l 1
 137 -27 l 2
 133 -32 127 -37 120 -36 c 2
 94 -32 l 2
 82 -30 85 -16 90 -9 c 2
 555 650 l 2
 560 657 565 661 573 660 c 2
 601 658 l 2
 611 658 611 645 606 638 c 2
622 270 m 0xf580
 622 304 600 328 563 328 c 0
 523 328 499 304 499 277 c 0
 499 243 536 230 577 216 c 0
 583 214 587 214 592 217 c 0
 615 233 622 246 622 270 c 0xf580
636 86 m 0xf340
 636 100 630 113 619 122 c 0
 606 132 584 144 554 154 c 0
 544 157 541 157 537 154 c 0
 504 137 493 117 493 91 c 0
 493 51 524 28 566 28 c 0
 608 28 636 50 636 86 c 0xf340
118 291 m 0
 72 291 17 308 17 338 c 0
 17 355 33 368 50 368 c 0xf580
 68 368 85 354 99 344 c 0
 117 331 126 328 138 328 c 0
 174 328 207 364 207 408 c 0
 207 442 184 466 159 466 c 0xf380
 147 466 138 463 119 449 c 0
 104 437 87 468 96 477 c 0
 151 511 177 541 177 559 c 0
 177 578 160 594 135 594 c 0
 111 594 85 578 67 544 c 0
 61 532 27 544 31 558 c 0
 56 612 102 643 155 643 c 0
 203 643 245 617 245 575 c 0xed80
 245 554 234 535 214 518 c 0
 204 510 215 509 220 506 c 0
 257 492 279 461 279 421 c 0
 279 350 201 291 118 291 c 0
EndSplineSet
EndChar

StartChar: L
Encoding: 76 76 43
Width: 732
Flags: W
HStem: -7 35<545 587 545 602.5> 312 44 312 84<62 187.5> 328 28<543 581.5> 482 62<158 174.5> 593 67<214 265.5> 652 20G<268 278 278 278>
VStem: 230 67<397.5 441> 432 67<260 288.5> 622 60<258 287> 636 68<69.5 93>
LayerCount: 2
Fore
SplineSet
704 100 m 0xcda0
 704 39 640 -7 565 -7 c 0
 493 -7 426 28 426 83 c 0
 426 126 444 151 483 170 c 0
 495 176 487 182 481 185 c 0
 446 205 432 229 432 261 c 0
 432 316 497 356 564 356 c 0
 631 356 682 321 682 271 c 0x9dc0
 682 240 667 217 633 199 c 0
 628 196 627 192 636 187 c 0
 680 165 704 138 704 100 c 0xcda0
606 638 m 2
 140 -22 l 1
 137 -27 l 2
 133 -32 127 -37 120 -36 c 2
 94 -32 l 2
 82 -30 85 -16 90 -9 c 2
 555 650 l 2
 560 657 565 661 573 660 c 2
 601 658 l 2
 611 658 611 645 606 638 c 2
622 270 m 0x9dc0
 622 304 600 328 563 328 c 0
 523 328 499 304 499 277 c 0
 499 243 536 230 577 216 c 0
 583 214 587 214 592 217 c 0
 615 233 622 246 622 270 c 0x9dc0
636 86 m 0xada0
 636 100 630 113 619 122 c 0
 606 132 584 144 554 154 c 0
 544 157 541 157 537 154 c 0
 504 137 493 117 493 91 c 0
 493 51 524 28 566 28 c 0
 608 28 636 50 636 86 c 0xada0
141 312 m 0
 87 312 38 337 38 364 c 0
 38 378 54 396 70 396 c 0
 94 396 113 367 131 354 c 0
 139 348 148 345 159 345 c 0
 204 345 230 371 230 418 c 0
 230 464 202 482 147 482 c 0
 123 482 106 475 83 464 c 0
 79 462 74 461 69 464 c 0
 62 468 61 470 61 479 c 0
 66 528 69 606 67 647 c 1
 71 664 91 662 103 661 c 0
 125 660 179 659 214 660 c 0
 223 661 238 660 244 660 c 0xadc0
 250 660 255 665 258 668 c 0
 262 671 265 672 268 672 c 2
 278 672 l 2xcbc0
 284 669 284 662 283 654 c 2
 277 606 l 2
 273 598 273 593 258 593 c 2
 118 595 l 2
 113 594 108 589 106 583 c 2
 105 544 l 2
 105 543 106 531 112 532 c 0
 127 537 148 544 168 544 c 0
 249 544 297 497 297 432 c 0
 297 363 234 312 141 312 c 0
EndSplineSet
EndChar

StartChar: M
Encoding: 77 77 44
Width: 732
Flags: W
HStem: -7 35<535 577 535 592.5> 328 28<533 571.5> 589 78<236 242>
VStem: 422 67<260 288.5> 612 60<258 287> 626 68<69.5 93>
LayerCount: 2
Fore
SplineSet
694 100 m 0xf4
 694 39 630 -7 555 -7 c 0
 483 -7 416 28 416 83 c 0
 416 126 434 151 473 170 c 0
 485 176 477 182 471 185 c 0
 436 205 422 229 422 261 c 0
 422 316 487 356 554 356 c 0
 621 356 672 321 672 271 c 0xf8
 672 240 657 217 623 199 c 0
 618 196 617 192 626 187 c 0
 670 165 694 138 694 100 c 0xf4
588 627 m 2
 130 -22 l 2
 126 -28 119 -39 110 -36 c 2
 87 -28 l 2
 76 -24 79 -8 84 -1 c 2
 545 650 l 2
 550 657 559 663 567 660 c 2
 588 654 l 2
 597 651 601 645 588 627 c 2
612 270 m 0xf8
 612 304 590 328 553 328 c 0
 513 328 489 304 489 277 c 0
 489 243 526 230 567 216 c 0
 573 214 577 214 582 217 c 0
 605 233 612 246 612 270 c 0xf8
626 86 m 0xf4
 626 100 620 113 609 122 c 0
 596 132 574 144 544 154 c 0
 534 157 531 157 527 154 c 0
 494 137 483 117 483 91 c 0
 483 51 514 28 556 28 c 0
 598 28 626 50 626 86 c 0xf4
331 644 m 1
 202 322 l 2
 199 317 192 312 181 313 c 0
 175 313 140 321 149 342 c 2
 248 574 l 2
 251 581 248 589 236 589 c 0
 168 591 137 589 114 588 c 0
 111 588 101 588 98 586 c 0
 90 579 91 548 75 548 c 0
 71 548 65 546 58 548 c 0
 53 550 49 555 49 558 c 2
 52 647 l 2
 53 656 69 668 80 667 c 0
 137 671 225 669 306 667 c 0
 329 667 335 665 331 644 c 1
EndSplineSet
EndChar

StartChar: N
Encoding: 78 78 45
Width: 727
Flags: W
HStem: -36 21G<136 140.5> -13 36<544 568.5 544 571.5> 163 177<565 584> 298 42
VStem: 130 65<351 352 352 559 559 560> 591 66<261.5 265.5> 621 70<81.5 121>
LayerCount: 2
Fore
SplineSet
157 -17 m 2xda
 153 -23 145 -36 136 -36 c 2
 107 -34 l 2
 95 -33 96 -19 101 -11 c 2
 571 654 l 2
 576 660 582 661 590 660 c 2
 612 658 l 2
 627 656 621 638 616 631 c 2
 157 -17 l 2xda
244 298 m 0
 191 300 133 300 82 298 c 0
 76 298 73 306 74 314 c 0
 74 321 77 329 81 330 c 2
 116 333 l 2
 121 334 130 341 130 351 c 2
 130 559 l 2
 130 561 129 568 127 567 c 0
 115 560 105 555 96 550 c 0
 86 546 76 542 65 538 c 0
 51 537 44 553 50 561 c 0
 91 585 133 618 153 642 c 0
 157 646 195 647 195 640 c 2
 195 352 l 2
 195 338 200 334 214 333 c 2
 244 331 l 2
 246 331 251 322 251 314 c 0
 251 305 247 298 244 298 c 0
530 -13 m 0
 483 -13 429 4 429 34 c 0
 429 50 445 63 462 63 c 0xec
 480 63 497 48 511 38 c 0
 528 26 538 23 550 23 c 0
 587 23 621 59 621 104 c 0xea
 621 138 597 163 571 163 c 0
 559 163 550 160 531 146 c 0
 517 136 499 163 508 172 c 0
 564 206 591 237 591 256 c 0
 591 275 573 292 548 292 c 0
 523 292 496 275 478 241 c 0
 473 230 440 242 444 254 c 0
 469 308 515 340 567 340 c 0
 615 340 657 313 657 272 c 0xec
 657 251 646 233 626 216 c 0
 615 206 628 204 633 202 c 0
 669 188 691 157 691 117 c 0
 691 46 613 -13 530 -13 c 0
EndSplineSet
EndChar

StartChar: O
Encoding: 79 79 46
Width: 742
Flags: W
HStem: -36 21G<158 162.5> -13 36<561 585.5 561 588.5> 163 177<582 601> 292 48<558 577.5> 292 61 594 51<137 173.5>
VStem: 220 73<512 554> 608 66<261.5 265.5> 638 70<81.5 121>
LayerCount: 2
Fore
SplineSet
179 -17 m 2xe680
 175 -23 167 -36 158 -36 c 2
 129 -34 l 2
 117 -33 118 -19 123 -11 c 2
 593 654 l 2
 598 660 604 661 612 660 c 2
 634 658 l 2
 649 656 643 638 638 631 c 2
 179 -17 l 2xe680
547 -13 m 0
 500 -13 446 4 446 34 c 0
 446 50 462 63 479 63 c 0xcf
 497 63 514 48 528 38 c 0
 545 26 555 23 567 23 c 0
 604 23 638 59 638 104 c 0
 638 138 614 163 588 163 c 0xe680
 576 163 567 160 548 146 c 0
 534 136 516 163 525 172 c 0
 581 206 608 237 608 256 c 0
 608 275 590 292 565 292 c 0
 540 292 513 275 495 241 c 0
 490 230 457 242 461 254 c 0
 486 308 532 340 584 340 c 0
 632 340 674 313 674 272 c 0xd7
 674 251 663 233 643 216 c 0
 632 206 645 204 650 202 c 0
 686 188 708 157 708 117 c 0
 708 46 630 -13 547 -13 c 0
277 299 m 0
 215 298 106 298 44 299 c 0
 38 300 32 301 34 307 c 0
 34 311 33 322 37 325 c 0
 53 344 74 365 116 401 c 0
 155 434 220 483 220 538 c 0
 220 570 192 594 155 594 c 0
 119 594 88 570 74 528 c 0
 72 522 40 521 40 529 c 0
 47 601 101 645 171 645 c 0
 238 645 293 603 293 544 c 0
 293 480 239 449 194 417 c 0
 169 400 150 387 119 360 c 0
 115 356 126 353 129 353 c 0
 162 351 195 352 219 353 c 0
 228 354 250 352 257 357 c 0
 262 361 264 368 269 388 c 0
 269 391 277 393 287 393 c 0
 297 393 305 390 305 387 c 0
 304 367 298 335 293 313 c 0
 291 309 288 301 277 299 c 0
EndSplineSet
EndChar

StartChar: V
Encoding: 86 86 47
Width: 627
Flags: W
HStem: -5 21G<335 338> -4 32 353 61 667 57<565.5 647.5>
VStem: 106 83<102 131 131 332> 400 80<130 329 329 333>
LayerCount: 2
Fore
SplineSet
550 28 m 0x7c
 568 29 596 34 596 10 c 0
 597 -5 592 -5 578 -4 c 0x7c
 502 -2 413 -2 338 -5 c 0xbc
 332 -5 326 3 326 10 c 0
 326 23 330 28 342 28 c 0
 395 28 400 30 400 130 c 2
 400 329 l 2
 400 346 390 354 386 354 c 0
 330 353 254 353 211 354 c 0
 201 354 191 348 189 332 c 2
 189 131 l 2
 189 73 182 28 250 27 c 0
 259 29 271 29 280 27 c 0
 288 24 289 8 286 1 c 0
 285 -3 278 -4 274 -4 c 0
 183 -2 98 -2 32 -4 c 0
 30 -4 23 -3 21 0 c 0
 17 7 16 24 31 27 c 0
 36 28 40 28 41 27 c 0
 97 27 106 36 106 92 c 2
 106 340 l 2
 106 345 97 350 94 351 c 2
 56 353 l 2
 42 356 29 348 26 359 c 0
 24 365 23 378 26 382 c 0
 29 385 35 387 37 387 c 0
 64 393 83 397 106 412 c 1
 108 439 110 462 112 481 c 0
 115 501 118 518 123 534 c 0
 134 565 155 592 198 631 c 0
 265 691 393 739 472 673 c 0
 484 660 491 661 496 666 c 0
 540 708 583 724 631 724 c 0
 664 724 719 711 740 679 c 0
 742 677 743 672 743 669 c 0
 743 660 734 643 724 627 c 0
 710 605 696 617 683 628 c 0
 655 650 616 667 586 667 c 0
 545 667 507 641 493 600 c 0
 484 574 478 547 479 501 c 2
 480 432 l 2
 480 420 485 414 496 414 c 2
 564 415 l 2
 573 415 579 415 584 407 c 0
 594 383 596 381 591 360 c 0
 589 355 583 353 576 353 c 2
 495 354 l 2
 489 353 480 341 480 333 c 2
 480 125 l 2
 480 50 479 23 550 28 c 0x7c
413 615 m 0
 380 646 355 651 319 651 c 0
 264 651 208 605 196 549 c 0
 190 524 189 507 189 431 c 0
 189 425 193 413 203 412 c 0
 248 410 332 410 381 412 c 0
 388 412 400 412 400 421 c 0
 401 437 401 443 402 465 c 0
 405 514 411 550 430 585 c 0
 436 596 420 608 413 615 c 0
EndSplineSet
EndChar

StartChar: W
Encoding: 87 87 48
Width: 522
Flags: W
HStem: -4 21G<39 43> -2 21G<315 398> -1 21G<114.5 148> 351 44<197 299 197 312> 675 40<263 294.5>
VStem: 94 76<113 321 424.5 440.5> 360 76<113 279>
LayerCount: 2
Fore
SplineSet
493 -4 m 1x9e
 463 -2 433 -2 398 -2 c 0
 367 -2 340 -1 315 -2 c 0x5e
 306 -3 302 -5 299 5 c 0
 292 27 306 26 324 28 c 0
 359 33 360 41 360 113 c 2
 360 286 l 2
 360 347 354 351 312 351 c 0
 282 353 220 352 192 351 c 0
 176 350 170 345 170 321 c 2
 170 113 l 2
 170 41 172 32 207 28 c 2
 239 25 l 2
 251 23 246 -1 237 -4 c 0x9e
 195 -2 165 -1 131 -1 c 0x3e
 98 -1 71 -2 43 -4 c 0
 35 -4 31 -4 28 4 c 0
 26 11 26 21 34 25 c 2
 57 28 l 2
 93 33 94 41 94 113 c 2
 94 321 l 2
 94 339 89 346 73 348 c 2
 39 351 l 2
 32 355 29 369 37 374 c 0
 43 380 61 382 80 392 c 0
 87 396 94 403 94 412 c 0
 94 469 102 526 125 580 c 0
 146 631 207 715 319 715 c 0
 387 715 443 679 443 636 c 0
 443 605 417 594 401 594 c 0
 387 594 379 601 374 609 c 0
 346 658 307 675 282 675 c 0
 206 675 170 590 170 436 c 0
 170 413 169 396 197 395 c 0
 229 394 273 394 299 395 c 0
 337 396 388 400 417 406 c 0
 425 409 434 414 441 404 c 1
 438 368 436 320 436 279 c 2
 436 113 l 2
 436 41 439 33 473 28 c 2
 494 25 l 2
 504 24 505 1 493 -4 c 1x9e
EndSplineSet
EndChar

StartChar: X
Encoding: 88 88 49
Width: 522
Flags: MW
HStem: -3 31<224 230 230 233 233 234 295 297.5 297 301 301 303 303 334 496 502 502 507> 353 53 663 40
VStem: 85 77<133 330 330 333 412.5 415> 368 77<81 88 88 133 430 625 625 625>
LayerCount: 2
Fore
SplineSet
224 28 m 0
 227 29 231 29 234 28 c 0
 244 27 245 -1 236 -3 c 0
 235 -3 234 -3 233 -3 c 2
 230 -3 l 2
 184 -1 89 1 30 -3 c 0
 25 -4 20 -3 17 2 c 0
 13 8 14 17 17 23 c 0
 19 29 25 28 30 28 c 0
 62 31 68 34 74 43 c 0
 83 55 85 63 85 133 c 2
 85 330 l 2
 85 343 76 347 69 348 c 2
 28 351 l 2
 22 351 18 356 17 359 c 0
 16 363 16 369 17 373 c 0
 19 377 31 383 32 384 c 0
 46 388 65 394 78 403 c 0
 82 405 85 410 85 415 c 0
 90 492 107 579 160 637 c 0
 204 686 249 710 309 710 c 0
 330 710 351 703 372 703 c 0
 391 703 403 708 418 727 c 1
 429 731 443 724 445 716 c 2
 445 88 l 2
 445 37 447 28 496 28 c 0
 500 30 505 29 509 28 c 0
 515 27 517 12 514 3 c 0
 513 -1 512 -3 507 -3 c 0
 506 -3 504 -3 502 -3 c 0
 454 -1 355 -1 301 -3 c 0
 299 -3 298 -3 297 -3 c 0
 292 -3 290 -2 288 3 c 0
 285 12 286 27 295 28 c 2
 303 28 l 2
 365 28 368 29 368 133 c 2
 369 336 l 2
 369 349 358 353 350 353 c 0
 299 354 223 357 180 353 c 0
 172 352 162 344 162 333 c 2
 162 88 l 2
 162 39 174 28 224 28 c 0
368 625 m 1
 334 648 297 663 267 663 c 0
 240 663 219 647 203 625 c 0
 180 594 162 522 162 418 c 0
 162 407 179 407 187 406 c 0
 248 404 310 408 349 408 c 0
 359 408 367 417 368 430 c 2
 368 625 l 1
EndSplineSet
EndChar

StartChar: Y
Encoding: 89 89 50
Width: 876
Flags: W
HStem: -5 21G<351 356> -4 35 347 56<390 390>
VStem: 114 81 408 80<132 132 132 321> 631 149<5.5 126> 705 75<88 276>
LayerCount: 2
Fore
SplineSet
194 324 m 0x7c
 194 245 192 168 195 86 c 0
 196 43 203 32 248 32 c 0
 258 32 268 34 277 32 c 0
 284 29 286 16 285 7 c 0
 282 -8 260 -5 246 -4 c 0
 159 -2 122 -2 58 -4 c 0
 48 -5 35 -6 32 5 c 0
 29 14 31 26 43 29 c 0
 48 30 52 29 53 29 c 0
 100 29 114 42 114 92 c 2
 114 319 l 2
 114 328 102 342 97 342 c 2
 55 345 l 2
 47 346 38 343 35 352 c 0
 33 358 33 368 36 372 c 0
 39 375 45 377 48 378 c 0
 74 383 91 387 114 402 c 1
 117 429 118 462 120 481 c 0
 128 549 151 584 203 631 c 0
 270 691 399 739 478 673 c 1
 495 653 513 661 518 665 c 0
 588 716 700 749 771 690 c 0
 781 681 786 675 786 666 c 0
 786 651 750 618 735 618 c 0
 727 618 721 622 711 632 c 0
 679 662 654 668 618 668 c 0
 563 668 507 621 495 565 c 0
 489 541 488 507 488 432 c 0
 488 423 494 406 505 405 c 0
 550 399 629 402 679 404 c 0
 709 405 716 403 761 419 c 0
 782 426 783 413 783 392 c 0
 775 321 780 164 780 88 c 0
 779 43 790 32 828 32 c 0
 832 33 838 33 842 32 c 0
 847 31 853 18 852 8 c 0
 850 -5 837 -4 826 -3 c 0
 774 -2 716 -2 654 -4 c 0
 643 -4 631 -1 631 12 c 0x7c
 632 35 653 31 656 31 c 0
 702 31 705 46 705 132 c 2
 705 276 l 2
 705 341 691 353 644 354 c 0
 612 355 551 356 510 353 c 0
 494 353 490 335 489 324 c 2
 488 132 l 2
 487 62 489 33 545 31 c 1
 561 32 l 2
 576 32 581 25 582 12 c 0
 582 -4 570 -4 556 -4 c 0x7a
 465 -2 422 -3 356 -5 c 0xbc
 346 -5 337 1 337 10 c 0
 337 24 342 29 355 31 c 0
 403 31 408 34 408 130 c 2
 408 321 l 2
 407 329 400 346 390 347 c 0
 342 350 241 350 210 346 c 0
 201 345 196 335 194 324 c 0x7c
421 615 m 0
 389 645 358 651 321 651 c 0
 266 651 214 605 201 549 c 0
 196 524 194 501 194 425 c 0
 194 418 198 403 208 402 c 0
 230 401 285 395 390 403 c 0
 413 405 410 448 411 465 c 0
 413 513 419 549 437 583 c 0
 443 595 429 608 421 615 c 0
EndSplineSet
EndChar

StartChar: Z
Encoding: 90 90 51
Width: 860
Flags: W
HStem: -5 21G<47 267> -4 33 356 61 665 41
VStem: 110 83<97 131 131 336 336 337> 399 81<132 324> 686 80<89.5 132 437 627 627 627>
LayerCount: 2
Fore
SplineSet
255 29 m 0x7e
 263 31 275 30 284 28 c 0
 292 24 293 11 291 3 c 0
 288 -8 276 -5 267 -5 c 0
 206 -3 100 -2 47 -5 c 0xbe
 38 -6 27 -6 24 4 c 0
 21 12 22 26 35 29 c 0
 45 32 54 29 64 30 c 0
 103 32 110 42 110 92 c 2
 110 336 l 2
 110 346 103 352 97 352 c 2
 50 352 l 2
 42 352 33 350 29 359 c 0
 28 365 27 378 30 382 c 0
 33 385 39 387 41 388 c 0
 68 393 87 397 110 412 c 1
 112 439 114 462 116 481 c 0
 118 501 122 518 127 534 c 0
 138 565 159 592 202 631 c 0
 269 691 397 739 476 673 c 0
 488 662 496 658 503 664 c 0
 540 696 578 711 627 711 c 0
 648 711 669 706 690 706 c 0
 709 706 721 711 736 730 c 1
 747 734 766 737 766 723 c 2
 766 87 l 2
 766 36 777 32 807 30 c 0
 815 30 832 34 835 22 c 0
 837 17 837 7 835 2 c 0
 833 -7 817 -5 811 -4 c 0
 754 -2 672 -2 623 -4 c 0
 601 -5 603 14 606 22 c 0
 611 33 640 29 651 30 c 0
 683 34 686 47 686 132 c 2
 687 336 l 2
 687 353 680 361 669 361 c 0
 617 363 541 365 501 361 c 0
 487 360 483 337 480 324 c 2
 480 87 l 2
 480 38 492 27 541 27 c 0
 544 28 549 28 552 27 c 0
 562 26 563 -5 552 -4 c 0
 489 -3 413 -3 338 -4 c 0
 330 -4 328 13 330 20 c 0
 334 31 346 27 354 28 c 0
 378 30 383 34 389 42 c 0
 398 54 399 61 399 132 c 2
 399 326 l 2
 399 352 396 356 379 356 c 0
 335 358 262 356 216 356 c 0
 207 356 196 353 193 337 c 2
 193 131 l 2
 193 118 193 106 193 97 c 0
 194 42 196 29 255 29 c 0x7e
686 627 m 1
 652 650 615 665 585 665 c 0
 558 665 536 649 520 627 c 0
 498 597 481 535 480 437 c 0
 480 423 485 418 505 417 c 0
 567 414 625 417 664 417 c 0
 671 417 686 421 686 437 c 2
 686 627 l 1
430 601 m 0
 427 605 424 608 417 615 c 0
 384 646 359 651 323 651 c 0
 268 651 213 605 200 549 c 0
 195 524 193 507 193 431 c 0
 193 424 194 413 212 412 c 0
 258 411 325 411 374 412 c 0
 391 412 399 413 400 431 c 0
 403 479 413 528 433 571 c 0
 439 585 436 594 430 601 c 0
EndSplineSet
EndChar

StartChar: bracketleft
Encoding: 91 91 52
Width: 337
Flags: W
LayerCount: 2
Fore
SplineSet
253 -229 m 0
 220 -231 160 -230 127 -229 c 0
 112 -228 104 -223 104 -209 c 0
 101 9 101 446 104 664 c 0
 104 683 109 689 126 690 c 0
 158 693 220 691 254 690 c 0
 260 690 272 691 272 683 c 2
 272 668 l 2
 272 662 270 660 264 660 c 0
 251 659 209 658 196 651 c 0
 188 646 184 638 184 621 c 0
 182 408 182 35 184 -162 c 0
 184 -189 188 -192 237 -196 c 2
 261 -198 l 2
 270 -199 272 -200 272 -209 c 2
 272 -220 l 2
 272 -228 260 -229 253 -229 c 0
EndSplineSet
EndChar

StartChar: backslash
Encoding: 92 92 53
Width: 100
Flags: W
LayerCount: 2
Fore
SplineSet
252 -40 m 1
 271 -51 291 -24 283 -11 c 0
 137 211 -7 432 -149 654 c 0
 -162 669 -190 643 -184 628 c 0
 -36 405 108 183 252 -40 c 1
EndSplineSet
EndChar

StartChar: bracketright
Encoding: 93 93 54
Width: 343
Flags: W
LayerCount: 2
Fore
SplineSet
177 -229 m 0
 144 -230 84 -231 51 -229 c 0
 45 -229 32 -228 32 -220 c 2
 32 -209 l 2
 32 -191 55 -197 67 -196 c 0
 116 -192 120 -188 120 -161 c 0
 122 36 122 410 120 623 c 0
 120 640 116 648 108 652 c 0
 98 657 78 657 67 658 c 2
 40 660 l 2
 35 660 32 662 32 668 c 2
 32 683 l 2
 32 689 39 690 44 690 c 2
 50 690 l 2
 84 690 146 693 178 690 c 0
 196 689 200 683 200 664 c 0
 203 446 204 9 200 -209 c 0
 200 -223 192 -228 177 -229 c 0
EndSplineSet
EndChar

StartChar: grave
Encoding: 96 96 55
Width: 348
Flags: W
HStem: 712 20G<78 84> 713 20G<161 165.5>
LayerCount: 2
Fore
SplineSet
229 562 m 0x40
 230 549 212 548 204 555 c 0
 172 597 113 666 70 713 c 0x40
 64 719 72 732 84 732 c 2x80
 161 733 l 2
 170 733 175 733 180 725 c 0
 197 680 219 605 229 562 c 0x40
EndSplineSet
EndChar

StartChar: a
Encoding: 97 97 56
Width: 513
Flags: MW
HStem: -3 35<288 300> 199 46<248 269 269 274 213 288>
LayerCount: 2
Fore
SplineSet
490 14 m 0
 490 5 486 -3 478 -2 c 0
 431 -1 339 -1 292 -3 c 0
 284 -3 282 5 282 15 c 0
 282 22 285 32 293 32 c 2
 300 32 l 2
 341 32 362 32 350 65 c 0
 334 111 323 140 307 187 c 0
 303 196 292 198 288 199 c 0
 208 199 201 198 189 198 c 0
 179 198 178 195 172 188 c 2
 138 92 l 2
 134 80 128 60 128 48 c 0
 128 31 163 33 173 33 c 0
 177 33 181 33 185 33 c 0
 198 31 196 -3 184 -3 c 0
 145 -2 71 -1 26 -3 c 0
 15 -3 9 32 28 33 c 0
 40 33 55 32 63 42 c 0
 73 54 82 83 87 98 c 2
 215 463 l 2
 213 468 211 472 210 477 c 0
 208 483 212 492 221 493 c 0
 230 495 245 496 265 495 c 0
 283 493 284 479 288 466 c 0
 369 242 395 168 410 126 c 0
 417 108 423 89 430 71 c 0
 440 39 446 32 474 32 c 2
 478 32 l 2
 486 32 490 23 490 14 c 0
246 371 m 0
 244 376 237 377 237 375 c 2
 195 257 l 2
 193 246 199 245 213 245 c 2
 269 245 l 2
 279 245 283 246 282 256 c 0
 280 261 259 331 246 371 c 0
EndSplineSet
EndChar

StartChar: b
Encoding: 98 98 57
Width: 502
Flags: W
HStem: -3 21G<43 43> -2 36 253 34<217 241 241 255 208 264 217 226.5> 444 41
VStem: 120 75<118.5 131 131 231 298 302 302 376 376 410> 344 80<348.5 377.5> 367 81<114 163.5>
LayerCount: 2
Fore
SplineSet
448 148 m 0x7a
 448 80 401 17 340 5 c 0
 317 0 305 -2 247 -2 c 2x7a
 43 -3 l 2xbc
 32 -1 31 18 35 27 c 0
 40 37 51 34 60 34 c 0
 116 34 120 36 120 102 c 2
 120 376 l 2
 120 444 117 444 65 444 c 2
 50 444 l 2
 40 444 41 476 49 478 c 2
 55 479 l 1
 120 482 185 485 251 485 c 0
 312 485 328 480 361 464 c 0
 399 446 424 409 424 367 c 0x7c
 424 330 397 298 364 280 c 0
 356 276 356 271 363 267 c 0
 412 242 448 200 448 148 c 0x7a
344 363 m 0x7c
 344 392 333 417 315 433 c 0
 285 460 243 458 206 454 c 0
 199 452 195 441 195 433 c 2
 195 302 l 2
 195 294 202 287 208 287 c 2
 241 287 l 2
 269 287 281 285 308 297 c 0
 329 307 344 330 344 363 c 0x7c
367 144 m 0x7a
 367 183 347 218 316 237 c 0
 296 250 286 253 264 253 c 0
 245 253 236 253 217 253 c 0
 209 252 195 247 195 231 c 2
 195 131 l 2
 195 106 197 85 199 74 c 0
 203 49 222 35 269 35 c 0
 327 35 367 83 367 144 c 0x7a
EndSplineSet
EndChar

StartChar: c
Encoding: 99 99 58
Width: 524
Flags: MW
HStem: -14 44<256.5 302> 449 41<247.5 319 220.5 335>
VStem: 39 88<184.5 308>
LayerCount: 2
Fore
SplineSet
439 4 m 1
 427 7 425 7 421 7 c 0
 409 7 401 6 394 4 c 0
 387 3 380 0 369 -4 c 0
 343 -12 315 -14 289 -14 c 0
 142 -14 39 90 39 233 c 0
 39 383 144 490 297 490 c 0
 341 490 368 482 411 466 c 0
 419 462 430 457 439 463 c 0
 443 466 463 468 464 458 c 0
 464 428 468 376 471 349 c 1
 467 335 446 330 439 342 c 0
 416 411 369 449 301 449 c 0
 194 449 127 372 127 248 c 0
 127 121 203 30 310 30 c 0
 355 30 386 43 418 73 c 0
 435 90 440 96 458 129 c 0
 464 141 494 139 489 124 c 0
 479 86 460 40 439 4 c 1
EndSplineSet
EndChar

StartChar: d
Encoding: 100 100 59
Width: 573
Flags: MW
HStem: -3 41 441 44
VStem: 102 78<102 376 376 408.5> 448 86<199.5 277.5>
LayerCount: 2
Fore
SplineSet
360 13 m 0
 333 5 312 1 290 -1 c 0
 269 -3 247 -3 219 -2 c 0
 177 -1 88 -1 45 -3 c 0
 28 -3 30 38 46 37 c 2
 55 37 l 2
 93 37 100 41 101 77 c 2
 102 102 l 1
 102 376 l 2
 102 441 99 441 49 441 c 2
 43 441 l 2
 24 444 27 475 42 478 c 2
 47 480 l 1
 115 482 183 485 251 485 c 0
 341 485 399 470 448 432 c 0
 504 390 534 327 534 254 c 0
 534 144 462 44 360 13 c 0
380 406 m 0
 351 429 323 437 270 442 c 0
 240 446 225 448 195 445 c 0
 188 445 180 437 180 425 c 2
 180 84 l 2
 180 44 182 38 230 38 c 0
 294 38 309 40 341 55 c 0
 406 86 448 157 448 242 c 0
 448 313 422 372 380 406 c 0
EndSplineSet
EndChar

StartChar: e
Encoding: 101 101 60
Width: 457
Flags: W
HStem: -3 21G -2 47 434 44<201.5 204 204 285>
VStem: 110 77<104 211 276.5 281 281 375 375 407.5>
LayerCount: 2
Fore
SplineSet
411 113 m 2x70
 403 18 l 2
 399 3 392 -1 384 -3 c 0xb0
 290 -2 137 -1 42 -2 c 0
 36 -3 29 -3 26 4 c 0
 24 11 23 22 26 29 c 0
 30 38 46 37 51 37 c 0
 105 37 110 39 110 104 c 2
 110 375 l 2
 110 440 105 441 63 441 c 0
 54 441 45 437 40 446 c 0
 34 455 34 476 47 478 c 0
 140 479 301 479 365 478 c 0
 372 476 376 475 379 467 c 0
 383 445 387 400 385 367 c 0
 385 360 371 358 361 360 c 0
 355 361 354 366 353 372 c 0
 345 429 337 433 285 434 c 2
 204 434 l 2
 199 434 187 432 187 417 c 2
 187 281 l 2
 187 272 195 270 202 270 c 0
 225 270 270 268 300 271 c 0
 321 273 323 279 327 311 c 0
 328 318 328 319 336 319 c 0
 346 321 360 318 359 311 c 0
 357 276 359 199 359 175 c 1
 355 169 330 162 328 176 c 0
 322 213 320 221 294 223 c 0
 269 225 218 223 205 223 c 0
 199 223 187 221 187 211 c 2
 187 98 l 2
 187 65 184 45 225 45 c 2
 287 45 l 2
 349 45 365 52 379 115 c 0
 382 126 380 125 389 127 c 0
 395 128 400 128 405 126 c 0
 412 123 412 120 411 113 c 2x70
EndSplineSet
EndChar

StartChar: f
Encoding: 102 102 61
Width: 410
Flags: MW
HStem: -2 36<215 220> 232 46<181 197> 432 46<180.5 184 184 256>
VStem: 91 77<76 91 91 210 289.5 293 293 400 400 417>
LayerCount: 2
Fore
SplineSet
325 377 m 0
 323 425 318 432 256 432 c 2
 184 432 l 2
 177 432 169 425 168 417 c 0
 166 386 167 324 168 293 c 0
 168 286 172 279 181 278 c 0
 212 277 242 277 274 278 c 0
 303 279 308 285 310 310 c 0
 312 330 340 326 342 311 c 0
 340 284 340 225 341 185 c 0
 339 171 313 173 311 184 c 0
 308 220 304 229 274 231 c 0
 244 233 210 232 184 232 c 0
 173 232 168 220 168 210 c 0
 168 81 168 106 168 76 c 0
 168 41 178 34 215 34 c 2
 222 34 l 2
 238 34 234 -4 220 -2 c 0
 170 -1 100 -1 48 -2 c 0
 30 -3 30 34 47 34 c 0
 83 37 91 42 91 76 c 2
 91 400 l 2
 91 435 79 443 45 445 c 0
 34 448 34 478 51 478 c 0
 111 476 241 476 329 478 c 0
 341 478 355 474 355 459 c 0
 357 439 359 404 356 378 c 0
 355 366 328 368 325 377 c 0
EndSplineSet
EndChar

StartChar: g
Encoding: 103 103 62
Width: 546
Flags: MW
HStem: -14 41<251.5 307.5> 176 36<340 364.5> 453 37<255 318 226.5 345>
VStem: 52 85<172 300.5> 393 77<74 127 127 134 54 145>
LayerCount: 2
Fore
SplineSet
470 134 m 0
 468 108 469 73 470 54 c 0
 468 39 462 32 456 29 c 0
 406 4 335 -14 280 -14 c 0
 143 -14 52 90 52 230 c 0
 52 371 154 490 299 490 c 0
 337 490 362 484 413 469 c 0
 423 466 435 461 444 469 c 0
 450 471 455 471 462 470 c 0
 464 469 468 462 468 449 c 0
 470 417 469 366 468 340 c 0
 467 323 437 326 435 337 c 0
 420 415 380 453 310 453 c 0
 200 453 137 371 137 235 c 0
 137 109 201 27 302 27 c 0
 328 27 354 33 380 45 c 0
 385 47 393 64 393 74 c 2
 393 127 l 2
 393 163 383 176 346 176 c 0
 334 176 318 170 311 183 c 0
 306 192 307 209 323 212 c 0
 363 210 449 208 504 212 c 0
 524 213 521 179 508 179 c 0
 479 178 470 168 470 134 c 0
EndSplineSet
EndChar

StartChar: h
Encoding: 104 104 63
Width: 603
Flags: W
HStem: -3 38<550 551> -2 21G<361 366> 218 45<191.5 397 209 397 397 402 209 404> 444 34<64 64>
VStem: 106 79<76 203 268.5 295 295 375 375 400> 419 77<346.5 400 379 414 346.5 417.5>
LayerCount: 2
Fore
SplineSet
550 -3 m 0xbc
 472 0 398 -1 366 -2 c 0x7c
 356 -2 348 -4 344 3 c 0
 338 13 338 31 351 35 c 0
 358 36 365 35 372 35 c 0
 406 35 419 50 419 76 c 0
 419 106 419 83 419 199 c 0
 419 206 417 218 404 218 c 0
 350 219 264 219 194 218 c 0
 189 218 185 211 185 203 c 2
 185 76 l 2
 185 44 197 34 231 34 c 0
 236 34 242 33 245 29 c 0
 252 19 249 -3 234 -3 c 0
 189 -2 67 -1 53 -3 c 0
 34 -3 38 34 53 34 c 2
 60 34 l 2
 97 34 106 41 106 76 c 2
 106 375 l 1
 106 400 l 2
 106 435 98 441 64 444 c 0
 50 445 53 479 64 478 c 0
 67 477 70 478 73 478 c 0
 123 476 183 476 232 478 c 0
 236 478 240 476 242 473 c 0
 248 467 246 458 245 452 c 0
 243 445 238 444 231 443 c 0
 193 443 185 435 185 400 c 0
 185 358 185 316 185 274 c 0
 185 263 196 263 209 263 c 0
 261 262 328 262 397 263 c 0
 407 263 419 266 419 275 c 0
 419 317 419 358 419 400 c 0
 419 435 410 443 372 443 c 2
 357 443 l 1
 339 447 346 479 358 478 c 0
 403 477 486 477 537 478 c 0
 559 478 551 447 542 444 c 0
 500 441 496 428 496 400 c 0
 496 293 497 200 497 81 c 0
 497 41 515 35 548 35 c 0
 554 35 559 33 562 27 c 0
 569 17 565 -3 550 -3 c 0xbc
EndSplineSet
EndChar

StartChar: i
Encoding: 105 105 64
Width: 293
Flags: W
HStem: -3 21G<63 231 63 86> 444 33 458 20G<71.5 76>
VStem: 108 74<102 375>
LayerCount: 2
Fore
SplineSet
231 -3 m 0xd0
 187 -2 109 -3 63 -3 c 0
 52 -2 50 8 50 14 c 0
 50 36 66 33 73 34 c 0
 76 34 80 34 83 34 c 0
 93 35 106 39 107 77 c 2
 108 102 l 2
 110 179 110 289 108 375 c 2
 107 400 l 2
 106 433 104 442 68 444 c 0xd0
 63 444 57 446 55 451 c 0
 53 456 52 465 55 471 c 0
 58 480 67 478 76 478 c 0xb0
 119 476 176 476 219 477 c 0
 228 478 236 479 239 470 c 0
 241 465 240 457 238 452 c 0
 235 443 230 444 222 444 c 0
 187 443 183 438 182 375 c 0
 181 311 181 162 182 76 c 0
 182 36 196 33 227 33 c 0
 234 33 238 33 242 26 c 0
 247 14 240 -3 231 -3 c 0xd0
EndSplineSet
EndChar

StartChar: j
Encoding: 106 106 65
Width: 313
Flags: W
HStem: -212 92<15 79.5> 442 37 458 20G<75 78>
VStem: 126 77<40 55 55 374 374 399>
LayerCount: 2
Fore
SplineSet
241 442 m 0xd0
 215 440 203 434 203 399 c 2
 203 374 l 1
 203 55 l 2
 203 25 199 -13 193 -42 c 0
 186 -77 175 -117 158 -146 c 0
 133 -186 101 -212 58 -212 c 0
 20 -212 -17 -198 -17 -165 c 0
 -17 -145 5 -120 25 -120 c 0
 40 -120 58 -146 71 -155 c 0
 82 -162 102 -154 110 -141 c 0
 124 -120 126 -94 126 7 c 2
 126 374 l 1
 126 399 l 2
 125 431 114 442 79 442 c 2
 71 442 l 2xd0
 56 444 57 465 62 473 c 0
 65 480 72 478 78 478 c 0xb0
 119 475 206 476 250 479 c 0
 264 477 264 455 260 446 c 0
 258 441 245 442 241 442 c 0xd0
EndSplineSet
EndChar

StartChar: k
Encoding: 107 107 66
Width: 537
Flags: W
HStem: -3 37 -2 21G<314 505 314 348.5> 445 34<460 460>
VStem: 107 78<76 203 258 400>
LayerCount: 2
Fore
SplineSet
505 -2 m 0x70
 451 -2 383 -2 314 -2 c 0x70
 307 -3 302 -3 297 4 c 0
 292 13 293 31 308 33 c 0
 333 33 355 34 335 60 c 0
 297 111 261 167 211 205 c 0
 202 212 185 225 185 203 c 2
 185 76 l 2
 185 42 204 35 232 35 c 2
 241 35 l 2
 253 33 255 16 251 5 c 0
 249 0 244 -2 241 -3 c 0
 192 -2 104 -1 48 -3 c 0
 38 -3 34 8 34 16 c 0
 34 25 38 35 47 35 c 2
 59 35 l 2
 98 35 107 52 107 76 c 2
 107 400 l 2
 107 435 98 443 60 443 c 2
 46 443 l 2
 29 445 34 479 47 479 c 0
 110 477 191 477 239 479 c 0
 253 479 253 446 240 443 c 2
 232 443 l 2
 194 443 185 435 185 400 c 2
 185 258 l 2
 188 241 207 260 212 264 c 0
 250 300 322 387 322 431 c 0
 322 439 322 443 289 444 c 2
 280 445 l 1
 273 451 272 459 272 464 c 0
 273 469 275 479 283 479 c 0
 351 476 426 478 459 479 c 0
 479 479 473 447 460 445 c 0
 421 444 407 440 393 430 c 0
 376 417 362 386 350 368 c 0
 327 329 300 297 273 261 c 0
 271 258 269 256 267 253 c 1
 275 248 285 239 300 223 c 0
 345 179 379 126 418 77 c 0
 449 39 453 34 492 34 c 0xb0
 506 34 517 36 518 17 c 0
 519 9 515 -4 505 -2 c 0x70
EndSplineSet
EndChar

StartChar: l
Encoding: 108 108 67
Width: 436
Flags: W
HStem: -2 49<230 283 283 299.5 230 344> 442 37 460 20G<59.5 63>
VStem: 31 147<7 78> 101 77<62 400>
LayerCount: 2
Fore
SplineSet
366 9 m 2xc8
 359 1 355 0 344 -2 c 0
 204 0 164 0 54 -2 c 0
 46 -2 31 -2 31 16 c 0xd0
 31 32 38 41 56 37 c 1
 97 37 101 46 101 105 c 2
 101 400 l 2
 101 435 92 445 55 445 c 0
 52 444 44 445 41 446 c 0
 33 451 33 467 39 475 c 0
 44 481 56 480 63 480 c 0xa8
 106 478 183 477 241 479 c 0
 252 480 258 480 261 470 c 0
 265 459 262 441 252 441 c 0
 243 440 235 442 227 442 c 0
 183 441 179 433 179 384 c 2
 178 78 l 2
 178 46 201 47 230 47 c 2
 283 47 l 2
 316 47 332 52 344 63 c 0
 361 78 375 103 388 121 c 0
 394 129 420 120 416 111 c 2
 366 9 l 2xc8
EndSplineSet
EndChar

StartChar: m
Encoding: 109 109 68
Width: 693
Flags: W
HStem: -3 38<48 71 46.5 197> -2 21G<465 468> 458 20G<84 181 181 186 514 613>
VStem: 109 49 501 86 518 69
LayerCount: 2
Fore
SplineSet
645 -3 m 0xb8
 585 -2 521 -1 468 -2 c 0
 462 -2 455 0 454 7 c 0
 453 11 453 19 454 23 c 0
 455 31 462 33 468 34 c 0
 498 37 518 31 518 74 c 0x74
 518 83 517 91 517 99 c 0
 516 111 516 110 501 352 c 0
 501 360 492 346 489 339 c 2
 352 3 l 2
 348 -6 323 -7 319 3 c 2
 174 346 l 2
 167 361 166 358 165 349 c 2
 151 105 l 2
 150 91 149 77 149 70 c 0
 149 38 167 34 196 32 c 0
 202 32 204 28 205 22 c 0
 208 12 204 -2 197 -3 c 0
 151 -1 87 -1 48 -3 c 0
 33 0 32 17 36 26 c 0
 39 33 43 35 50 35 c 0
 92 35 97 36 101 102 c 2
 118 390 l 2
 119 399 120 411 120 416 c 0
 120 436 117 440 82 444 c 0
 80 445 75 447 74 451 c 0
 71 462 75 478 84 478 c 0
 109 477 156 476 181 478 c 0
 191 478 202 466 207 457 c 2
 344 131 l 2
 346 127 351 125 357 137 c 2
 494 466 l 2
 497 473 505 478 514 478 c 0
 542 476 588 477 613 478 c 0
 623 476 628 447 613 445 c 0
 605 444 596 443 587 441 c 0
 568 437 574 408 575 388 c 2
 594 104 l 2
 595 80 596 68 597 61 c 0
 601 33 614 35 640 35 c 0
 648 35 654 37 657 27 c 0
 659 21 659 12 657 6 c 0
 655 1 650 -3 645 -3 c 0xb8
EndSplineSet
EndChar

StartChar: n
Encoding: 110 110 69
Width: 579
Flags: MW
HStem: -3 38<46 47 47 52 196.5 207.5> 443 36<392 392>
VStem: 98 50<78.5 105 105 354> 450 51<375 387 387 393.5>
LayerCount: 2
Fore
SplineSet
556 443 m 0
 512 442 508 440 505 435 c 0
 502 431 501 428 501 416 c 2
 501 387 l 1
 501 8 l 2
 501 -12 470 -11 465 -2 c 2
 160 364 l 2
 155 370 148 376 148 354 c 2
 148 105 l 2
 148 52 151 47 158 41 c 0
 169 33 190 35 203 35 c 0
 212 35 215 34 218 26 c 0
 222 15 219 -3 210 -3 c 0
 170 -2 99 -1 47 -3 c 0
 30 -3 27 32 46 35 c 0
 48 35 50 35 52 35 c 0
 88 33 98 43 98 72 c 2
 98 415 l 2
 97 426 94 434 92 435 c 0
 81 441 68 445 50 445 c 0
 36 445 34 480 52 479 c 2
 106 478 l 1
 145 479 l 2
 152 480 163 476 168 471 c 2
 435 150 l 2
 442 143 451 132 451 151 c 2
 450 375 l 2
 450 412 450 426 443 433 c 0
 440 437 436 439 427 440 c 0
 418 442 407 442 392 443 c 0
 388 443 384 446 382 449 c 0
 376 460 380 479 393 479 c 0
 445 476 486 477 546 479 c 0
 559 479 564 473 565 462 c 0
 566 454 561 443 556 443 c 0
EndSplineSet
EndChar

StartChar: o
Encoding: 111 111 70
Width: 577
Flags: MW
HStem: -14 38<247.5 356.5 247.5 360.5> 450 40
VStem: 40 85<182 297 182 306> 451 85<181.5 295.5>
LayerCount: 2
Fore
SplineSet
289 -14 m 0
 145 -14 40 94 40 232 c 0
 40 380 143 490 290 490 c 0
 435 490 536 383 536 245 c 0
 536 97 432 -14 289 -14 c 0
282 450 m 0
 186 452 125 348 125 246 c 0
 125 118 196 24 299 24 c 0
 414 24 451 134 451 229 c 0
 451 362 390 449 282 450 c 0
EndSplineSet
EndChar

StartChar: p
Encoding: 112 112 71
Width: 434
Flags: MW
HStem: -3 37<50.5 83.5> 191 35<213.5 244 200.5 272.5> 465 20G<175.5 244>
VStem: 106 77<62 76 76 178 242 249 249 393 393 420> 315 78<303.5 378.5>
LayerCount: 2
Fore
SplineSet
218 191 m 0
 209 191 200 193 192 195 c 0
 185 196 183 194 183 178 c 2
 183 76 l 2
 183 41 192 34 229 34 c 0
 238 34 243 34 246 34 c 0
 276 36 269 -6 251 -4 c 0
 200 -2 104 -1 58 -3 c 0
 43 -3 39 29 55 33 c 0
 60 34 66 34 69 34 c 0
 98 34 106 40 106 62 c 2
 106 393 l 2
 106 447 97 443 85 443 c 2
 54 442 l 2
 45 442 40 443 37 452 c 0
 34 457 34 461 35 467 c 0
 37 478 44 478 52 479 c 0
 104 485 150 485 201 485 c 0
 287 485 393 462 393 340 c 0
 393 251 327 191 218 191 c 0
191 451 m 1
 191 450 l 1
 186 450 183 444 183 437 c 2
 183 249 l 2
 183 235 188 226 213 226 c 0
 275 226 315 267 315 340 c 0
 315 417 264 461 191 451 c 1
EndSplineSet
EndChar

StartChar: q
Encoding: 113 113 72
Width: 586
Flags: MW
HStem: -154 177<251 516.5> 453 37<232.5 334>
VStem: 36 88<182.5 304> 454 87<190.5 295>
LayerCount: 2
Fore
SplineSet
546 -149 m 0
 532 -154 523 -154 510 -154 c 0
 444 -154 397 -115 350 -74 c 0
 338 -63 328 -54 321 -48 c 0
 313 -41 307 -36 302 -33 c 0
 293 -26 285 -22 269 -16 c 1
 129 -2 36 97 36 230 c 0
 36 378 145 490 296 490 c 0
 444 490 541 387 541 247 c 0
 541 134 475 37 372 -1 c 1
 404 -16 428 -39 454 -62 c 0
 496 -99 518 -110 561 -113 c 0
 579 -117 557 -148 546 -149 c 0
279 453 m 0
 186 453 124 370 124 247 c 0
 124 118 198 23 304 23 c 0
 407 23 454 129 454 228 c 0
 454 362 389 453 279 453 c 0
EndSplineSet
EndChar

StartChar: r
Encoding: 114 114 73
Width: 520
Flags: W
HStem: -11 21G<428 461.5> -10 21G<474 476.5> -3 38<49.5 73 49.5 233> 449 36<204 247>
VStem: 101 77<76 176 152.5 176 152.5 243 243 375 375 408.5> 311 86<316 362 316 372>
LayerCount: 2
Fore
SplineSet
474 -10 m 0x5c
 469 -11 464 -11 459 -11 c 0x9c
 397 -11 372 12 354 35 c 0
 326 69 304 107 282 145 c 0
 272 161 266 179 255 193 c 1
 231 191 211 191 186 192 c 0
 180 192 178 182 178 170 c 0
 178 135 178 111 179 77 c 0
 180 41 187 36 225 36 c 2
 240 36 l 2
 244 36 259 30 252 3 c 0
 250 -4 238 -3 233 -3 c 0
 174 -1 84 -2 43 -3 c 0
 38 -4 32 0 29 7 c 0
 26 12 28 20 30 25 c 0
 34 36 45 35 54 35 c 0x3c
 92 35 101 41 101 76 c 2
 101 101 l 1
 101 375 l 2
 101 442 100 445 40 445 c 0
 24 445 24 476 39 477 c 0
 92 486 156 485 210 485 c 0
 294 485 322 471 357 438 c 0
 382 413 397 380 397 344 c 0
 397 288 366 244 323 222 c 1
 340 192 353 168 366 146 c 2
 404 85 l 2
 421 58 450 32 482 24 c 0
 495 18 495 6 488 -5 c 0
 483 -9 479 -10 474 -10 c 0x5c
204 449 m 0
 197 450 195 448 188 448 c 0
 181 448 179 437 178 432 c 2
 178 243 l 2
 179 237 179 228 184 227 c 0
 205 226 230 226 245 232 c 0
 288 247 311 290 311 338 c 0
 311 406 290 449 204 449 c 0
EndSplineSet
EndChar

StartChar: s
Encoding: 115 115 74
Width: 384
Flags: MW
HStem: -14 40<181.5 212.5 159.5 237> 453 37<171 197.5 147.5 212>
VStem: 59 71<382 407> 268 70<83.5 129.5>
LayerCount: 2
Fore
SplineSet
338 123 m 0
 338 44 280 -14 194 -14 c 0
 169 -14 146 -6 123 2 c 0
 117 3 113 5 106 5 c 0
 104 5 101 5 98 0 c 0
 89 -5 80 -3 71 0 c 1
 68 34 57 85 56 111 c 0
 55 133 84 135 88 123 c 1
 88 123 l 1
 105 68 131 26 188 26 c 0
 237 26 268 59 268 101 c 0
 268 158 207 195 166 224 c 0
 115 261 59 302 59 373 c 0
 59 441 110 490 185 490 c 0
 210 490 223 487 250 478 c 0
 264 472 269 471 272 471 c 0
 274 471 275 472 280 477 c 0
 287 480 296 480 304 476 c 1
 308 438 311 404 317 375 c 0
 317 358 293 362 288 367 c 0
 255 430 233 453 191 453 c 0
 151 453 130 429 130 393 c 0
 130 371 142 351 161 332 c 0
 182 311 207 294 231 276 c 0
 283 238 338 194 338 123 c 0
EndSplineSet
EndChar

StartChar: t
Encoding: 116 116 75
Width: 501
Flags: MW
HStem: -3 36<143 187.5 155.5 187.5 313.5 338> 432 46<103.5 392 114 403.5>
VStem: 214 79<102 413 413 415>
LayerCount: 2
Fore
SplineSet
441 350 m 0
 435 353 436 354 435 362 c 0
 423 424 413 432 394 432 c 0
 371 433 332 433 303 433 c 0
 297 432 293 423 293 415 c 2
 293 102 l 2
 293 64 289 33 338 33 c 0
 354 35 368 35 372 24 c 0
 374 19 374 9 372 4 c 0
 370 -1 364 -3 361 -3 c 0
 307 0 200 -1 146 -3 c 0
 140 -3 134 3 133 9 c 0
 133 13 133 18 134 22 c 0
 137 35 152 33 159 33 c 0
 216 33 214 54 214 102 c 2
 214 413 l 2
 214 420 212 432 206 433 c 0
 178 434 136 433 113 432 c 0
 94 432 84 424 72 362 c 0
 71 355 69 351 63 350 c 0
 53 347 41 350 39 360 c 0
 37 368 44 414 45 423 c 0
 47 445 48 459 48 468 c 0
 48 480 48 489 61 491 c 0
 69 493 76 493 80 488 c 0
 83 481 82 482 89 480 c 0
 93 478 96 478 114 478 c 0
 185 477 313 477 392 478 c 0
 423 479 425 479 429 489 c 0
 433 495 455 495 457 486 c 0
 458 478 459 475 459 468 c 0
 460 432 465 396 468 360 c 0
 469 346 450 345 441 350 c 0
EndSplineSet
EndChar

StartChar: u
Encoding: 117 117 76
Width: 594
Flags: W
HStem: -14 58<279 322> 440 38
VStem: 91 78<217 228 228 374> 364 124 437 51<224 354 354 357>
LayerCount: 2
Fore
SplineSet
546 442 m 1xf0
 493 440 488 436 488 357 c 2
 488 224 l 2
 488 183 490 145 475 106 c 0
 465 82 449 59 429 41 c 0
 388 3 356 -14 288 -14 c 0
 192 -14 139 26 108 97 c 0
 93 130 91 148 91 217 c 2
 91 375 l 1
 91 404 l 2
 91 440 78 439 64 439 c 0
 56 439 47 439 40 441 c 0
 33 442 27 447 26 460 c 0
 25 473 34 478 47 477 c 0
 95 475 178 475 223 478 c 0
 233 477 235 465 235 459 c 0
 234 444 231 442 216 442 c 0
 178 442 171 435 170 399 c 2
 169 374 l 1
 169 228 l 2
 169 175 167 125 209 84 c 0
 236 58 255 44 303 44 c 0
 375 44 408 75 426 126 c 0
 437 158 437 190 437 224 c 2
 437 354 l 2
 437 372 437 386 437 397 c 0xe8
 434 433 422 438 391 440 c 0
 376 441 364 443 364 461 c 0
 364 475 370 478 383 477 c 0
 428 475 507 476 545 478 c 0
 553 478 557 468 557 461 c 0
 557 456 555 447 546 442 c 1xf0
EndSplineSet
EndChar

StartChar: v
Encoding: 118 118 77
Width: 524
Flags: MW
HStem: -17 21G<258 261> 445 33
LayerCount: 2
Fore
SplineSet
438 373 m 2
 302 -1 l 2
 300 -6 291 -14 285 -15 c 0
 276 -15 270 -18 261 -17 c 0
 255 -17 246 -8 244 -2 c 2
 98 384 l 2
 76 443 73 443 31 444 c 0
 22 446 19 460 22 469 c 0
 26 480 34 478 43 477 c 0
 108 475 156 476 225 478 c 0
 236 478 241 465 238 455 c 0
 235 444 231 445 220 444 c 0
 166 441 162 432 178 387 c 2
 280 114 l 2
 283 108 291 113 295 126 c 2
 385 381 l 2
 391 400 405 432 376 441 c 0
 369 443 359 444 344 444 c 0
 338 444 334 446 331 451 c 0
 327 461 330 476 342 478 c 0
 391 475 469 476 504 478 c 0
 524 479 518 446 507 445 c 0
 471 444 460 435 438 373 c 2
EndSplineSet
EndChar

StartChar: w
Encoding: 119 119 78
Width: 766
Flags: MW
HStem: 445 33<377.5 384 384 413 714.5 733>
LayerCount: 2
Fore
SplineSet
733 445 m 0
 696 445 687 440 667 384 c 2
 530 8 l 2
 528 3 515 -12 505 -13 c 0
 497 -14 489 -13 482 -12 c 0
 474 -10 470 -2 465 7 c 2
 393 188 l 2
 389 196 386 199 384 193 c 2
 307 -5 l 2
 304 -14 284 -16 269 -13 c 0
 260 -11 249 2 248 6 c 0
 203 129 146 281 110 373 c 0
 85 440 85 442 34 443 c 0
 25 445 23 444 20 452 c 0
 19 457 19 460 20 465 c 0
 21 473 30 478 39 479 c 0
 75 480 77 476 112 476 c 0
 144 476 148 478 194 478 c 0
 202 478 211 477 212 468 c 0
 212 458 208 448 204 447 c 0
 189 447 170 449 170 429 c 0
 170 423 172 415 183 386 c 2
 291 103 l 2
 293 99 297 103 300 110 c 2
 360 267 l 1
 309 396 l 2
 292 440 294 444 244 445 c 0
 239 447 234 459 236 469 c 0
 237 475 242 478 253 478 c 0
 323 475 463 476 533 478 c 0
 550 479 546 448 533 445 c 0
 486 444 481 440 464 396 c 2
 426 300 l 1
 453 233 476 174 503 107 c 0
 506 102 511 98 514 109 c 0
 642 458 616 388 626 416 c 0
 637 447 624 444 590 445 c 0
 573 449 580 479 594 478 c 0
 629 475 698 477 733 478 c 0
 748 479 753 445 733 445 c 0
413 445 m 0
 403 446 391 446 384 445 c 0
 371 445 368 442 373 430 c 0
 383 407 386 396 396 374 c 0
 397 370 403 374 404 377 c 2
 417 413 l 2
 424 433 426 436 426 439 c 0
 426 440 425 445 413 445 c 0
EndSplineSet
EndChar

StartChar: x
Encoding: 120 120 79
Width: 568
Flags: W
HStem: -3 35<196 202 202 204 352.5 357 357 359 359 378.5> 444 33<43.5 45> 458 20G<236 242>
LayerCount: 2
Fore
SplineSet
270 194 m 0xc0
 266 187 176 70 176 70 c 2
 164 56 160 45 160 41 c 0
 160 37 161 32 196 32 c 2
 202 32 l 2
 220 32 222 -4 204 -3 c 0
 155 -1 75 -2 43 -3 c 0
 34 -3 31 8 31 14 c 0
 31 19 32 31 43 31 c 0
 68 33 86 39 100 50 c 0
 116 63 133 91 145 107 c 2
 242 236 l 2
 246 241 243 243 242 247 c 2
 146 378 l 2
 105 432 95 442 45 444 c 0
 40 444 33 445 31 450 c 0
 30 456 30 462 32 468 c 0
 36 476 40 477 47 477 c 0xc0
 108 477 158 476 236 478 c 0xa0
 248 478 254 478 256 464 c 0
 258 455 255 444 247 444 c 0
 203 443 200 441 200 435 c 0
 200 428 217 407 221 401 c 2
 284 313 l 2
 291 304 295 309 302 315 c 0
 325 348 353 384 376 419 c 0
 395 449 372 443 348 443 c 0
 328 443 328 461 334 471 c 0
 339 479 346 478 354 477 c 0
 394 476 470 476 507 477 c 0
 517 476 521 467 521 460 c 0
 521 453 517 444 508 444 c 0
 473 442 463 436 441 416 c 0
 433 410 426 403 419 396 c 0
 385 358 357 312 327 271 c 0
 327 270 322 262 327 255 c 2
 444 95 l 2
 454 81 469 58 484 47 c 0
 495 39 506 36 538 31 c 0
 553 29 554 -3 538 -3 c 0
 488 -2 407 -1 357 -3 c 0
 348 -3 342 -2 339 7 c 0
 335 17 340 32 350 32 c 2
 359 32 l 2
 398 32 381 52 363 77 c 2
 280 196 l 2
 276 200 273 198 270 194 c 0xc0
EndSplineSet
EndChar

StartChar: y
Encoding: 121 121 80
Width: 500
Flags: MW
HStem: -3 39<160 162 162 163 327 347.5> 444 34<339 354.5>
VStem: 221 78<77 177 160.5 177>
LayerCount: 2
Fore
SplineSet
486 445 m 0
 462 444 448 435 433 420 c 0
 423 410 418 402 398 365 c 2
 299 186 l 1
 299 76 l 2
 299 42 308 36 346 36 c 0
 349 36 354 37 359 35 c 0
 375 33 373 -3 356 -3 c 0
 308 -1 223 0 162 -3 c 0
 147 -3 144 37 160 36 c 0
 166 36 170 39 176 37 c 0
 209 37 220 43 221 77 c 0
 222 110 221 144 221 177 c 1
 101 381 l 2
 71 431 57 442 24 444 c 0
 14 445 7 443 7 457 c 0
 5 486 26 479 48 477 c 0
 95 475 142 477 189 478 c 0
 201 478 207 480 211 468 c 0
 215 458 213 445 198 445 c 0
 163 445 162 436 162 434 c 0
 162 427 162 426 182 394 c 2
 268 249 l 1
 274 247 273 245 280 255 c 2
 350 385 l 2
 368 419 371 425 371 430 c 0
 371 438 370 444 339 444 c 0
 330 441 324 444 321 454 c 0
 317 464 319 478 333 478 c 0
 368 476 431 476 485 478 c 0
 495 478 497 467 497 461 c 0
 497 456 494 445 486 445 c 0
EndSplineSet
EndChar

StartChar: z
Encoding: 122 122 81
Width: 497
Flags: W
HStem: -2 47<167 320 167 426> 432 47<176 372> 458 20G<237 259.5>
LayerCount: 2
Fore
SplineSet
446 12 m 0xc0
 445 2 433 -2 426 -2 c 0
 323 0 158 0 53 -2 c 0
 35 0 36 15 38 21 c 0
 39 25 41 29 46 37 c 0
 120 135 254 318 328 427 c 0
 330 431 316 432 313 432 c 2
 176 432 l 2xc0
 111 432 108 429 100 361 c 0
 100 354 92 352 87 352 c 0
 83 352 79 353 75 356 c 0
 69 361 70 364 70 372 c 0
 71 399 74 437 75 465 c 0
 77 473 80 475 87 477 c 0
 97 481 226 478 248 478 c 0xa0
 271 478 314 478 353 479 c 0
 391 479 426 479 431 477 c 0
 439 475 437 452 434 447 c 0
 362 349 219 152 149 51 c 0
 142 44 163 45 167 45 c 0
 208 44 279 44 320 45 c 0
 406 46 410 59 423 147 c 1
 430 155 447 155 453 149 c 0
 455 147 455 136 454 122 c 0
 451 85 450 48 446 12 c 0xc0
EndSplineSet
EndChar

StartChar: braceleft
Encoding: 123 123 82
Width: 484
Flags: W
LayerCount: 2
Fore
SplineSet
390 -249 m 0
 275 -231 197 -147 197 -45 c 0
 197 -23 201 4 208 35 c 0
 215 66 220 97 220 111 c 0
 220 161 182 200 110 215 c 0
 107 216 105 220 105 224 c 0
 103 229 103 232 105 237 c 0
 105 241 109 245 112 246 c 0
 179 260 219 301 219 348 c 0
 219 364 215 389 207 423 c 0
 199 455 196 483 196 506 c 0
 196 608 276 694 390 711 c 0
 393 711 396 710 397 706 c 0
 400 695 400 691 399 690 c 0
 399 689 399 689 398 689 c 1
 398 689 l 1
 398 689 l 1
 398 689 397 688 397 687 c 0
 396 684 391 681 388 680 c 0
 317 664 280 622 280 564 c 0
 280 544 283 520 289 490 c 0
 296 454 300 424 300 402 c 0
 300 356 281 315 245 281 c 0
 223 260 208 249 183 238 c 0
 173 234 170 230 182 224 c 0
 258 186 300 129 300 59 c 0
 300 41 297 5 290 -27 c 0
 284 -56 281 -82 281 -101 c 0
 281 -159 316 -199 391 -220 c 0
 394 -220 398 -223 399 -225 c 0
 400 -225 400 -226 400 -226 c 2
 403 -234 403 -238 400 -245 c 0
 398 -249 395 -250 390 -249 c 0
EndSplineSet
EndChar

StartChar: braceright
Encoding: 125 125 83
Width: 477
Flags: W
LayerCount: 2
Fore
SplineSet
380 214 m 0
 315 199 278 160 278 114 c 0
 278 87 284 61 290 35 c 0
 296 9 302 -17 302 -44 c 0
 302 -144 226 -227 118 -247 c 0
 109 -249 97 -245 99 -237 c 0
 99 -234 100 -229 100 -226 c 0
 101 -222 103 -219 107 -218 c 0
 179 -203 217 -160 217 -103 c 0
 217 -48 196 4 196 59 c 0
 196 104 217 146 252 181 c 0
 274 202 289 213 314 224 c 0
 323 228 321 235 313 239 c 0
 238 277 196 334 196 402 c 0
 196 454 216 508 216 562 c 0
 216 618 182 660 111 680 c 0
 107 681 97 688 99 697 c 0
 99 702 100 712 107 711 c 0
 222 693 301 609 301 507 c 0
 301 454 277 404 277 351 c 0
 277 303 312 265 378 249 c 0
 385 247 392 240 392 233 c 0
 392 222 391 216 380 214 c 0
EndSplineSet
EndChar

StartChar: asciitilde
Encoding: 126 126 84
Width: 423
Flags: W
LayerCount: 2
Fore
SplineSet
284 189 m 0
 260 189 229 207 199 225 c 0
 184 234 170 243 156 250 c 0
 143 257 131 261 122 261 c 0
 102 261 82 239 72 212 c 0
 70 208 69 201 62 201 c 2
 50 201 l 2
 46 204 44 209 44 213 c 0
 48 283 85 330 131 330 c 0
 158 330 188 312 217 295 c 0
 238 282 272 260 297 260 c 0
 323 260 339 278 350 311 c 0
 351 314 354 318 360 321 c 2
 369 321 l 2
 375 320 377 313 377 310 c 0
 373 234 337 189 284 189 c 0
EndSplineSet
EndChar

StartChar: aacute
Encoding: 135 225 85
Width: 513
Flags: MW
HStem: -3 35<288 300> 199 46<248 269 269 274 213 288> 712 20G<273 361 361 361>
LayerCount: 2
Fore
SplineSet
490 14 m 0
 490 5 486 -3 478 -2 c 0
 431 -1 339 -1 292 -3 c 0
 284 -3 282 5 282 15 c 0
 282 22 285 32 293 32 c 2
 300 32 l 2
 341 32 362 32 350 65 c 0
 334 111 323 140 307 187 c 0
 303 196 292 198 288 199 c 0
 208 199 201 198 189 198 c 0
 179 198 178 195 172 188 c 2
 138 92 l 2
 134 80 128 60 128 48 c 0
 128 31 163 33 173 33 c 0
 177 33 181 33 185 33 c 0
 198 31 196 -3 184 -3 c 0
 145 -2 71 -1 26 -3 c 0
 15 -3 9 32 28 33 c 0
 40 33 55 32 63 42 c 0
 73 54 82 83 87 98 c 2
 215 463 l 2
 213 468 211 472 210 477 c 0
 208 483 212 492 221 493 c 0
 230 495 245 496 265 495 c 0
 283 493 284 479 288 466 c 0
 369 242 395 168 410 126 c 0
 417 108 423 89 430 71 c 0
 440 39 446 32 474 32 c 2
 478 32 l 2
 486 32 490 23 490 14 c 0
246 371 m 0
 244 376 237 377 237 375 c 2
 195 257 l 2
 193 246 199 245 213 245 c 2
 269 245 l 2
 279 245 283 246 282 256 c 0
 280 261 259 331 246 371 c 0
375 723 m 0
 375 721 374 719 374 718 c 2
 231 546 l 2
 225 539 200 539 205 555 c 2
 254 719 l 2
 258 727 266 732 273 732 c 2
 361 732 l 2
 368 733 377 731 375 723 c 0
EndSplineSet
EndChar

StartChar: agrave
Encoding: 136 224 86
Width: 513
Flags: W
HStem: -3 35<288 300> 199 46<248 269 269 274 213 288> 712 20G<128 134> 713 20G<211 215.5>
LayerCount: 2
Fore
SplineSet
490 14 m 0xd0
 490 5 486 -3 478 -2 c 0
 431 -1 339 -1 292 -3 c 0
 284 -3 282 5 282 15 c 0
 282 22 285 32 293 32 c 2
 300 32 l 2
 341 32 362 32 350 65 c 0
 334 111 323 140 307 187 c 0
 303 196 292 198 288 199 c 0
 208 199 201 198 189 198 c 0
 179 198 178 195 172 188 c 2
 138 92 l 2
 134 80 128 60 128 48 c 0
 128 31 163 33 173 33 c 0
 177 33 181 33 185 33 c 0
 198 31 196 -3 184 -3 c 0
 145 -2 71 -1 26 -3 c 0
 15 -3 9 32 28 33 c 0
 40 33 55 32 63 42 c 0
 73 54 82 83 87 98 c 2
 215 463 l 2
 213 468 211 472 210 477 c 0
 208 483 212 492 221 493 c 0
 230 495 245 496 265 495 c 0
 283 493 284 479 288 466 c 0
 369 242 395 168 410 126 c 0
 417 108 423 89 430 71 c 0
 440 39 446 32 474 32 c 2
 478 32 l 2
 486 32 490 23 490 14 c 0xd0
246 371 m 0
 244 376 237 377 237 375 c 2
 195 257 l 2
 193 246 199 245 213 245 c 2
 269 245 l 2
 279 245 283 246 282 256 c 0
 280 261 259 331 246 371 c 0
279 562 m 0
 280 549 262 548 254 555 c 0
 222 597 163 666 120 713 c 0xd0
 114 719 122 732 134 732 c 2xe0
 211 733 l 2
 220 733 225 733 230 725 c 0
 247 680 269 605 279 562 c 0
EndSplineSet
EndChar

StartChar: acircumflex
Encoding: 137 226 87
Width: 513
Flags: MW
HStem: -3 35<288 300> 199 46<248 269 269 274 213 288>
LayerCount: 2
Fore
SplineSet
490 14 m 0
 490 5 486 -3 478 -2 c 0
 431 -1 339 -1 292 -3 c 0
 284 -3 282 5 282 15 c 0
 282 22 285 32 293 32 c 2
 300 32 l 2
 341 32 362 32 350 65 c 0
 334 111 323 140 307 187 c 0
 303 196 292 198 288 199 c 0
 208 199 201 198 189 198 c 0
 179 198 178 195 172 188 c 2
 138 92 l 2
 134 80 128 60 128 48 c 0
 128 31 163 33 173 33 c 0
 177 33 181 33 185 33 c 0
 198 31 196 -3 184 -3 c 0
 145 -2 71 -1 26 -3 c 0
 15 -3 9 32 28 33 c 0
 40 33 55 32 63 42 c 0
 73 54 82 83 87 98 c 2
 215 463 l 2
 213 468 211 472 210 477 c 0
 208 483 212 492 221 493 c 0
 230 495 245 496 265 495 c 0
 283 493 284 479 288 466 c 0
 369 242 395 168 410 126 c 0
 417 108 423 89 430 71 c 0
 440 39 446 32 474 32 c 2
 478 32 l 2
 486 32 490 23 490 14 c 0
246 371 m 0
 244 376 237 377 237 375 c 2
 195 257 l 2
 193 246 199 245 213 245 c 2
 269 245 l 2
 279 245 283 246 282 256 c 0
 280 261 259 331 246 371 c 0
385 561 m 2
 387 556 390 549 384 548 c 0
 377 546 367 547 364 550 c 2
 242 654 l 1
 127 550 l 2
 119 543 99 548 103 556 c 2
 192 712 l 2
 195 717 200 720 205 722 c 0
 212 723 267 724 280 723 c 0
 290 722 292 721 297 713 c 2
 385 561 l 2
EndSplineSet
EndChar

StartChar: adieresis
Encoding: 138 228 88
Width: 513
Flags: MW
HStem: -3 35<288 300> 199 46<248 269 269 274 213 288> 556 120<143.5 176.5 320.5 354>
VStem: 100 120<599 632.5> 277 121<599.5 632.5>
LayerCount: 2
Fore
SplineSet
490 14 m 0
 490 5 486 -3 478 -2 c 0
 431 -1 339 -1 292 -3 c 0
 284 -3 282 5 282 15 c 0
 282 22 285 32 293 32 c 2
 300 32 l 2
 341 32 362 32 350 65 c 0
 334 111 323 140 307 187 c 0
 303 196 292 198 288 199 c 0
 208 199 201 198 189 198 c 0
 179 198 178 195 172 188 c 2
 138 92 l 2
 134 80 128 60 128 48 c 0
 128 31 163 33 173 33 c 0
 177 33 181 33 185 33 c 0
 198 31 196 -3 184 -3 c 0
 145 -2 71 -1 26 -3 c 0
 15 -3 9 32 28 33 c 0
 40 33 55 32 63 42 c 0
 73 54 82 83 87 98 c 2
 215 463 l 2
 213 468 211 472 210 477 c 0
 208 483 212 492 221 493 c 0
 230 495 245 496 265 495 c 0
 283 493 284 479 288 466 c 0
 369 242 395 168 410 126 c 0
 417 108 423 89 430 71 c 0
 440 39 446 32 474 32 c 2
 478 32 l 2
 486 32 490 23 490 14 c 0
246 371 m 0
 244 376 237 377 237 375 c 2
 195 257 l 2
 193 246 199 245 213 245 c 2
 269 245 l 2
 279 245 283 246 282 256 c 0
 280 261 259 331 246 371 c 0
398 616 m 0
 398 583 371 556 337 556 c 0
 304 556 277 583 277 616 c 0
 277 649 304 676 337 676 c 0
 371 676 398 649 398 616 c 0
220 616 m 0
 220 582 193 556 160 556 c 0
 127 556 100 582 100 616 c 0
 100 649 127 676 160 676 c 0
 193 676 220 649 220 616 c 0
EndSplineSet
EndChar

StartChar: atilde
Encoding: 139 227 89
Width: 513
Flags: W
HStem: -3 35<288 300> 199 46<248 269 269 274 213 288> 544 71<331 334> 612 70<149.5 155.5> 667 20G<387 390>
LayerCount: 2
Fore
SplineSet
490 14 m 0xe8
 490 5 486 -3 478 -2 c 0
 431 -1 339 -1 292 -3 c 0
 284 -3 282 5 282 15 c 0
 282 22 285 32 293 32 c 2
 300 32 l 2
 341 32 362 32 350 65 c 0
 334 111 323 140 307 187 c 0
 303 196 292 198 288 199 c 0
 208 199 201 198 189 198 c 0
 179 198 178 195 172 188 c 2
 138 92 l 2
 134 80 128 60 128 48 c 0
 128 31 163 33 173 33 c 0
 177 33 181 33 185 33 c 0
 198 31 196 -3 184 -3 c 0
 145 -2 71 -1 26 -3 c 0
 15 -3 9 32 28 33 c 0
 40 33 55 32 63 42 c 0
 73 54 82 83 87 98 c 2
 215 463 l 2
 213 468 211 472 210 477 c 0
 208 483 212 492 221 493 c 0
 230 495 245 496 265 495 c 0
 283 493 284 479 288 466 c 0
 369 242 395 168 410 126 c 0
 417 108 423 89 430 71 c 0
 440 39 446 32 474 32 c 2
 478 32 l 2
 486 32 490 23 490 14 c 0xe8
246 371 m 0
 244 376 237 377 237 375 c 2
 195 257 l 2
 193 246 199 245 213 245 c 2
 269 245 l 2
 279 245 283 246 282 256 c 0
 280 261 259 331 246 371 c 0
404 668 m 0
 404 597 363 544 305 544 c 0xe8
 278 544 246 557 208 583 c 0
 171 609 162 612 149 612 c 0
 130 612 120 601 112 565 c 0
 112 561 110 557 109 547 c 0
 105 539 84 534 82 547 c 0
 86 633 119 682 180 682 c 0xd0
 210 682 233 673 278 642 c 0
 309 621 325 615 337 615 c 0
 358 615 369 627 377 681 c 0
 377 685 384 687 390 687 c 0
 396 688 402 685 402 681 c 0
 404 675 404 671 404 668 c 0
EndSplineSet
EndChar

StartChar: aring
Encoding: 140 229 90
Width: 513
Flags: MW
HStem: -3 35<288 300> 199 46<248 269 269 274 213 288> 549 47<233.5 263.5 233.5 276.5> 708 47<233.5 263.5>
VStem: 146 47<636.5 667.5 636.5 680.5> 303 47<636.5 667.5>
LayerCount: 2
Fore
SplineSet
490 14 m 0
 490 5 486 -3 478 -2 c 0
 431 -1 339 -1 292 -3 c 0
 284 -3 282 5 282 15 c 0
 282 22 285 32 293 32 c 2
 300 32 l 2
 341 32 362 32 350 65 c 0
 334 111 323 140 307 187 c 0
 303 196 292 198 288 199 c 0
 208 199 201 198 189 198 c 0
 179 198 178 195 172 188 c 2
 138 92 l 2
 134 80 128 60 128 48 c 0
 128 31 163 33 173 33 c 0
 177 33 181 33 185 33 c 0
 198 31 196 -3 184 -3 c 0
 145 -2 71 -1 26 -3 c 0
 15 -3 9 32 28 33 c 0
 40 33 55 32 63 42 c 0
 73 54 82 83 87 98 c 2
 215 463 l 2
 213 468 211 472 210 477 c 0
 208 483 212 492 221 493 c 0
 230 495 245 496 265 495 c 0
 283 493 284 479 288 466 c 0
 369 242 395 168 410 126 c 0
 417 108 423 89 430 71 c 0
 440 39 446 32 474 32 c 2
 478 32 l 2
 486 32 490 23 490 14 c 0
246 371 m 0
 244 376 237 377 237 375 c 2
 195 257 l 2
 193 246 199 245 213 245 c 2
 269 245 l 2
 279 245 283 246 282 256 c 0
 280 261 259 331 246 371 c 0
350 652 m 0
 350 595 304 549 249 549 c 0
 192 549 146 595 146 652 c 0
 146 709 192 755 249 755 c 0
 304 755 350 709 350 652 c 0
303 652 m 0
 303 683 278 708 249 708 c 0
 218 708 193 683 193 652 c 0
 193 621 218 596 249 596 c 0
 278 596 303 621 303 652 c 0
EndSplineSet
EndChar

StartChar: ccedilla
Encoding: 141 231 91
Width: 524
Flags: W
HStem: -224 30<251.5 261 244.5 284> -111 141<262.5 278> -13 43<267 267> 449 41<247.5 319 220.5 335>
VStem: 39 88<184.5 308> 297 55<-156 -136>
LayerCount: 2
Fore
SplineSet
352 -130 m 0xbc
 352 -182 310 -224 258 -224 c 0
 245 -224 232 -223 216 -217 c 0
 206 -213 208 -208 212 -202 c 0
 213 -200 214 -197 216 -195 c 0
 217 -192 222 -190 225 -191 c 0
 235 -193 242 -194 247 -194 c 0
 275 -194 297 -172 297 -147 c 0
 297 -125 287 -111 269 -111 c 0xdc
 256 -111 243 -117 206 -136 c 0
 201 -138 193 -138 198 -130 c 2
 267 -13 l 1
 132 -3 39 97 39 233 c 0
 39 383 144 490 297 490 c 0
 341 490 368 482 411 466 c 0
 419 462 430 457 439 463 c 0
 443 466 463 468 464 458 c 0
 464 428 468 376 471 349 c 1
 467 335 446 330 439 342 c 0
 416 411 369 449 301 449 c 0
 194 449 127 372 127 248 c 0
 127 121 203 30 310 30 c 0
 355 30 386 43 418 73 c 0
 435 90 440 96 458 129 c 0
 464 141 494 139 489 124 c 0
 479 86 460 40 439 4 c 1
 427 7 425 7 421 7 c 0
 409 7 401 6 394 4 c 0
 387 3 380 0 369 -4 c 0
 345 -11 320 -13 296 -14 c 1
 281 -42 l 2
 279 -46 279 -47 279 -48 c 0
 280 -49 283 -49 285 -50 c 0
 323 -55 352 -88 352 -130 c 0xbc
EndSplineSet
EndChar

StartChar: eacute
Encoding: 142 233 92
Width: 457
Flags: W
HStem: -3 21G -2 47 434 44<201.5 204 204 285> 712 20G<234 322 322 322>
VStem: 110 77<104 211 276.5 281 281 375 375 407.5>
LayerCount: 2
Fore
SplineSet
411 113 m 2x78
 403 18 l 2
 399 3 392 -1 384 -3 c 0xb8
 290 -2 137 -1 42 -2 c 0
 36 -3 29 -3 26 4 c 0
 24 11 23 22 26 29 c 0
 30 38 46 37 51 37 c 0
 105 37 110 39 110 104 c 2
 110 375 l 2
 110 440 105 441 63 441 c 0
 54 441 45 437 40 446 c 0
 34 455 34 476 47 478 c 0
 140 479 301 479 365 478 c 0
 372 476 376 475 379 467 c 0
 383 445 387 400 385 367 c 0
 385 360 371 358 361 360 c 0
 355 361 354 366 353 372 c 0
 345 429 337 433 285 434 c 2
 204 434 l 2
 199 434 187 432 187 417 c 2
 187 281 l 2
 187 272 195 270 202 270 c 0
 225 270 270 268 300 271 c 0
 321 273 323 279 327 311 c 0
 328 318 328 319 336 319 c 0
 346 321 360 318 359 311 c 0
 357 276 359 199 359 175 c 1
 355 169 330 162 328 176 c 0
 322 213 320 221 294 223 c 0
 269 225 218 223 205 223 c 0
 199 223 187 221 187 211 c 2
 187 98 l 2
 187 65 184 45 225 45 c 2
 287 45 l 2
 349 45 365 52 379 115 c 0
 382 126 380 125 389 127 c 0
 395 128 400 128 405 126 c 0
 412 123 412 120 411 113 c 2x78
336 723 m 0
 336 721 335 719 335 718 c 2
 192 546 l 2
 186 539 161 539 166 555 c 2
 215 719 l 2
 219 727 227 732 234 732 c 2
 322 732 l 2
 329 733 338 731 336 723 c 0
EndSplineSet
EndChar

StartChar: egrave
Encoding: 143 232 93
Width: 457
Flags: W
HStem: -3 21G -2 47 434 44<201.5 204 204 285> 712 20G<100 106> 713 20G<183 187.5>
VStem: 110 77<104 211 276.5 281 281 375 375 407.5>
LayerCount: 2
Fore
SplineSet
411 113 m 2x6c
 403 18 l 2
 399 3 392 -1 384 -3 c 0xac
 290 -2 137 -1 42 -2 c 0
 36 -3 29 -3 26 4 c 0
 24 11 23 22 26 29 c 0
 30 38 46 37 51 37 c 0
 105 37 110 39 110 104 c 2
 110 375 l 2
 110 440 105 441 63 441 c 0
 54 441 45 437 40 446 c 0
 34 455 34 476 47 478 c 0
 140 479 301 479 365 478 c 0
 372 476 376 475 379 467 c 0
 383 445 387 400 385 367 c 0
 385 360 371 358 361 360 c 0
 355 361 354 366 353 372 c 0
 345 429 337 433 285 434 c 2
 204 434 l 2
 199 434 187 432 187 417 c 2
 187 281 l 2
 187 272 195 270 202 270 c 0
 225 270 270 268 300 271 c 0
 321 273 323 279 327 311 c 0
 328 318 328 319 336 319 c 0
 346 321 360 318 359 311 c 0
 357 276 359 199 359 175 c 1
 355 169 330 162 328 176 c 0
 322 213 320 221 294 223 c 0
 269 225 218 223 205 223 c 0
 199 223 187 221 187 211 c 2
 187 98 l 2
 187 65 184 45 225 45 c 2
 287 45 l 2
 349 45 365 52 379 115 c 0
 382 126 380 125 389 127 c 0
 395 128 400 128 405 126 c 0
 412 123 412 120 411 113 c 2x6c
251 562 m 0
 252 549 234 548 226 555 c 0
 194 597 135 666 92 713 c 0x6c
 86 719 94 732 106 732 c 2x74
 183 733 l 2
 192 733 197 733 202 725 c 0
 219 680 241 605 251 562 c 0
EndSplineSet
EndChar

StartChar: ecircumflex
Encoding: 144 234 94
Width: 457
Flags: W
HStem: -3 21G -2 47 434 44<201.5 204 204 285>
VStem: 110 77<104 211 276.5 281 281 375 375 407.5>
LayerCount: 2
Fore
SplineSet
411 113 m 2x70
 403 18 l 2
 399 3 392 -1 384 -3 c 0xb0
 290 -2 137 -1 42 -2 c 0
 36 -3 29 -3 26 4 c 0
 24 11 23 22 26 29 c 0
 30 38 46 37 51 37 c 0
 105 37 110 39 110 104 c 2
 110 375 l 2
 110 440 105 441 63 441 c 0
 54 441 45 437 40 446 c 0
 34 455 34 476 47 478 c 0
 140 479 301 479 365 478 c 0
 372 476 376 475 379 467 c 0
 383 445 387 400 385 367 c 0
 385 360 371 358 361 360 c 0
 355 361 354 366 353 372 c 0
 345 429 337 433 285 434 c 2
 204 434 l 2
 199 434 187 432 187 417 c 2
 187 281 l 2
 187 272 195 270 202 270 c 0
 225 270 270 268 300 271 c 0
 321 273 323 279 327 311 c 0
 328 318 328 319 336 319 c 0
 346 321 360 318 359 311 c 0
 357 276 359 199 359 175 c 1
 355 169 330 162 328 176 c 0
 322 213 320 221 294 223 c 0
 269 225 218 223 205 223 c 0
 199 223 187 221 187 211 c 2
 187 98 l 2
 187 65 184 45 225 45 c 2
 287 45 l 2
 349 45 365 52 379 115 c 0
 382 126 380 125 389 127 c 0
 395 128 400 128 405 126 c 0
 412 123 412 120 411 113 c 2x70
353 561 m 2
 355 556 358 549 352 548 c 0
 345 546 335 547 332 550 c 2
 210 654 l 1
 95 550 l 2
 87 543 67 548 71 556 c 2
 160 712 l 2
 163 717 168 720 173 722 c 0
 180 723 235 724 248 723 c 0
 258 722 260 721 265 713 c 2
 353 561 l 2
EndSplineSet
EndChar

StartChar: edieresis
Encoding: 145 235 95
Width: 457
Flags: W
HStem: -3 21G -2 47 434 44<201.5 204 204 285> 556 120<114.5 147.5 291.5 325>
VStem: 71 116 110 77<104 211 276.5 281 281 375 375 407.5> 248 111
LayerCount: 2
Fore
SplineSet
411 113 m 2x7a
 403 18 l 2
 399 3 392 -1 384 -3 c 0xba
 290 -2 137 -1 42 -2 c 0
 36 -3 29 -3 26 4 c 0
 24 11 23 22 26 29 c 0
 30 38 46 37 51 37 c 0
 105 37 110 39 110 104 c 2
 110 375 l 2x76
 110 440 105 441 63 441 c 0
 54 441 45 437 40 446 c 0
 34 455 34 476 47 478 c 0
 140 479 301 479 365 478 c 0
 372 476 376 475 379 467 c 0
 383 445 387 400 385 367 c 0
 385 360 371 358 361 360 c 0
 355 361 354 366 353 372 c 0
 345 429 337 433 285 434 c 2
 204 434 l 2
 199 434 187 432 187 417 c 2
 187 281 l 2
 187 272 195 270 202 270 c 0
 225 270 270 268 300 271 c 0
 321 273 323 279 327 311 c 0
 328 318 328 319 336 319 c 0
 346 321 360 318 359 311 c 0
 357 276 359 199 359 175 c 1
 355 169 330 162 328 176 c 0
 322 213 320 221 294 223 c 0
 269 225 218 223 205 223 c 0
 199 223 187 221 187 211 c 2
 187 98 l 2
 187 65 184 45 225 45 c 2
 287 45 l 2
 349 45 365 52 379 115 c 0
 382 126 380 125 389 127 c 0
 395 128 400 128 405 126 c 0
 412 123 412 120 411 113 c 2x7a
369 616 m 0
 369 583 342 556 308 556 c 0
 275 556 248 583 248 616 c 0
 248 649 275 676 308 676 c 0
 342 676 369 649 369 616 c 0
191 616 m 0
 191 582 164 556 131 556 c 0
 98 556 71 582 71 616 c 0
 71 649 98 676 131 676 c 0
 164 676 191 649 191 616 c 0
EndSplineSet
EndChar

StartChar: iacute
Encoding: 146 237 96
Width: 293
Flags: W
HStem: -3 21G<63 231 63 86> 444 33 458 20G<71.5 76> 712 20G<196 284 284 284>
VStem: 108 74<102 375>
LayerCount: 2
Fore
SplineSet
231 -3 m 0xd8
 187 -2 109 -3 63 -3 c 0
 52 -2 50 8 50 14 c 0
 50 36 66 33 73 34 c 0
 76 34 80 34 83 34 c 0
 93 35 106 39 107 77 c 2
 108 102 l 2
 110 179 110 289 108 375 c 2
 107 400 l 2
 106 433 104 442 68 444 c 0xd8
 63 444 57 446 55 451 c 0
 53 456 52 465 55 471 c 0
 58 480 67 478 76 478 c 0xb8
 119 476 176 476 219 477 c 0
 228 478 236 479 239 470 c 0
 241 465 240 457 238 452 c 0
 235 443 230 444 222 444 c 0
 187 443 183 438 182 375 c 0
 181 311 181 162 182 76 c 0
 182 36 196 33 227 33 c 0
 234 33 238 33 242 26 c 0
 247 14 240 -3 231 -3 c 0xd8
298 723 m 0
 298 721 297 719 297 718 c 2
 154 546 l 2
 148 539 123 539 128 555 c 2
 177 719 l 2
 181 727 189 732 196 732 c 2
 284 732 l 2
 291 733 300 731 298 723 c 0
EndSplineSet
EndChar

StartChar: igrave
Encoding: 147 236 97
Width: 293
Flags: W
HStem: -3 21G<63 231 63 86> 444 33 458 20G<71.5 76> 712 20G<27 33> 713 20G<110 114.5>
VStem: 108 74<102 375>
LayerCount: 2
Fore
SplineSet
231 -3 m 0xcc
 187 -2 109 -3 63 -3 c 0
 52 -2 50 8 50 14 c 0
 50 36 66 33 73 34 c 0
 76 34 80 34 83 34 c 0
 93 35 106 39 107 77 c 2
 108 102 l 2
 110 179 110 289 108 375 c 2
 107 400 l 2
 106 433 104 442 68 444 c 0xcc
 63 444 57 446 55 451 c 0
 53 456 52 465 55 471 c 0
 58 480 67 478 76 478 c 0xac
 119 476 176 476 219 477 c 0
 228 478 236 479 239 470 c 0
 241 465 240 457 238 452 c 0
 235 443 230 444 222 444 c 0
 187 443 183 438 182 375 c 0
 181 311 181 162 182 76 c 0
 182 36 196 33 227 33 c 0
 234 33 238 33 242 26 c 0
 247 14 240 -3 231 -3 c 0xcc
178 562 m 0
 179 549 161 548 153 555 c 0
 121 597 62 666 19 713 c 0xcc
 13 719 21 732 33 732 c 2xd4
 110 733 l 2
 119 733 124 733 129 725 c 0
 146 680 168 605 178 562 c 0
EndSplineSet
EndChar

StartChar: icircumflex
Encoding: 148 238 98
Width: 293
Flags: W
HStem: -3 21G<63 231 63 86> 444 33 458 20G<71.5 76>
VStem: 108 74<102 375>
LayerCount: 2
Fore
SplineSet
231 -3 m 0xd0
 187 -2 109 -3 63 -3 c 0
 52 -2 50 8 50 14 c 0
 50 36 66 33 73 34 c 0
 76 34 80 34 83 34 c 0
 93 35 106 39 107 77 c 2
 108 102 l 2
 110 179 110 289 108 375 c 2
 107 400 l 2
 106 433 104 442 68 444 c 0xd0
 63 444 57 446 55 451 c 0
 53 456 52 465 55 471 c 0
 58 480 67 478 76 478 c 0xb0
 119 476 176 476 219 477 c 0
 228 478 236 479 239 470 c 0
 241 465 240 457 238 452 c 0
 235 443 230 444 222 444 c 0
 187 443 183 438 182 375 c 0
 181 311 181 162 182 76 c 0
 182 36 196 33 227 33 c 0
 234 33 238 33 242 26 c 0
 247 14 240 -3 231 -3 c 0xd0
286 561 m 2
 288 556 291 549 285 548 c 0
 278 546 268 547 265 550 c 2
 143 654 l 1
 28 550 l 2
 20 543 0 548 4 556 c 2
 93 712 l 2
 96 717 101 720 106 722 c 0
 113 723 168 724 181 723 c 0
 191 722 193 721 198 713 c 2
 286 561 l 2
EndSplineSet
EndChar

StartChar: idieresis
Encoding: 149 239 99
Width: 293
Flags: W
HStem: -3 21G<63 231 63 86> 444 33 458 20G<71.5 76> 556 120<39.5 72.5 216.5 250>
VStem: -4 120<599 632.5> 108 74<102 375> 173 121<599.5 632.5>
LayerCount: 2
Fore
SplineSet
231 -3 m 0xd4
 187 -2 109 -3 63 -3 c 0
 52 -2 50 8 50 14 c 0
 50 36 66 33 73 34 c 0
 76 34 80 34 83 34 c 0
 93 35 106 39 107 77 c 2
 108 102 l 2
 110 179 110 289 108 375 c 2
 107 400 l 2
 106 433 104 442 68 444 c 0xd4
 63 444 57 446 55 451 c 0
 53 456 52 465 55 471 c 0
 58 480 67 478 76 478 c 0xba
 119 476 176 476 219 477 c 0
 228 478 236 479 239 470 c 0
 241 465 240 457 238 452 c 0
 235 443 230 444 222 444 c 0
 187 443 183 438 182 375 c 0
 181 311 181 162 182 76 c 0
 182 36 196 33 227 33 c 0
 234 33 238 33 242 26 c 0
 247 14 240 -3 231 -3 c 0xd4
294 616 m 0xda
 294 583 267 556 233 556 c 0
 200 556 173 583 173 616 c 0
 173 649 200 676 233 676 c 0
 267 676 294 649 294 616 c 0xda
116 616 m 0
 116 582 89 556 56 556 c 0
 23 556 -4 582 -4 616 c 0
 -4 649 23 676 56 676 c 0
 89 676 116 649 116 616 c 0
EndSplineSet
EndChar

StartChar: ntilde
Encoding: 150 241 100
Width: 579
Flags: W
HStem: -3 38<46 47 47 52 196.5 207.5> 443 36<392 392> 544 71<382 385> 612 70<200.5 206.5> 667 20G<438 441>
VStem: 98 50<78.5 105 105 354> 450 51<375 387 387 393.5>
LayerCount: 2
Fore
SplineSet
556 443 m 0xee
 512 442 508 440 505 435 c 0
 502 431 501 428 501 416 c 2
 501 387 l 1
 501 8 l 2
 501 -12 470 -11 465 -2 c 2
 160 364 l 2
 155 370 148 376 148 354 c 2
 148 105 l 2
 148 52 151 47 158 41 c 0
 169 33 190 35 203 35 c 0
 212 35 215 34 218 26 c 0
 222 15 219 -3 210 -3 c 0
 170 -2 99 -1 47 -3 c 0
 30 -3 27 32 46 35 c 0
 48 35 50 35 52 35 c 0
 88 33 98 43 98 72 c 2
 98 415 l 2
 97 426 94 434 92 435 c 0
 81 441 68 445 50 445 c 0
 36 445 34 480 52 479 c 2
 106 478 l 1
 145 479 l 2
 152 480 163 476 168 471 c 2
 435 150 l 2
 442 143 451 132 451 151 c 2
 450 375 l 2
 450 412 450 426 443 433 c 0
 440 437 436 439 427 440 c 0
 418 442 407 442 392 443 c 0
 388 443 384 446 382 449 c 0
 376 460 380 479 393 479 c 0
 445 476 486 477 546 479 c 0
 559 479 564 473 565 462 c 0
 566 454 561 443 556 443 c 0xee
455 668 m 0
 455 597 414 544 356 544 c 0xee
 329 544 297 557 259 583 c 0
 222 609 213 612 200 612 c 0
 181 612 171 601 163 565 c 0
 163 561 161 557 160 547 c 0
 156 539 135 534 133 547 c 0
 137 633 170 682 231 682 c 0xd6
 261 682 284 673 329 642 c 0
 360 621 376 615 388 615 c 0
 409 615 420 627 428 681 c 0
 428 685 435 687 441 687 c 0
 447 688 453 685 453 681 c 0
 455 675 455 671 455 668 c 0
EndSplineSet
EndChar

StartChar: oacute
Encoding: 151 243 101
Width: 577
Flags: MW
HStem: -14 38<247.5 356.5 247.5 360.5> 450 40 712 20G<311 399 399 399>
VStem: 40 85<182 297 182 306> 451 85<181.5 295.5>
LayerCount: 2
Fore
SplineSet
289 -14 m 0
 145 -14 40 94 40 232 c 0
 40 380 143 490 290 490 c 0
 435 490 536 383 536 245 c 0
 536 97 432 -14 289 -14 c 0
282 450 m 0
 186 452 125 348 125 246 c 0
 125 118 196 24 299 24 c 0
 414 24 451 134 451 229 c 0
 451 362 390 449 282 450 c 0
413 723 m 0
 413 721 412 719 412 718 c 2
 269 546 l 2
 263 539 238 539 243 555 c 2
 292 719 l 2
 296 727 304 732 311 732 c 2
 399 732 l 2
 406 733 415 731 413 723 c 0
EndSplineSet
EndChar

StartChar: ograve
Encoding: 152 242 102
Width: 577
Flags: W
HStem: -14 38<247.5 356.5 247.5 360.5> 450 40 712 20G<158 164> 713 20G<241 245.5>
VStem: 40 85<182 297 182 306> 451 85<181.5 295.5>
LayerCount: 2
Fore
SplineSet
289 -14 m 0xdc
 145 -14 40 94 40 232 c 0
 40 380 143 490 290 490 c 0
 435 490 536 383 536 245 c 0
 536 97 432 -14 289 -14 c 0xdc
282 450 m 0
 186 452 125 348 125 246 c 0
 125 118 196 24 299 24 c 0
 414 24 451 134 451 229 c 0
 451 362 390 449 282 450 c 0
309 562 m 0
 310 549 292 548 284 555 c 0
 252 597 193 666 150 713 c 0xdc
 144 719 152 732 164 732 c 2xec
 241 733 l 2
 250 733 255 733 260 725 c 0
 277 680 299 605 309 562 c 0
EndSplineSet
EndChar

StartChar: ocircumflex
Encoding: 153 244 103
Width: 577
Flags: MW
HStem: -14 38<247.5 356.5 247.5 360.5> 450 40
VStem: 40 85<182 297 182 306> 451 85<181.5 295.5>
LayerCount: 2
Fore
SplineSet
289 -14 m 0
 145 -14 40 94 40 232 c 0
 40 380 143 490 290 490 c 0
 435 490 536 383 536 245 c 0
 536 97 432 -14 289 -14 c 0
282 450 m 0
 186 452 125 348 125 246 c 0
 125 118 196 24 299 24 c 0
 414 24 451 134 451 229 c 0
 451 362 390 449 282 450 c 0
421 561 m 2
 423 556 426 549 420 548 c 0
 413 546 403 547 400 550 c 2
 278 654 l 1
 163 550 l 2
 155 543 135 548 139 556 c 2
 228 712 l 2
 231 717 236 720 241 722 c 0
 248 723 303 724 316 723 c 0
 326 722 328 721 333 713 c 2
 421 561 l 2
EndSplineSet
EndChar

StartChar: odieresis
Encoding: 154 246 104
Width: 577
Flags: MW
HStem: -14 38<247.5 356.5 247.5 360.5> 450 40 556 120<180.5 213.5 357.5 391>
VStem: 40 85<182 297 182 306> 137 120<599 632.5> 314 121<599.5 632.5> 451 85<181.5 295.5>
LayerCount: 2
Fore
SplineSet
289 -14 m 0
 145 -14 40 94 40 232 c 0
 40 380 143 490 290 490 c 0
 435 490 536 383 536 245 c 0
 536 97 432 -14 289 -14 c 0
282 450 m 0
 186 452 125 348 125 246 c 0
 125 118 196 24 299 24 c 0
 414 24 451 134 451 229 c 0
 451 362 390 449 282 450 c 0
435 616 m 0
 435 583 408 556 374 556 c 0
 341 556 314 583 314 616 c 0
 314 649 341 676 374 676 c 0
 408 676 435 649 435 616 c 0
257 616 m 0
 257 582 230 556 197 556 c 0
 164 556 137 582 137 616 c 0
 137 649 164 676 197 676 c 0
 230 676 257 649 257 616 c 0
EndSplineSet
EndChar

StartChar: otilde
Encoding: 155 245 105
Width: 577
Flags: W
HStem: -14 38<247.5 356.5 247.5 360.5> 450 40 544 71<367 370> 612 70<185.5 191.5> 667 20G<423 426>
VStem: 40 85<182 297 182 306> 451 85<181.5 295.5>
LayerCount: 2
Fore
SplineSet
289 -14 m 0xee
 145 -14 40 94 40 232 c 0
 40 380 143 490 290 490 c 0
 435 490 536 383 536 245 c 0
 536 97 432 -14 289 -14 c 0xee
282 450 m 0
 186 452 125 348 125 246 c 0
 125 118 196 24 299 24 c 0
 414 24 451 134 451 229 c 0
 451 362 390 449 282 450 c 0
440 668 m 0
 440 597 399 544 341 544 c 0xee
 314 544 282 557 244 583 c 0
 207 609 198 612 185 612 c 0
 166 612 156 601 148 565 c 0
 148 561 146 557 145 547 c 0
 141 539 120 534 118 547 c 0
 122 633 155 682 216 682 c 0xd6
 246 682 269 673 314 642 c 0
 345 621 361 615 373 615 c 0
 394 615 405 627 413 681 c 0
 413 685 420 687 426 687 c 0
 432 688 438 685 438 681 c 0
 440 675 440 671 440 668 c 0
EndSplineSet
EndChar

StartChar: uacute
Encoding: 156 250 106
Width: 594
Flags: W
HStem: -14 58<279 322> 440 38 712 20G<336 424 424 424>
VStem: 91 78<217 228 228 374> 364 124 437 51<224 354 354 357>
LayerCount: 2
Fore
SplineSet
546 442 m 1xf8
 493 440 488 436 488 357 c 2
 488 224 l 2
 488 183 490 145 475 106 c 0
 465 82 449 59 429 41 c 0
 388 3 356 -14 288 -14 c 0
 192 -14 139 26 108 97 c 0
 93 130 91 148 91 217 c 2
 91 375 l 1
 91 404 l 2
 91 440 78 439 64 439 c 0
 56 439 47 439 40 441 c 0
 33 442 27 447 26 460 c 0
 25 473 34 478 47 477 c 0
 95 475 178 475 223 478 c 0
 233 477 235 465 235 459 c 0
 234 444 231 442 216 442 c 0
 178 442 171 435 170 399 c 2
 169 374 l 1
 169 228 l 2
 169 175 167 125 209 84 c 0
 236 58 255 44 303 44 c 0
 375 44 408 75 426 126 c 0
 437 158 437 190 437 224 c 2
 437 354 l 2
 437 372 437 386 437 397 c 0xf4
 434 433 422 438 391 440 c 0
 376 441 364 443 364 461 c 0
 364 475 370 478 383 477 c 0
 428 475 507 476 545 478 c 0
 553 478 557 468 557 461 c 0
 557 456 555 447 546 442 c 1xf8
438 723 m 0
 438 721 437 719 437 718 c 2
 294 546 l 2
 288 539 263 539 268 555 c 2
 317 719 l 2
 321 727 329 732 336 732 c 2
 424 732 l 2
 431 733 440 731 438 723 c 0
EndSplineSet
EndChar

StartChar: ugrave
Encoding: 157 249 107
Width: 594
Flags: W
HStem: -14 58<279 322> 440 38 712 20G<189 195> 713 20G<272 276.5>
VStem: 91 78<217 228 228 374> 364 124 437 51<224 354 354 357>
LayerCount: 2
Fore
SplineSet
546 442 m 1xdc
 493 440 488 436 488 357 c 2
 488 224 l 2
 488 183 490 145 475 106 c 0
 465 82 449 59 429 41 c 0
 388 3 356 -14 288 -14 c 0
 192 -14 139 26 108 97 c 0
 93 130 91 148 91 217 c 2
 91 375 l 1
 91 404 l 2
 91 440 78 439 64 439 c 0
 56 439 47 439 40 441 c 0
 33 442 27 447 26 460 c 0
 25 473 34 478 47 477 c 0
 95 475 178 475 223 478 c 0
 233 477 235 465 235 459 c 0
 234 444 231 442 216 442 c 0
 178 442 171 435 170 399 c 2
 169 374 l 1
 169 228 l 2
 169 175 167 125 209 84 c 0
 236 58 255 44 303 44 c 0
 375 44 408 75 426 126 c 0
 437 158 437 190 437 224 c 2
 437 354 l 2
 437 372 437 386 437 397 c 0xda
 434 433 422 438 391 440 c 0
 376 441 364 443 364 461 c 0
 364 475 370 478 383 477 c 0
 428 475 507 476 545 478 c 0
 553 478 557 468 557 461 c 0
 557 456 555 447 546 442 c 1xdc
340 562 m 0
 341 549 323 548 315 555 c 0
 283 597 224 666 181 713 c 0xdc
 175 719 183 732 195 732 c 2xec
 272 733 l 2
 281 733 286 733 291 725 c 0
 308 680 330 605 340 562 c 0
EndSplineSet
EndChar

StartChar: ucircumflex
Encoding: 158 251 108
Width: 594
Flags: W
HStem: -14 58<279 322> 440 38
VStem: 91 78<217 228 228 374> 364 124 437 51<224 354 354 357>
LayerCount: 2
Fore
SplineSet
546 442 m 1xf0
 493 440 488 436 488 357 c 2
 488 224 l 2
 488 183 490 145 475 106 c 0
 465 82 449 59 429 41 c 0
 388 3 356 -14 288 -14 c 0
 192 -14 139 26 108 97 c 0
 93 130 91 148 91 217 c 2
 91 375 l 1
 91 404 l 2
 91 440 78 439 64 439 c 0
 56 439 47 439 40 441 c 0
 33 442 27 447 26 460 c 0
 25 473 34 478 47 477 c 0
 95 475 178 475 223 478 c 0
 233 477 235 465 235 459 c 0
 234 444 231 442 216 442 c 0
 178 442 171 435 170 399 c 2
 169 374 l 1
 169 228 l 2
 169 175 167 125 209 84 c 0
 236 58 255 44 303 44 c 0
 375 44 408 75 426 126 c 0
 437 158 437 190 437 224 c 2
 437 354 l 2
 437 372 437 386 437 397 c 0xe8
 434 433 422 438 391 440 c 0
 376 441 364 443 364 461 c 0
 364 475 370 478 383 477 c 0
 428 475 507 476 545 478 c 0
 553 478 557 468 557 461 c 0
 557 456 555 447 546 442 c 1xf0
433 561 m 2
 435 556 438 549 432 548 c 0
 425 546 415 547 412 550 c 2
 290 654 l 1
 175 550 l 2
 167 543 147 548 151 556 c 2
 240 712 l 2
 243 717 248 720 253 722 c 0
 260 723 315 724 328 723 c 0
 338 722 340 721 345 713 c 2
 433 561 l 2
EndSplineSet
EndChar

StartChar: udieresis
Encoding: 159 252 109
Width: 594
Flags: W
HStem: -14 58<279 322> 440 38 556 120<188.5 221.5 365.5 399>
VStem: 91 78<217 228 228 374> 145 120<599 632.5> 322 121<599.5 632.5> 364 124 437 51<224 354 354 357>
LayerCount: 2
Fore
SplineSet
546 442 m 1xf2
 493 440 488 436 488 357 c 2
 488 224 l 2
 488 183 490 145 475 106 c 0
 465 82 449 59 429 41 c 0
 388 3 356 -14 288 -14 c 0
 192 -14 139 26 108 97 c 0
 93 130 91 148 91 217 c 2
 91 375 l 1
 91 404 l 2
 91 440 78 439 64 439 c 0
 56 439 47 439 40 441 c 0
 33 442 27 447 26 460 c 0
 25 473 34 478 47 477 c 0
 95 475 178 475 223 478 c 0
 233 477 235 465 235 459 c 0
 234 444 231 442 216 442 c 0
 178 442 171 435 170 399 c 2
 169 374 l 1
 169 228 l 2
 169 175 167 125 209 84 c 0
 236 58 255 44 303 44 c 0
 375 44 408 75 426 126 c 0
 437 158 437 190 437 224 c 2
 437 354 l 2
 437 372 437 386 437 397 c 0xf1
 434 433 422 438 391 440 c 0
 376 441 364 443 364 461 c 0
 364 475 370 478 383 477 c 0
 428 475 507 476 545 478 c 0
 553 478 557 468 557 461 c 0
 557 456 555 447 546 442 c 1xf2
443 616 m 0xec
 443 583 416 556 382 556 c 0
 349 556 322 583 322 616 c 0
 322 649 349 676 382 676 c 0
 416 676 443 649 443 616 c 0xec
265 616 m 0
 265 582 238 556 205 556 c 0
 172 556 145 582 145 616 c 0
 145 649 172 676 205 676 c 0
 238 676 265 649 265 616 c 0
EndSplineSet
EndChar

StartChar: dagger
Encoding: 160 8224 110
Width: 422
Flags: W
LayerCount: 2
Fore
SplineSet
368 273 m 0
 355 273 336 276 312 280 c 0
 288 283 269 287 242 290 c 0
 233 291 225 285 226 276 c 0
 235 157 245 -37 248 -141 c 0
 252 -157 248 -178 225 -177 c 0
 207 -176 198 -180 179 -177 c 0
 156 -172 159 -155 159 -142 c 0
 164 -39 174 167 182 270 c 0
 183 280 181 292 170 291 c 0
 126 285 90 282 50 274 c 0
 47 273 43 273 40 273 c 0
 24 273 22 288 22 304 c 0
 20 313 21 326 22 332 c 0
 22 349 27 358 41 358 c 0
 46 358 49 357 55 357 c 2
 167 340 l 2
 181 338 182 342 181 350 c 0
 175 404 169 451 163 506 c 0
 161 522 173 531 190 531 c 2
 218 531 l 2
 234 531 246 523 246 509 c 0
 246 453 234 407 227 352 c 0
 226 344 236 340 245 341 c 0
 259 344 277 346 304 351 c 0
 331 356 353 359 363 359 c 0
 380 359 387 348 387 332 c 2
 387 304 l 2
 387 289 385 273 368 273 c 0
EndSplineSet
EndChar

StartChar: degree
Encoding: 161 176 111
Width: 332
Flags: W
HStem: 298 35<148 190 148 205.5> 632 28<146 184.5>
VStem: 35 67<564 593> 225 60<563 592> 239 68<374 397>
LayerCount: 2
Fore
SplineSet
239 491 m 0xe8
 283 469 307 443 307 405 c 0xe8
 307 343 243 298 168 298 c 0
 96 298 29 332 29 388 c 0
 29 430 47 455 86 475 c 0
 98 480 90 486 84 489 c 0
 49 509 35 534 35 566 c 0
 35 620 100 660 167 660 c 0
 234 660 285 625 285 575 c 0xf0
 285 545 270 521 236 503 c 0
 231 500 230 496 239 491 c 0xe8
166 632 m 0
 126 632 102 608 102 581 c 0
 102 547 139 534 180 520 c 0
 186 518 190 519 195 522 c 0
 218 537 225 551 225 575 c 0xf0
 225 609 203 632 166 632 c 0
222 426 m 0
 209 436 187 449 157 458 c 0
 147 461 144 461 140 459 c 0
 107 441 96 422 96 395 c 0
 96 355 127 333 169 333 c 0
 211 333 239 355 239 390 c 0xe8
 239 404 233 417 222 426 c 0
EndSplineSet
EndChar

StartChar: cent
Encoding: 162 162 112
Width: 349
Flags: W
HStem: -1 21G 0 21G<211.5 222> 91 51 338 20G<241 249 249 249>
VStem: 200 63
LayerCount: 2
Fore
SplineSet
324 104 m 0x78
 322 97 316 94 311 94 c 2
 275 92 l 2
 274 92 264 87 264 80 c 0
 265 54 266 35 264 15 c 0
 264 10 261 0 248 -1 c 0xb8
 243 0 227 0 217 0 c 0
 206 0 200 7 200 15 c 0
 199 34 199 58 200 79 c 0
 198 85 193 91 187 92 c 0
 151 90 94 91 47 91 c 0
 36 91 33 98 33 104 c 0
 33 118 33 122 42 134 c 0
 72 172 139 248 217 344 c 0
 223 351 229 358 241 358 c 2
 249 358 l 2
 263 355 261 350 263 339 c 2
 263 154 l 2
 264 150 267 143 270 142 c 2
 310 143 l 2
 317 142 322 143 325 133 c 0
 328 125 324 112 324 104 c 0x78
202 256 m 0
 200 263 198 268 191 260 c 0
 154 213 122 175 105 151 c 0
 100 146 101 140 115 140 c 0
 141 140 158 140 191 141 c 0
 194 141 199 145 200 150 c 0
 201 180 203 219 202 256 c 0
EndSplineSet
EndChar

StartChar: sterling
Encoding: 163 163 113
Width: 349
Flags: W
HStem: -8 31<158.5 192 158.5 192.5> 167 193<187.5 211> 311 49<161.5 181.5>
VStem: 223 65<275.5 280> 244 73
LayerCount: 2
Fore
SplineSet
145 -8 m 0xc8
 91 -8 30 15 30 44 c 0
 30 57 50 77 66 77 c 0xd0
 83 77 96 63 108 52 c 0
 125 36 149 23 168 23 c 0
 216 23 243 62 244 101 c 0
 245 141 229 167 193 167 c 0xc8
 182 167 163 164 149 157 c 0
 143 153 140 165 136 173 c 0
 131 180 137 190 141 191 c 0
 162 199 178 202 195 216 c 0
 218 235 223 256 223 269 c 0
 223 291 198 311 165 311 c 0
 135 311 110 299 89 269 c 0
 82 260 49 269 57 283 c 0
 84 331 134 360 189 360 c 0
 243 360 288 327 288 287 c 0xb0
 288 264 280 236 256 216 c 0
 247 209 255 204 260 201 c 0
 288 186 317 156 317 115 c 0
 317 44 240 -8 145 -8 c 0xc8
EndSplineSet
EndChar

StartChar: section
Encoding: 164 167 114
Width: 349
Flags: MW
HStem: -8 37<161 199 161 218>
VStem: 48 73<98.5 126 98.5 170.5>
LayerCount: 2
Fore
SplineSet
179 -8 m 0
 100 -8 48 50 48 134 c 0
 48 207 83 320 223 353 c 0
 229 355 240 356 243 349 c 2
 249 336 l 2
 253 327 247 321 241 319 c 0
 183 299 147 268 133 223 c 0
 129 211 133 209 149 214 c 0
 162 219 176 219 189 219 c 0
 261 219 302 167 302 108 c 0
 302 44 257 -8 179 -8 c 0
186 182 m 0
 162 185 139 177 128 159 c 0
 122 150 121 133 121 119 c 0
 121 78 140 29 182 29 c 0
 216 29 240 58 235 103 c 0
 231 144 219 179 186 182 c 0
EndSplineSet
EndChar

StartChar: bullet
Encoding: 165 8226 115
Width: 332
Flags: W
HStem: -7 35<149 191 149 206.5> 328 28<147 185.5>
VStem: 36 67<260 288.5> 226 60<258 287> 240 68<69.5 93>
LayerCount: 2
Fore
SplineSet
240 187 m 0xe8
 284 165 308 138 308 100 c 0xe8
 308 39 244 -7 169 -7 c 0
 97 -7 30 28 30 83 c 0
 30 126 48 151 87 170 c 0
 99 176 91 182 85 185 c 0
 50 205 36 229 36 261 c 0
 36 316 101 356 168 356 c 0
 235 356 286 321 286 271 c 0xf0
 286 240 271 217 237 199 c 0
 232 196 231 192 240 187 c 0xe8
167 328 m 0
 127 328 103 304 103 277 c 0
 103 243 140 230 181 216 c 0
 187 214 191 214 196 217 c 0
 219 233 226 246 226 270 c 0xf0
 226 304 204 328 167 328 c 0
223 122 m 0
 210 132 188 144 158 154 c 0
 148 157 145 157 141 154 c 0
 108 137 97 117 97 91 c 0
 97 51 128 28 170 28 c 0
 212 28 240 50 240 86 c 0xe8
 240 100 234 113 223 122 c 0
EndSplineSet
EndChar

StartChar: paragraph
Encoding: 166 182 116
Width: 349
Flags: MW
HStem: 275 78
LayerCount: 2
Fore
SplineSet
310 329 m 1
 181 8 l 2
 178 3 171 -3 160 -2 c 0
 154 -1 119 7 128 28 c 2
 227 259 l 2
 230 267 227 274 215 275 c 0
 147 277 116 275 93 274 c 0
 90 274 80 274 77 272 c 0
 69 265 70 234 54 234 c 0
 50 234 44 232 37 234 c 0
 32 236 28 241 28 244 c 2
 31 333 l 2
 32 342 48 354 59 353 c 0
 116 357 204 355 285 353 c 0
 306 352 313 349 310 329 c 1
EndSplineSet
EndChar

StartChar: registered
Encoding: 168 174 117
Width: 510
Flags: W
LayerCount: 2
Fore
SplineSet
252 325 m 0
 149 325 67 409 67 513 c 0
 67 616 149 700 252 700 c 0
 355 700 438 616 438 513 c 0
 438 409 355 325 252 325 c 0
252 674 m 0
 163 674 92 602 92 513 c 0
 92 423 163 351 252 351 c 0
 341 351 413 423 413 513 c 0
 413 602 341 674 252 674 c 0
350 403 m 0
 342 403 322 402 311 403 c 0
 307 403 305 405 303 407 c 2
 234 503 l 1
 226 503 l 2
 223 503 223 500 223 496 c 2
 223 450 l 1
 223 431 l 2
 223 426 226 422 247 421 c 0
 251 421 252 419 252 415 c 2
 252 410 l 2
 252 406 247 403 244 403 c 0
 219 405 182 405 161 403 c 0
 160 403 154 404 154 409 c 2
 154 416 l 2
 154 420 158 421 161 421 c 0
 177 422 179 424 179 450 c 2
 179 579 l 2
 179 605 177 607 163 608 c 0
 160 608 156 609 156 614 c 2
 156 618 l 2
 156 619 156 620 156 620 c 2
 156 625 161 625 165 625 c 0
 186 624 232 625 255 625 c 0
 299 625 331 602 331 566 c 0
 331 538 314 520 282 509 c 0
 281 509 280 508 282 506 c 2
 328 441 l 2
 338 426 343 422 353 421 c 0
 356 421 358 416 358 416 c 1
 358 409 l 2
 358 403 354 403 350 403 c 0
239 605 m 0
 233 605 230 605 223 603 c 1
 223 529 l 2
 223 527 223 522 226 522 c 0
 264 522 283 538 283 563 c 0
 283 587 265 605 239 605 c 0
EndSplineSet
EndChar

StartChar: copyright
Encoding: 169 169 118
Width: 528
Flags: W
LayerCount: 2
Fore
SplineSet
269 8 m 0
 148 8 49 107 49 229 c 0
 49 351 148 450 269 450 c 0
 390 450 489 352 489 229 c 0
 489 107 390 8 269 8 c 0
269 417 m 0
 166 417 83 333 83 229 c 0
 83 125 166 41 269 41 c 0
 372 41 455 125 455 229 c 0
 455 333 372 417 269 417 c 0
270 93 m 0
 192 93 131 151 131 227 c 0
 131 308 196 368 280 368 c 0
 300 368 306 366 335 357 c 0
 340 355 342 354 343 354 c 0
 347 354 348 356 352 368 c 1
 366 368 l 2
 371 368 376 365 376 358 c 2
 381 291 l 2
 382 284 383 273 373 273 c 2
 364 273 l 2
 355 273 356 281 353 286 c 0
 339 323 314 340 277 340 c 0
 227 340 193 302 193 236 c 0
 193 162 226 125 280 125 c 0
 313 125 339 137 360 165 c 0
 367 174 371 171 379 167 c 0
 386 163 389 159 383 151 c 0
 354 112 318 93 270 93 c 0
EndSplineSet
EndChar

StartChar: trademark
Encoding: 170 8482 119
Width: 349
Flags: MW
HStem: -1 63 308 54<188 189.5>
VStem: 235 73<237 263.5>
LayerCount: 2
Fore
SplineSet
301 13 m 0
 295 0 283 -1 269 -1 c 0
 216 -1 146 3 54 -1 c 0
 49 -1 36 1 32 7 c 2
 30 12 l 2
 30 18 34 31 37 34 c 0
 66 59 101 87 131 111 c 0
 161 135 187 156 197 166 c 0
 218 189 235 213 235 245 c 0
 235 282 212 308 167 308 c 0
 125 308 91 280 74 241 c 0
 71 233 61 232 56 232 c 0
 46 232 44 239 45 244 c 0
 57 309 111 355 188 362 c 1
 264 362 308 311 308 253 c 0
 308 221 286 193 264 172 c 0
 241 149 222 133 203 119 c 0
 184 104 165 91 141 75 c 0
 131 67 130 63 150 63 c 0
 182 61 203 63 224 62 c 0
 272 59 281 78 288 106 c 0
 289 110 292 116 300 117 c 2
 310 116 l 2
 317 116 318 106 317 98 c 0
 316 83 306 21 301 13 c 0
EndSplineSet
EndChar

StartChar: acute
Encoding: 171 180 120
Width: 349
Flags: MW
HStem: 712 20G<186 274 274 274>
LayerCount: 2
Fore
SplineSet
288 723 m 0
 288 721 287 719 287 718 c 2
 144 546 l 2
 138 539 113 539 118 555 c 2
 167 719 l 2
 171 727 179 732 186 732 c 2
 274 732 l 2
 281 733 290 731 288 723 c 0
EndSplineSet
EndChar

StartChar: dieresis
Encoding: 172 168 121
Width: 348
Flags: MW
HStem: 556 120<69.5 102.5 246.5 280>
VStem: 26 120<599 632.5> 203 121<599.5 632.5>
LayerCount: 2
Fore
SplineSet
324 616 m 0
 324 583 297 556 263 556 c 0
 230 556 203 583 203 616 c 0
 203 649 230 676 263 676 c 0
 297 676 324 649 324 616 c 0
146 616 m 0
 146 582 119 556 86 556 c 0
 53 556 26 582 26 616 c 0
 26 649 53 676 86 676 c 0
 119 676 146 649 146 616 c 0
EndSplineSet
EndChar

StartChar: infinity
Encoding: 176 8734 122
Width: 349
Flags: MW
HStem: -6 33<153.5 181.5 153.5 187.5> 79 85<62 174.5> 164 62<158 174.5> 226 51<105 118 118 208.5> 334 20G<268 278 278 278>
VStem: 230 67<79.5 123>
LayerCount: 2
Fore
SplineSet
141 -6 m 0xfc
 87 -6 38 20 38 46 c 0
 38 60 54 79 70 79 c 0
 94 79 113 49 131 36 c 0
 139 31 148 27 159 27 c 0
 204 27 230 54 230 100 c 0
 230 146 202 164 147 164 c 0
 123 165 106 157 83 147 c 0
 79 144 74 143 69 146 c 0
 62 150 61 153 61 162 c 0
 66 210 69 288 67 329 c 1
 71 347 91 344 103 343 c 0
 125 342 179 341 214 342 c 0
 223 343 238 342 244 342 c 0
 250 343 255 348 258 350 c 0
 262 353 265 354 268 354 c 2
 278 354 l 2
 284 351 284 344 283 336 c 2
 277 289 l 2
 273 281 273 275 258 275 c 2
 118 277 l 2
 113 276 108 271 106 265 c 2
 105 226 l 2
 105 225 106 213 112 215 c 0
 127 219 148 226 168 226 c 0
 249 226 297 179 297 114 c 0
 297 45 234 -6 141 -6 c 0xfc
EndSplineSet
EndChar

StartChar: product
Encoding: 184 8719 123
Width: 403
Flags: W
LayerCount: 2
Fore
SplineSet
362 432 m 2
 339 432 l 2
 333 432 330 421 330 417 c 2
 330 -146 l 2
 330 -159 327 -162 313 -162 c 2
 301 -162 l 2
 295 -162 284 -160 284 -147 c 2
 285 417 l 2
 285 422 284 431 277 431 c 2
 225 431 l 2
 221 431 216 423 216 418 c 2
 217 -147 l 2
 217 -158 210 -162 201 -162 c 2
 185 -162 l 2
 172 -162 170 -156 170 -146 c 2
 170 169 l 2
 170 174 170 185 162 185 c 0
 85 186 42 211 16 259 c 0
 5 282 -1 306 -1 333 c 0
 -1 426 65 481 170 482 c 0
 214 482 322 480 361 483 c 0
 371 483 378 477 378 468 c 2
 378 445 l 2
 378 434 371 432 362 432 c 2
EndSplineSet
EndChar

StartChar: ordfeminine
Encoding: 187 170 124
Width: 341
Flags: MW
HStem: 138 36<145.5 161> 329 39<147 195.5>
VStem: 37 71<232.5 276.5 232.5 283.5>
LayerCount: 2
Fore
SplineSet
120 -5 m 0
 93 -12 81 22 103 29 c 0
 146 44 168 67 177 76 c 0
 192 90 204 109 213 130 c 0
 216 136 218 149 205 144 c 0
 192 139 166 138 156 138 c 0
 85 138 37 191 37 251 c 0
 37 316 90 368 167 368 c 0
 257 368 306 307 306 222 c 0
 306 133 251 27 120 -5 c 0
166 329 m 0
 128 329 108 295 108 258 c 0
 108 207 126 174 165 174 c 0
 178 174 203 176 218 185 c 0
 227 190 233 199 233 203 c 0
 238 247 225 329 166 329 c 0
EndSplineSet
EndChar

StartChar: ordmasculine
Encoding: 188 186 125
Width: 392
Flags: MW
HStem: -9 40<170.5 226 170.5 240.5> 318 36<161 231.5>
VStem: 50 72<133.5 197.5 133.5 222> 271 72<128.5 197>
LayerCount: 2
Fore
SplineSet
197 -9 m 0
 110 -9 50 74 50 173 c 0
 50 271 110 354 197 354 c 0
 283 354 343 271 343 173 c 0
 343 74 284 -9 197 -9 c 0
197 318 m 0
 125 318 122 222 122 173 c 0
 122 94 144 31 197 31 c 0
 255 31 271 84 271 173 c 0
 271 221 266 318 197 318 c 0
EndSplineSet
EndChar

StartChar: ae
Encoding: 190 230 126
Width: 673
Flags: W
HStem: -4 21G<-40 112> -3 42<428 503 428 592> 183 43<155.5 289 189 288> 224 44<385 388> 438 42<387.5 392 392 507 507 525>
VStem: 301 77<101 173 173 176 277 279 279 415 414 423 414 415>
LayerCount: 2
Fore
SplineSet
616 13 m 0x5c
 615 -1 600 -3 592 -3 c 0
 530 -1 327 -3 218 -3 c 0
 214 -3 203 -2 204 9 c 2
 204 18 l 2
 204 29 217 32 227 32 c 0
 264 31 298 28 300 79 c 2
 301 101 l 1
 301 173 l 2
 301 179 293 183 288 183 c 2
 159 183 l 2x6c
 152 183 146 181 143 176 c 2
 85 80 l 2
 69 54 69 48 69 44 c 0
 69 36 74 27 111 27 c 0
 125 27 124 17 124 7 c 0
 125 -1 121 -4 112 -4 c 0
 74 -4 -3 -2 -40 -4 c 0
 -51 -5 -52 7 -53 15 c 0
 -55 25 -48 27 -39 28 c 0
 -8 31 6 43 37 94 c 0
 101 200 165 306 229 413 c 0
 247 442 240 446 203 446 c 0
 194 446 190 453 191 461 c 2
 193 471 l 2
 194 477 202 481 210 480 c 0
 302 478 510 482 569 480 c 0
 579 480 590 475 590 468 c 0
 594 445 597 398 597 372 c 0
 597 367 596 363 590 363 c 2
 578 362 l 2
 569 361 566 370 565 376 c 2
 564 382 l 2
 554 429 542 438 525 438 c 2
 507 438 l 1
 392 438 l 2
 383 438 378 433 378 427 c 2
 378 279 l 2
 378 275 380 268 390 268 c 2x9c
 474 269 l 2
 484 270 508 269 516 275 c 0
 523 280 527 289 531 313 c 0
 533 320 535 324 543 324 c 0
 546 324 550 324 553 324 c 0
 559 324 563 318 563 310 c 0
 563 254 561 236 564 181 c 0
 564 171 563 167 555 167 c 0
 550 165 546 165 542 166 c 0
 536 166 533 171 532 178 c 0
 527 223 520 227 476 226 c 2x6c
 388 224 l 2
 381 224 378 218 378 209 c 2
 378 89 l 2
 378 40 386 39 428 39 c 0
 449 37 476 38 503 39 c 0
 549 41 557 43 570 60 c 0
 581 74 589 90 594 112 c 0
 597 120 595 124 606 124 c 2
 615 124 l 2
 626 124 626 114 626 107 c 0
 623 46 618 33 616 13 c 0x5c
301 415 m 1
 301 414 l 2
 301 432 296 431 290 422 c 0
 257 372 219 306 181 239 c 0
 177 233 184 226 189 226 c 2
 289 226 l 2
 297 226 301 236 301 242 c 2
 301 415 l 1
EndSplineSet
EndChar

StartChar: oslash
Encoding: 191 248 127
Width: 577
Flags: MW
HStem: -14 38<273.5 356.5 273.5 360.5> 450 40
VStem: 40 85<222.5 297 222.5 306> 451 85<181.5 254.5>
LayerCount: 2
Fore
SplineSet
521 467 m 1
 472 413 l 1
 512 370 536 311 536 245 c 0
 536 97 432 -14 289 -14 c 0
 228 -14 174 5 132 38 c 1
 80 -19 l 1
 61 -30 41 -3 49 10 c 2
 101 67 l 1
 62 111 40 168 40 232 c 0
 40 380 143 490 290 490 c 0
 348 490 400 472 440 442 c 1
 486 493 l 2
 499 508 527 482 521 467 c 1
451 229 m 0
 451 280 442 325 424 360 c 1
 175 85 l 1
 205 46 248 24 299 24 c 0
 414 24 451 134 451 229 c 0
282 450 m 0
 186 452 125 348 125 246 c 0
 125 199 134 157 151 123 c 1
 400 398 l 1
 371 431 331 449 282 450 c 0
EndSplineSet
EndChar

StartChar: questiondown
Encoding: 192 191 128
Width: 371
Flags: W
HStem: -199 98<251 262> 372 112<200 233.5>
VStem: 50 36<-48.5 4.5 -48.5 26> 158 118<412.5 444.5> 235 41
LayerCount: 2
Fore
SplineSet
217 372 m 0xf0
 183 372 158 396 158 429 c 0
 158 460 183 484 217 484 c 0
 250 484 276 461 276 429 c 0
 276 396 250 372 217 372 c 0xf0
234 -199 m 0
 125 -199 50 -120 50 -6 c 0
 50 58 74 109 121 142 c 0
 144 158 155 163 193 177 c 0
 225 189 235 201 235 220 c 0xe8
 235 240 231 251 196 291 c 0
 188 300 196 305 198 306 c 0
 207 310 224 307 229 299 c 0
 265 255 281 221 281 187 c 0
 281 138 258 113 201 91 c 0
 111 57 86 31 86 -22 c 0
 86 -75 122 -108 186 -108 c 0
 215 -108 238 -101 264 -101 c 0
 304 -101 330 -114 330 -144 c 0
 330 -182 290 -199 234 -199 c 0
EndSplineSet
EndChar

StartChar: exclamdown
Encoding: 193 161 129
Width: 303
Flags: MW
HStem: 336 20G<166 181 181 186>
VStem: 131 65<80 252 252 252>
LayerCount: 2
Fore
SplineSet
251 12 m 0
 250 3 246 0 238 1 c 0
 211 2 107 3 82 1 c 0
 77 0 71 4 71 11 c 0
 70 14 69 20 71 26 c 0
 76 32 79 36 90 36 c 0
 97 36 106 37 113 39 c 0
 130 39 131 66 131 80 c 2
 131 252 l 2
 130 260 126 271 119 267 c 0
 100 256 87 252 72 250 c 0
 68 249 65 252 61 255 c 2
 56 264 l 2
 56 268 57 273 60 275 c 0
 106 304 132 321 149 347 c 0
 150 350 158 355 166 356 c 2
 181 356 l 2
 191 356 194 347 196 341 c 2
 196 74 l 2
 196 43 204 38 237 37 c 0
 246 37 249 32 251 24 c 0
 251 23 251 14 251 12 c 0
EndSplineSet
EndChar

StartChar: ellipsis
Encoding: 201 8230 130
Width: 1056
Flags: W
LayerCount: 2
Fore
SplineSet
879 -17 m 0
 844 -17 819 6 819 38 c 0
 819 72 844 94 879 94 c 0
 913 94 937 72 937 39 c 0
 937 6 914 -17 879 -17 c 0
535 -17 m 0
 500 -17 474 6 474 38 c 0
 474 72 499 94 534 94 c 0
 569 94 592 72 592 39 c 0
 592 6 570 -17 535 -17 c 0
188 -16 m 0
 153 -16 127 7 127 39 c 0
 127 73 152 95 187 95 c 0
 222 95 245 73 245 40 c 0
 245 8 223 -16 188 -16 c 0
EndSplineSet
EndChar

StartChar: oe
Encoding: 207 339 131
Width: 695
Flags: W
HStem: -14 38<247.5 302.5> -2 47 434 44<458.5 461 461 542> 450 40<282 298.5>
VStem: 40 85<182 297 182 306> 368 76<81.5 98 98 211 276.5 281 281 417>
LayerCount: 2
Fore
SplineSet
668 113 m 2x6c
 660 18 l 2
 656 3 649 -1 641 -3 c 0
 547 -2 462 -1 368 -2 c 1x6c
 343 -9 316 -14 289 -14 c 0
 145 -14 40 94 40 232 c 0
 40 380 143 490 290 490 c 0x9c
 319 490 346 486 371 478 c 1
 463 479 558 479 622 478 c 0
 629 476 633 475 636 467 c 0
 640 445 644 400 642 367 c 0
 642 360 628 358 618 360 c 0
 612 361 611 366 610 372 c 0
 602 429 594 433 542 434 c 2
 461 434 l 2
 456 434 444 432 444 417 c 2
 444 281 l 2
 444 272 452 270 459 270 c 0
 482 270 527 268 557 271 c 0
 578 273 580 279 584 311 c 0
 585 318 585 319 593 319 c 0
 603 321 617 318 616 311 c 0
 614 276 616 199 616 175 c 1
 612 169 587 162 585 176 c 0
 579 213 577 221 551 223 c 0
 526 225 475 223 462 223 c 0
 456 223 444 221 444 211 c 2
 444 98 l 2
 444 65 441 45 482 45 c 2
 544 45 l 2
 606 45 622 52 636 115 c 0
 639 126 637 125 646 127 c 0
 652 128 657 128 662 126 c 0
 669 123 669 120 668 113 c 2x6c
299 24 m 0x9c
 326 24 349 30 368 41 c 1
 368 425 l 1
 344 441 315 450 282 450 c 0
 186 452 125 348 125 246 c 0
 125 118 196 24 299 24 c 0x9c
EndSplineSet
EndChar

StartChar: endash
Encoding: 208 8211 132
Width: 480
Flags: W
LayerCount: 2
Fore
SplineSet
95 229 m 2
 82 228 81 265 95 274 c 1
 398 274 l 2
 414 274 414 229 398 229 c 2
 95 229 l 2
EndSplineSet
EndChar

StartChar: emdash
Encoding: 209 8212 133
Width: 435
Flags: W
LayerCount: 2
Fore
SplineSet
394 217 m 2
 391 206 380 201 371 199 c 0
 289 195 139 196 69 199 c 0
 62 200 46 207 44 220 c 2
 45 249 l 2
 46 262 68 269 74 268 c 0
 152 265 299 265 370 268 c 0
 376 269 391 263 392 255 c 2
 394 217 l 2
EndSplineSet
EndChar

StartChar: quotedblleft
Encoding: 210 8220 134
Width: 502
Flags: W
LayerCount: 2
Fore
SplineSet
380 453 m 0
 335 453 304 491 304 541 c 0
 304 606 352 666 423 693 c 0
 438 699 450 676 432 666 c 0
 382 639 357 603 357 570 c 0
 357 558 361 555 364 555 c 0
 368 555 373 556 377 557 c 0
 411 563 438 544 438 507 c 0
 438 476 413 453 380 453 c 0
157 452 m 0
 112 452 81 491 81 541 c 0
 81 606 128 666 200 693 c 0
 212 696 224 675 209 666 c 0
 159 637 133 603 133 570 c 0
 133 558 138 555 141 555 c 0
 145 555 150 556 154 557 c 0
 187 564 215 542 215 507 c 0
 215 476 189 452 157 452 c 0
EndSplineSet
EndChar

StartChar: quotedblright
Encoding: 211 8221 135
Width: 501
Flags: W
LayerCount: 2
Fore
SplineSet
321 453 m 0
 298 444 288 468 308 479 c 0
 359 508 384 543 384 575 c 0
 384 588 380 592 377 592 c 0
 369 592 360 587 350 587 c 0
 323 587 302 610 302 638 c 0
 302 670 329 693 361 693 c 0
 404 693 436 655 436 604 c 0
 436 541 392 480 321 453 c 0
95 451 m 0
 78 446 65 468 84 479 c 0
 136 508 161 543 161 575 c 0
 161 588 156 592 152 592 c 0
 146 592 136 587 127 587 c 0
 100 587 79 610 79 638 c 0
 79 670 105 695 138 695 c 0
 181 695 211 655 211 604 c 0
 211 541 165 479 95 451 c 0
EndSplineSet
EndChar

StartChar: quoteleft
Encoding: 212 8216 136
Width: 272
Flags: W
LayerCount: 2
Fore
SplineSet
146 452 m 0
 102 452 70 491 70 541 c 0
 70 606 117 668 188 695 c 0
 202 700 217 681 197 666 c 0
 148 638 122 603 122 570 c 0
 122 558 127 555 130 555 c 0
 138 556 147 559 155 559 c 0
 183 559 203 536 203 507 c 0
 203 476 178 452 146 452 c 0
EndSplineSet
EndChar

StartChar: quoteright
Encoding: 213 8217 137
Width: 272
Flags: W
LayerCount: 2
Fore
SplineSet
87 451 m 0
 79 446 63 471 77 479 c 0
 127 509 152 543 152 575 c 0
 152 588 147 592 145 592 c 0
 139 592 129 587 119 587 c 0
 91 587 71 610 71 638 c 0
 71 670 97 694 129 694 c 0
 173 694 203 655 203 604 c 0
 203 541 157 479 87 451 c 0
EndSplineSet
EndChar

StartChar: ydieresis
Encoding: 216 255 138
Width: 500
Flags: W
HStem: -3 39<160 162 162 163 327 347.5> 444 34<339 354.5> 556 120<155.5 188.5 332.5 366>
VStem: 112 120<599 632.5> 221 78<77 177 160.5 177> 289 121<599.5 632.5>
LayerCount: 2
Fore
SplineSet
486 445 m 0xe8
 462 444 448 435 433 420 c 0
 423 410 418 402 398 365 c 2
 299 186 l 1
 299 76 l 2
 299 42 308 36 346 36 c 0
 349 36 354 37 359 35 c 0
 375 33 373 -3 356 -3 c 0
 308 -1 223 0 162 -3 c 0
 147 -3 144 37 160 36 c 0
 166 36 170 39 176 37 c 0
 209 37 220 43 221 77 c 0
 222 110 221 144 221 177 c 1
 101 381 l 2
 71 431 57 442 24 444 c 0
 14 445 7 443 7 457 c 0
 5 486 26 479 48 477 c 0
 95 475 142 477 189 478 c 0
 201 478 207 480 211 468 c 0
 215 458 213 445 198 445 c 0
 163 445 162 436 162 434 c 0
 162 427 162 426 182 394 c 2
 268 249 l 1
 274 247 273 245 280 255 c 2
 350 385 l 2
 368 419 371 425 371 430 c 0
 371 438 370 444 339 444 c 0
 330 441 324 444 321 454 c 0
 317 464 319 478 333 478 c 0
 368 476 431 476 485 478 c 0
 495 478 497 467 497 461 c 0
 497 456 494 445 486 445 c 0xe8
410 616 m 0xf4
 410 583 383 556 349 556 c 0
 316 556 289 583 289 616 c 0
 289 649 316 676 349 676 c 0
 383 676 410 649 410 616 c 0xf4
232 616 m 0
 232 582 205 556 172 556 c 0
 139 556 112 582 112 616 c 0
 112 649 139 676 172 676 c 0
 205 676 232 649 232 616 c 0
EndSplineSet
EndChar

StartChar: fraction
Encoding: 218 8260 139
Width: 301
Flags: MW
HStem: 639 20G<165 180 180 184.5>
VStem: 130 65<383 555 555 555>
LayerCount: 2
Fore
SplineSet
250 315 m 0
 249 306 245 303 236 304 c 0
 210 305 106 307 81 304 c 0
 76 303 70 307 69 314 c 0
 69 317 68 323 70 329 c 0
 75 335 77 339 88 339 c 0
 95 339 105 340 111 342 c 0
 129 342 130 369 130 383 c 2
 130 555 l 2
 129 563 125 574 118 570 c 0
 99 559 86 555 71 553 c 0
 67 552 63 555 59 559 c 2
 55 568 l 2
 55 571 56 576 59 578 c 0
 105 607 131 624 147 650 c 0
 149 653 157 659 165 659 c 2
 180 659 l 2
 189 659 193 650 195 644 c 2
 195 377 l 2
 195 346 203 341 236 340 c 0
 245 340 248 335 250 327 c 0
 250 326 250 317 250 315 c 0
EndSplineSet
EndChar

StartChar: Euro
Encoding: 219 8364 140
Width: 349
Flags: MW
HStem: 306 63 615 54<187 188.5>
VStem: 234 73<544 570.5>
LayerCount: 2
Fore
SplineSet
300 320 m 0
 294 307 282 306 268 306 c 0
 215 307 145 310 53 306 c 0
 48 306 35 308 31 315 c 2
 29 320 l 2
 29 325 33 338 36 342 c 0
 65 366 100 394 130 418 c 0
 160 443 186 463 196 473 c 0
 217 496 234 520 234 552 c 0
 234 589 211 615 166 615 c 0
 124 615 90 588 73 548 c 0
 70 540 60 539 55 539 c 0
 45 539 43 546 44 551 c 0
 56 617 110 662 187 669 c 1
 263 669 307 618 307 560 c 0
 307 528 285 501 263 479 c 0
 240 456 221 440 202 426 c 0
 183 411 164 398 140 382 c 0
 130 374 129 370 149 370 c 0
 181 369 202 370 223 369 c 0
 271 367 280 386 287 413 c 0
 288 417 291 423 299 424 c 2
 309 423 l 2
 316 423 317 413 316 405 c 0
 315 390 305 328 300 320 c 0
EndSplineSet
EndChar

StartChar: guilsinglleft
Encoding: 220 8249 141
Width: 349
Flags: W
HStem: 292 30<154.5 188 154.5 188.5> 466 193<183.5 207> 611 48<157.5 177.5>
VStem: 219 65<575.5 579.5> 240 73
LayerCount: 2
Fore
SplineSet
141 292 m 0xc8
 87 292 26 315 26 343 c 0
 26 357 46 377 62 377 c 0xd0
 79 377 92 362 104 351 c 0
 121 336 145 322 164 322 c 0
 212 322 239 361 240 400 c 0
 241 441 225 466 189 466 c 0xc8
 178 466 159 463 145 456 c 0
 139 453 136 464 132 472 c 0
 127 479 133 489 137 491 c 0
 158 498 174 502 191 516 c 0
 214 534 219 555 219 568 c 0
 219 591 194 611 161 611 c 0
 131 611 106 599 85 569 c 0
 78 560 45 568 53 582 c 0
 80 630 130 659 185 659 c 0
 239 659 284 626 284 587 c 0xb0
 284 564 276 535 252 516 c 0
 243 509 251 504 256 501 c 0
 284 485 313 455 313 414 c 0
 313 343 236 292 141 292 c 0xc8
EndSplineSet
EndChar

StartChar: guilsinglright
Encoding: 221 8250 142
Width: 349
Flags: W
HStem: 291 21G 292 21G<206.5 217.5> 383 51 630 20G<237 244 244 244>
VStem: 195 64<439.5 446>
LayerCount: 2
Fore
SplineSet
320 396 m 0x78
 318 389 312 386 306 386 c 2
 270 384 l 1
 270 384 259 379 260 371 c 0
 261 346 261 327 260 307 c 0
 260 302 257 292 244 291 c 0xb8
 239 292 223 292 212 292 c 0
 201 292 195 299 195 307 c 0
 195 326 194 350 195 371 c 0
 194 377 189 383 183 384 c 0
 147 382 90 383 43 383 c 0
 32 383 28 390 28 396 c 0
 28 410 28 414 38 426 c 0
 68 464 135 540 213 635 c 0
 219 643 224 650 237 650 c 2
 244 650 l 2
 259 647 257 642 259 631 c 2
 259 446 l 2
 259 442 263 435 266 434 c 2
 305 435 l 2
 313 434 317 435 321 425 c 0
 324 417 319 404 320 396 c 0x78
197 548 m 0
 196 555 194 560 187 552 c 0
 149 505 118 467 100 443 c 0
 96 437 97 432 110 432 c 0
 137 432 154 432 187 433 c 0
 190 433 195 437 195 442 c 0
 197 472 199 511 197 548 c 0
EndSplineSet
EndChar

StartChar: fi
Encoding: 222 64257 143
Width: 349
Flags: W
HStem: 302 33<153.5 181.5 153.5 187.5> 472 62<158 174.5> 585 65 642 20G<268 278 278 278>
VStem: 230 67<387.5 431>
LayerCount: 2
Fore
SplineSet
141 302 m 0xe8
 87 302 38 327 38 354 c 0
 38 368 54 386 70 386 c 0xe8
 94 386 113 357 131 344 c 0
 139 338 148 335 159 335 c 0
 204 335 230 361 230 408 c 0
 230 454 202 472 147 472 c 0
 123 472 106 465 83 454 c 0
 79 452 74 451 69 454 c 0
 62 458 61 460 61 469 c 0
 66 518 69 596 67 637 c 1
 71 654 91 652 103 651 c 0
 125 650 179 649 214 650 c 0
 223 651 238 650 244 650 c 0xe8
 250 650 255 655 258 658 c 0
 262 661 265 662 268 662 c 2
 278 662 l 2xd8
 284 659 284 652 283 644 c 2
 277 596 l 2
 273 588 273 583 258 583 c 2
 118 585 l 2
 113 584 108 579 106 573 c 2
 105 534 l 2
 105 533 106 521 112 522 c 0
 127 527 148 534 168 534 c 0
 249 534 297 487 297 422 c 0
 297 353 234 302 141 302 c 0xe8
EndSplineSet
EndChar

StartChar: fl
Encoding: 223 64258 144
Width: 349
Flags: MW
HStem: 297 38<161 199 161 218>
VStem: 48 73<404 431.5 404 476>
LayerCount: 2
Fore
SplineSet
179 297 m 0
 100 297 48 355 48 440 c 0
 48 512 83 625 223 659 c 0
 229 660 240 662 243 655 c 2
 249 642 l 2
 253 633 247 627 241 625 c 0
 183 605 147 573 133 529 c 0
 129 516 133 515 149 520 c 0
 162 524 176 525 189 525 c 0
 261 525 302 472 302 413 c 0
 302 349 257 297 179 297 c 0
186 488 m 0
 162 491 139 482 128 465 c 0
 122 455 121 438 121 425 c 0
 121 383 140 335 182 335 c 0
 216 335 240 363 235 409 c 0
 231 449 219 484 186 488 c 0
EndSplineSet
EndChar

StartChar: daggerdbl
Encoding: 224 8225 145
Width: 349
Flags: MW
HStem: 293 21G<160 163> 569 78<218 224>
LayerCount: 2
Fore
SplineSet
313 624 m 1
 184 302 l 2
 181 297 174 292 163 293 c 0
 157 293 122 301 131 322 c 2
 230 554 l 2
 233 561 230 569 218 569 c 0
 150 571 119 569 96 568 c 0
 93 568 83 568 80 566 c 0
 72 559 73 528 57 528 c 0
 53 528 47 526 40 528 c 0
 35 530 31 535 31 538 c 2
 34 627 l 2
 35 636 51 648 62 647 c 0
 119 651 207 649 288 647 c 0
 311 647 317 645 313 624 c 1
EndSplineSet
EndChar

StartChar: periodcentered
Encoding: 225 183 146
Width: 349
Flags: MW
HStem: 419 36<146.5 162> 611 38<148 196.5>
VStem: 38 71<513.5 557.5 513.5 565.5>
LayerCount: 2
Fore
SplineSet
121 276 m 0
 94 269 82 303 104 311 c 0
 147 325 169 348 178 357 c 0
 193 371 205 390 214 412 c 0
 217 418 219 430 206 425 c 0
 193 420 167 419 157 419 c 0
 86 419 38 473 38 533 c 0
 38 598 91 649 168 649 c 0
 258 649 307 588 307 503 c 0
 307 414 252 308 121 276 c 0
167 611 m 0
 129 611 109 576 109 539 c 0
 109 488 127 455 166 455 c 0
 179 455 204 457 219 466 c 0
 228 471 234 480 234 484 c 0
 239 529 226 611 167 611 c 0
EndSplineSet
EndChar

StartChar: quotesinglbase
Encoding: 226 8218 147
Width: 396
Flags: MW
HStem: 287 40<169.5 225 169.5 239.5> 613 37<160 231>
VStem: 49 72<428.5 493 428.5 517> 270 72<424 492>
LayerCount: 2
Fore
SplineSet
196 287 m 0
 109 287 49 370 49 468 c 0
 49 566 109 650 196 650 c 0
 283 650 342 566 342 468 c 0
 342 370 283 287 196 287 c 0
196 613 m 0
 124 613 121 518 121 468 c 0
 121 389 143 327 196 327 c 0
 254 327 270 380 270 468 c 0
 270 516 266 613 196 613 c 0
EndSplineSet
EndChar

StartChar: quotedblbase
Encoding: 227 8222 148
Width: 418
Flags: W
LayerCount: 2
Fore
SplineSet
279 -138 m 0
 256 -147 246 -122 266 -111 c 0
 317 -82 342 -47 342 -15 c 0
 342 -2 338 2 335 2 c 0
 327 2 318 -3 308 -3 c 0
 281 -3 260 19 260 48 c 0
 260 79 287 102 319 102 c 0
 362 102 394 65 394 14 c 0
 394 -50 350 -110 279 -138 c 0
59 -140 m 0
 42 -144 29 -122 48 -111 c 0
 100 -82 125 -47 125 -15 c 0
 125 -2 120 2 116 2 c 0
 110 2 100 -3 91 -3 c 0
 64 -3 43 19 43 48 c 0
 43 79 69 104 102 104 c 0
 145 104 175 65 175 14 c 0
 175 -50 129 -111 59 -140 c 0
EndSplineSet
EndChar

StartChar: perthousand
Encoding: 228 8240 149
Width: 770
Flags: W
LayerCount: 2
Fore
SplineSet
629 -33 m 0
 570 -33 520 14 520 77 c 0
 520 143 568 189 628 189 c 0
 687 189 738 145 737 79 c 0
 736 14 689 -33 629 -33 c 0
153 227 m 0
 95 227 44 274 44 337 c 0
 44 403 93 449 152 449 c 0
 211 449 263 405 262 339 c 0
 261 274 214 227 153 227 c 0
140 -44 m 2
 133 -57 127 -54 118 -52 c 0
 104 -48 101 -42 106 -33 c 2
 394 465 l 2
 400 472 410 474 415 471 c 2
 421 469 l 2
 428 465 430 456 428 451 c 2
 140 -44 l 2
386 -33 m 0
 328 -33 277 14 277 77 c 0
 277 143 326 189 385 189 c 0
 444 189 496 145 495 79 c 0
 494 14 447 -33 386 -33 c 0
626 159 m 0
 592 159 568 131 568 79 c 0
 568 25 593 -2 629 -2 c 0
 666 -2 689 26 689 79 c 0
 689 132 665 159 626 159 c 0
151 419 m 0
 116 419 93 391 93 339 c 0
 93 285 117 259 153 259 c 0
 190 259 214 286 214 339 c 0
 214 393 189 419 151 419 c 0
384 159 m 0
 349 159 326 131 326 79 c 0
 326 25 350 -2 386 -2 c 0
 423 -2 446 26 446 79 c 0
 446 133 422 159 384 159 c 0
EndSplineSet
EndChar

StartChar: Aacute
Encoding: 231 193 150
Width: 349
Flags: W
HStem: 302 33<153.5 181.5 153.5 187.5> 472 62<158 174.5> 585 65 642 20G<268 278 278 278>
VStem: 230 67<387.5 431>
LayerCount: 2
Fore
SplineSet
141 302 m 0xe8
 87 302 38 327 38 354 c 0
 38 368 54 386 70 386 c 0xe8
 94 386 113 357 131 344 c 0
 139 338 148 335 159 335 c 0
 204 335 230 361 230 408 c 0
 230 454 202 472 147 472 c 0
 123 472 106 465 83 454 c 0
 79 452 74 451 69 454 c 0
 62 458 61 460 61 469 c 0
 66 518 69 596 67 637 c 1
 71 654 91 652 103 651 c 0
 125 650 179 649 214 650 c 0
 223 651 238 650 244 650 c 0xe8
 250 650 255 655 258 658 c 0
 262 661 265 662 268 662 c 2
 278 662 l 2xd8
 284 659 284 652 283 644 c 2
 277 596 l 2
 273 588 273 583 258 583 c 2
 118 585 l 2
 113 584 108 579 106 573 c 2
 105 534 l 2
 105 533 106 521 112 522 c 0
 127 527 148 534 168 534 c 0
 249 534 297 487 297 422 c 0
 297 353 234 302 141 302 c 0xe8
EndSplineSet
EndChar

StartChar: Edieresis
Encoding: 232 203 151
Width: 349
Flags: MW
HStem: 297 38<161 199 161 218>
VStem: 48 73<404 431.5 404 476>
LayerCount: 2
Fore
SplineSet
179 297 m 0
 100 297 48 355 48 440 c 0
 48 512 83 625 223 659 c 0
 229 660 240 662 243 655 c 2
 249 642 l 2
 253 633 247 627 241 625 c 0
 183 605 147 573 133 529 c 0
 129 516 133 515 149 520 c 0
 162 524 176 525 189 525 c 0
 261 525 302 472 302 413 c 0
 302 349 257 297 179 297 c 0
186 488 m 0
 162 491 139 482 128 465 c 0
 122 455 121 438 121 425 c 0
 121 383 140 335 182 335 c 0
 216 335 240 363 235 409 c 0
 231 449 219 484 186 488 c 0
EndSplineSet
EndChar

StartChar: circumflex
Encoding: 246 710 152
Width: 349
Flags: W
LayerCount: 2
Fore
SplineSet
315 561 m 2
 317 556 320 549 314 548 c 0
 307 546 297 547 294 550 c 2
 172 654 l 1
 57 550 l 2
 49 543 29 548 33 556 c 2
 122 712 l 2
 125 717 130 720 135 722 c 0
 142 723 197 724 210 723 c 0
 220 722 222 721 227 713 c 2
 315 561 l 2
EndSplineSet
EndChar

StartChar: tilde
Encoding: 247 732 153
Width: 349
Flags: W
HStem: 544 71<263 266> 612 70<81.5 87.5> 667 20G<319 322>
LayerCount: 2
Fore
SplineSet
336 668 m 0xa0
 336 597 295 544 237 544 c 0xa0
 210 544 178 557 140 583 c 0
 103 609 94 612 81 612 c 0
 62 612 52 601 44 565 c 0
 44 561 42 557 41 547 c 0
 37 539 16 534 14 547 c 0
 18 633 51 682 112 682 c 0x40
 142 682 165 673 210 642 c 0
 241 621 257 615 269 615 c 0
 290 615 301 627 309 681 c 0
 309 685 316 687 322 687 c 0
 328 688 334 685 334 681 c 0
 336 675 336 671 336 668 c 0xa0
EndSplineSet
EndChar

StartChar: macron
Encoding: 248 175 154
Width: 349
Flags: MW
HStem: 575 75<18.5 40 30 40 40 318>
LayerCount: 2
Fore
SplineSet
341 590 m 2
 341 577 333 575 318 575 c 2
 26 575 l 2
 11 575 9 583 9 594 c 2
 9 639 l 2
 9 649 22 650 30 650 c 0
 33 650 37 650 40 650 c 2
 321 650 l 2
 335 650 341 648 341 634 c 2
 341 590 l 2
EndSplineSet
EndChar

StartChar: breve
Encoding: 249 728 155
Width: 349
Flags: MW
HStem: 556 86<143 209.5 143 215.5>
LayerCount: 2
Fore
SplineSet
325 706 m 0
 318 616 256 556 175 556 c 0
 94 556 33 615 25 706 c 0
 25 712 48 716 51 707 c 0
 75 661 110 642 176 642 c 0
 243 642 283 665 298 707 c 0
 300 710 307 711 313 711 c 0
 320 711 326 710 325 706 c 0
EndSplineSet
EndChar

StartChar: dotaccent
Encoding: 250 729 156
Width: 349
Flags: MW
HStem: 551 121<158.5 191.5>
VStem: 115 120<595.5 628>
LayerCount: 2
Fore
SplineSet
235 612 m 0
 235 579 208 551 175 551 c 0
 142 551 115 579 115 612 c 0
 115 644 142 672 175 672 c 0
 208 672 235 645 235 612 c 0
EndSplineSet
EndChar

StartChar: ring
Encoding: 251 730 157
Width: 349
Flags: MW
HStem: 549 47<157.5 187.5 157.5 200.5> 708 47<157.5 187.5>
VStem: 70 47<636.5 667.5 636.5 680.5> 227 47<636.5 667.5>
LayerCount: 2
Fore
SplineSet
274 652 m 0
 274 595 228 549 173 549 c 0
 116 549 70 595 70 652 c 0
 70 709 116 755 173 755 c 0
 228 755 274 709 274 652 c 0
227 652 m 0
 227 683 202 708 173 708 c 0
 142 708 117 683 117 652 c 0
 117 621 142 596 173 596 c 0
 202 596 227 621 227 652 c 0
EndSplineSet
EndChar

StartChar: cedilla
Encoding: 252 184 158
Width: 349
Flags: MW
HStem: -224 30<156.5 166 149.5 189> -194 83<149.5 183> -10 20G<186 214 214 214>
VStem: 202 55<-156 -136>
LayerCount: 2
Fore
SplineSet
257 -130 m 0xf0
 257 -182 215 -224 163 -224 c 0
 150 -224 137 -223 121 -217 c 0
 111 -213 113 -208 117 -202 c 0
 118 -200 119 -197 121 -195 c 0
 122 -192 127 -190 130 -191 c 0
 140 -193 147 -194 152 -194 c 0
 180 -194 202 -172 202 -147 c 0
 202 -125 192 -111 174 -111 c 0
 161 -111 148 -117 111 -136 c 0
 106 -138 98 -138 103 -130 c 2
 186 10 l 1
 214 10 l 1
 186 -42 l 2
 184 -46 184 -47 184 -48 c 0
 185 -49 188 -49 190 -50 c 0
 228 -55 257 -88 257 -130 c 0xf0
EndSplineSet
EndChar

StartChar: hungarumlaut
Encoding: 253 733 159
Width: 349
Flags: MW
HStem: 642 20G<82 170 170 170 237 328 328 328>
LayerCount: 2
Fore
SplineSet
332 652 m 2
 222 476 l 2
 220 473 212 472 206 473 c 0
 200 473 194 475 194 477 c 2
 227 654 l 2
 229 660 232 662 237 662 c 2
 328 662 l 2
 335 660 334 657 332 652 c 2
175 652 m 2
 63 476 l 2
 56 471 36 473 36 477 c 2
 69 653 l 2
 70 661 76 662 82 662 c 2
 170 662 l 2
 177 660 179 658 175 652 c 2
EndSplineSet
EndChar

StartChar: ogonek
Encoding: 254 731 160
Width: 349
Flags: MW
HStem: -191 54<209.5 214> -7 20G<116 155 155 155>
VStem: 73 65<-121 -35>
LayerCount: 2
Fore
SplineSet
318 -148 m 1
 255 -184 234 -191 194 -191 c 0
 123 -191 73 -152 73 -90 c 0
 73 -53 89 -14 116 13 c 1
 155 13 l 1
 140 -16 138 -26 138 -44 c 0
 138 -97 180 -137 239 -137 c 0
 259 -137 276 -133 302 -124 c 1
 318 -148 l 1
EndSplineSet
EndChar

StartChar: caron
Encoding: 255 711 161
Width: 349
Flags: W
HStem: 556 21G<133.5 139 139 215> 717 20G<311 317> 718 20G<33.5 38>
LayerCount: 2
Fore
SplineSet
326 732 m 2xc0
 229 561 l 2
 225 557 223 556 215 556 c 2
 139 556 l 2
 128 556 122 559 121 564 c 2
 25 731 l 2
 23 734 25 736 27 737 c 0xc0
 29 738 32 738 35 738 c 0xa0
 41 738 48 737 51 733 c 2
 186 628 l 1
 299 733 l 2
 301 735 308 737 314 737 c 0
 320 737 326 735 326 732 c 2xc0
EndSplineSet
EndChar
